<?xml version="1.0" encoding="iso-8859-1"?>
<!-- Generator: Adobe Illustrator 19.2.1, SVG Export Plug-In . SVG Version: 6.00 Build 0)  -->
<svg version="1.1" xmlns="http://www.w3.org/2000/svg" xmlns:xlink="http://www.w3.org/1999/xlink" x="0px" y="0px"
	 viewBox="0 0 15 15" style="enable-background:new 0 0 15 15;" xml:space="preserve">
<g id="Layer_2">
	<g>
		<path style="fill:#99DDFF;" d="M14.5,10.5v3c0,0.55-0.45,1-1,1h-2v-5h2C14.05,9.5,14.5,9.95,14.5,10.5z"/>
		<polygon style="fill:#99DDFF;" points="11.5,9.5 11.5,14.5 8.5,14.5 8.5,10.14 9.14,9.5 		"/>
		<polygon style="fill:#99DDFF;" points="8.5,10.14 8.5,14.5 5.5,14.5 5.5,13.07 5.57,13.07 		"/>
		<rect x="0.5" y="6.5" style="fill:#FFD580;" width="5" height="3"/>
		<polygon style="fill:#FFD580;" points="5.5,6.07 5.5,6.5 0.5,6.5 0.5,3.5 5.5,3.5 		"/>
		<path style="fill:#FFD580;" d="M5.5,1.5v2h-5v-2c0-0.55,0.45-1,1-1h3C5.05,0.5,5.5,0.95,5.5,1.5z"/>
		<circle style="fill:#664848;" cx="3" cy="12" r="1"/>
		
			<line style="fill:none;stroke:#664848;stroke-linecap:round;stroke-linejoin:round;stroke-miterlimit:10;" x1="0.5" y1="3.5" x2="5.5" y2="3.5"/>
		
			<line style="fill:none;stroke:#664848;stroke-linecap:round;stroke-linejoin:round;stroke-miterlimit:10;" x1="0.5" y1="6.5" x2="5.5" y2="6.5"/>
		
			<line style="fill:none;stroke:#664848;stroke-linecap:round;stroke-linejoin:round;stroke-miterlimit:10;" x1="0.5" y1="9.5" x2="5.5" y2="9.5"/>
		
			<line style="fill:none;stroke:#664848;stroke-linecap:round;stroke-linejoin:round;stroke-miterlimit:10;" x1="11.5" y1="14.5" x2="11.5" y2="9.5"/>
		
			<line style="fill:none;stroke:#664848;stroke-linecap:round;stroke-linejoin:round;stroke-miterlimit:10;" x1="8.5" y1="14.5" x2="8.5" y2="10.14"/>
		<path style="fill:none;stroke:#664848;stroke-linecap:round;stroke-linejoin:round;stroke-miterlimit:10;" d="M5.5,9.5v-3V6.07
			V3.5v-3h-5v3v3v3v1V12c0,1.381,1.119,2.5,2.5,2.5h1.5h1h3h3h3v-5h-3H9.14"/>
		<polyline style="fill:none;stroke:#664848;stroke-linecap:round;stroke-linejoin:round;stroke-miterlimit:10;" points="5.5,14.5 
			5.5,13.07 5.5,9.5 		"/>
		<polyline style="fill:none;stroke:#664848;stroke-linecap:round;stroke-linejoin:round;stroke-miterlimit:10;" points="
			5.57,13.07 8.5,10.14 9.14,9.5 13.02,5.62 9.485,2.085 5.5,6.07 		"/>
	</g>
</g>
<g id="Layer_1">
</g>
</svg>
