<?xml version="1.0" encoding="iso-8859-1"?>
<!-- Generator: Adobe Illustrator 19.2.1, SVG Export Plug-In . SVG Version: 6.00 Build 0)  -->
<svg version="1.1" xmlns="http://www.w3.org/2000/svg" xmlns:xlink="http://www.w3.org/1999/xlink" x="0px" y="0px"
	 viewBox="0 0 16.438 16.438" style="enable-background:new 0 0 16.438 16.438;" xml:space="preserve">
<g id="Layer_11">
	<g id="_x31_6x16">
		<g>
			<path style="fill:#99DDFF;" d="M15.345,1.092c0.79,0.78,0.79,2.04,0,2.82l-4.24,4.24l-2.82-2.82l4.24-4.24
				C13.305,0.303,14.565,0.303,15.345,1.092z M14.425,2.463c0-0.28-0.22-0.5-0.5-0.5s-0.5,0.22-0.5,0.5s0.22,0.5,0.5,0.5
				S14.425,2.743,14.425,2.463z"/>
			<path style="fill:#99DDFF;" d="M12.525,9.573c0.39,0.39,0.39,1.02,0,1.42l-0.96,0.95l-7.07-7.07l0.95-0.96
				c0.4-0.39,1.03-0.39,1.42,0l1.41,1.42l2.83,2.83L12.525,9.573z"/>
			<path style="fill:#FFD580;" d="M11.565,11.943l-3.29,3.29c-0.39,0.39-1.02,0.39-1.41,0l-5.66-5.66c-0.39-0.39-0.39-1.02,0-1.41
				l3.29-3.29L11.565,11.943z"/>
			<polyline style="fill:none;stroke:#664848;stroke-linecap:round;stroke-linejoin:round;stroke-miterlimit:10;" points="
				11.565,11.943 7.57,15.938 0.5,8.868 4.495,4.872 			"/>
			
				<line style="fill:none;stroke:#664848;stroke-linecap:round;stroke-linejoin:round;stroke-miterlimit:10;" x1="11.105" y1="8.153" x2="8.285" y2="5.332"/>
			<path style="fill:none;stroke:#664848;stroke-linecap:round;stroke-linejoin:round;stroke-miterlimit:10;" d="M8.275,5.332
				l-1.41-1.42c-0.39-0.39-1.02-0.39-1.42,0l-0.95,0.96l7.07,7.07l0.96-0.95c0.39-0.4,0.39-1.03,0-1.42l-1.42-1.41"/>
			<path style="fill:none;stroke:#664848;stroke-linecap:round;stroke-linejoin:round;stroke-miterlimit:10;" d="M11.105,8.153
				l4.24-4.24c0.79-0.78,0.79-2.04,0-2.82c-0.78-0.79-2.04-0.79-2.82,0l-4.24,4.24h-0.01l2.83,2.83V8.153z"/>
			
				<circle style="fill:none;stroke:#664848;stroke-linecap:round;stroke-linejoin:round;stroke-miterlimit:10;" cx="13.925" cy="2.463" r="0.5"/>
			
				<line style="fill:none;stroke:#664848;stroke-linecap:round;stroke-linejoin:round;stroke-miterlimit:10;" x1="7.925" y1="12.462" x2="6.015" y2="14.373"/>
			
				<line style="fill:none;stroke:#664848;stroke-linecap:round;stroke-linejoin:round;stroke-miterlimit:10;" x1="5.925" y1="11.462" x2="4.515" y2="12.873"/>
		</g>
	</g>
</g>
<g id="Layer_1">
</g>
</svg>
