<?xml version="1.0" encoding="iso-8859-1"?>
<!-- Generator: Adobe Illustrator 19.2.1, SVG Export Plug-In . SVG Version: 6.00 Build 0)  -->
<svg version="1.1" xmlns="http://www.w3.org/2000/svg" xmlns:xlink="http://www.w3.org/1999/xlink" x="0px" y="0px"
	 viewBox="0 0 14 16" style="enable-background:new 0 0 14 16;" xml:space="preserve">
<g id="Layer_13">
	<g>
		<circle style="fill:#664848;" cx="13.5" cy="0.5" r="0.5"/>
		<circle style="fill:#664848;" cx="13.5" cy="2.5" r="0.5"/>
		<circle style="fill:#664848;" cx="11.5" cy="0.5" r="0.5"/>
		<circle style="fill:#664848;" cx="11.5" cy="2.5" r="0.5"/>
		<circle style="fill:#664848;" cx="9.5" cy="0.5" r="0.5"/>
		<circle style="fill:#664848;" cx="9.5" cy="2.5" r="0.5"/>
		<rect x="0.5" y="6.5" style="fill:#FFD580;" width="8" height="9"/>
		<circle style="fill:#664848;" cx="7.5" cy="1.5" r="0.5"/>
		<polyline style="fill:none;stroke:#664848;stroke-linecap:round;stroke-linejoin:round;stroke-miterlimit:10;" points="8.5,6.5 
			8.5,15.5 0.5,15.5 0.5,6.5 		"/>
		
			<line style="fill:none;stroke:#664848;stroke-linecap:round;stroke-linejoin:round;stroke-miterlimit:10;" x1="2.5" y1="13.5" x2="2.5" y2="8.5"/>
		<path style="fill:none;stroke:#664848;stroke-linecap:round;stroke-linejoin:round;stroke-miterlimit:10;" d="M8.5,6.5h-8
			c0-1.86,1.27-3.43,3-3.87c0.32-0.09,0.65-0.13,1-0.13s0.68,0.04,1,0.13C7.23,3.07,8.5,4.64,8.5,6.5z"/>
		<path style="fill:none;stroke:#664848;stroke-linecap:round;stroke-miterlimit:10;" d="M3.5,2.5V1c0-0.28,0.22-0.5,0.5-0.5h1
			c0.28,0,0.5,0.22,0.5,0.5v1.5h-1H3.5z"/>
	</g>
</g>
<g id="Layer_1">
</g>
</svg>
