<?xml version="1.0" encoding="iso-8859-1"?>
<!-- Generator: Adobe Illustrator 19.2.1, SVG Export Plug-In . SVG Version: 6.00 Build 0)  -->
<svg version="1.1" xmlns="http://www.w3.org/2000/svg" xmlns:xlink="http://www.w3.org/1999/xlink" x="0px" y="0px"
	 viewBox="0 0 15 16" style="enable-background:new 0 0 15 16;" xml:space="preserve">
<g id="Layer_14">
	<g>
		<path style="fill:#FFD580;" d="M13.5,10.5c0.55,0,1,0.45,1,1s-0.45,1-1,1h-3h-3h-3h-3c-0.55,0-1-0.45-1-1s0.45-1,1-1H13.5z"/>
		<path style="fill:#664848;" d="M8,1H7.5H7C6.45,1,6,1.45,6,2v0.5h1.5H9V2C9,1.45,8.55,1,8,1z"/>
		<polyline style="fill:none;stroke:#664848;stroke-linecap:round;stroke-linejoin:round;stroke-miterlimit:10;" points="1.5,10.5 
			1.5,2.5 7.5,2.5 13.5,2.5 13.5,10.5 		"/>
		<path style="fill:none;stroke:#664848;stroke-linecap:round;stroke-linejoin:round;stroke-miterlimit:10;" d="M13.5,10.5h-12
			c-0.55,0-1,0.45-1,1s0.45,1,1,1h3h3h3h3c0.55,0,1-0.45,1-1S14.05,10.5,13.5,10.5z"/>
		
			<line style="fill:none;stroke:#664848;stroke-linecap:round;stroke-linejoin:round;stroke-miterlimit:10;" x1="7.5" y1="0.5" x2="7.5" y2="1"/>
		
			<line style="fill:none;stroke:#664848;stroke-linecap:round;stroke-linejoin:round;stroke-miterlimit:10;" x1="11.5" y1="15.5" x2="10.5" y2="12.5"/>
		
			<line style="fill:none;stroke:#664848;stroke-linecap:round;stroke-linejoin:round;stroke-miterlimit:10;" x1="3.5" y1="15.5" x2="4.5" y2="12.5"/>
	</g>
</g>
<g id="Layer_1">
</g>
</svg>
