<?xml version="1.0" encoding="iso-8859-1"?>
<!-- Generator: Adobe Illustrator 19.2.1, SVG Export Plug-In . SVG Version: 6.00 Build 0)  -->
<svg version="1.1" xmlns="http://www.w3.org/2000/svg" xmlns:xlink="http://www.w3.org/1999/xlink" x="0px" y="0px"
	 viewBox="0 0 16 16.27" style="enable-background:new 0 0 16 16.27;" xml:space="preserve">
<g id="Layer_15">
	<g>
		<g id="XMLID_4_">
			<g>
				<path style="fill:#FF9999;" d="M0.5,12.77c0-1.65,1.35-3,3-3c0.27,0,0.53,0.04,0.77,0.11c0.13,0.03,0.25,0.08,0.38,0.13
					c0,0,0,0,0.01,0c0.11,0.05,0.23,0.11,0.34,0.17c0.45,0.27,0.82,0.64,1.09,1.09c0.06,0.11,0.12,0.23,0.17,0.34
					c0,0.01,0,0.01,0,0.01c0.05,0.13,0.1,0.25,0.13,0.38c0.07,0.24,0.11,0.5,0.11,0.77c0,1.65-1.35,3-3,3S0.5,14.42,0.5,12.77z
					 M4.5,12.77c0-0.55-0.45-1-1-1s-1,0.45-1,1s0.45,1,1,1S4.5,13.32,4.5,12.77z"/>
				<path style="fill:#FF9999;" d="M12.5,11.77c-0.55,0-1,0.45-1,1s0.45,1,1,1s1-0.45,1-1S13.05,11.77,12.5,11.77z M15.5,12.77
					c0,1.65-1.35,3-3,3s-3-1.35-3-3c0-0.27,0.04-0.53,0.11-0.77c0.03-0.13,0.08-0.25,0.13-0.38c0,0,0,0,0-0.01
					c0.05-0.11,0.11-0.23,0.17-0.34c0.27-0.44,0.64-0.82,1.08-1.09c0.01,0.01,0.01,0.01,0.01,0c0.11-0.06,0.23-0.12,0.34-0.17
					c0.01,0,0.01,0,0.01,0c0.13-0.05,0.25-0.1,0.38-0.13c0.25-0.07,0.5-0.11,0.77-0.11C14.15,9.77,15.5,11.12,15.5,12.77z"/>
				<circle style="fill:#664848;" cx="8" cy="8.27" r="1"/>
			</g>
			<g>
				<path style="fill:none;stroke:#664848;stroke-linecap:round;stroke-linejoin:round;stroke-miterlimit:10;" d="M4.65,10.01
					C4.53,9.95,4.4,9.91,4.27,9.88C4.03,9.81,3.77,9.77,3.5,9.77c-1.65,0-3,1.35-3,3s1.35,3,3,3s3-1.35,3-3
					c0-0.27-0.04-0.53-0.11-0.77c-0.03-0.13-0.07-0.26-0.13-0.38"/>
				<path style="fill:none;stroke:#664848;stroke-linecap:round;stroke-linejoin:round;stroke-miterlimit:10;" d="M6.26,11.61
					c-0.05-0.12-0.1-0.23-0.17-0.34C5.83,10.82,5.45,10.44,5,10.18c-0.11-0.07-0.22-0.12-0.34-0.17"/>
				
					<circle style="fill:none;stroke:#664848;stroke-linecap:round;stroke-linejoin:round;stroke-miterlimit:10;" cx="3.5" cy="12.77" r="1"/>
				<path style="fill:none;stroke:#664848;stroke-linecap:round;stroke-linejoin:round;stroke-miterlimit:10;" d="M9.74,11.62
					c-0.06,0.12-0.1,0.25-0.13,0.38c-0.07,0.24-0.11,0.5-0.11,0.77c0,1.65,1.35,3,3,3s3-1.35,3-3s-1.35-3-3-3
					c-0.27,0-0.52,0.04-0.77,0.11c-0.13,0.03-0.26,0.07-0.38,0.13"/>
				<path style="fill:none;stroke:#664848;stroke-linecap:round;stroke-linejoin:round;stroke-miterlimit:10;" d="M10.99,10.18
					c-0.45,0.26-0.82,0.64-1.08,1.09c-0.07,0.11-0.12,0.22-0.17,0.34"/>
				<path style="fill:none;stroke:#664848;stroke-linecap:round;stroke-linejoin:round;stroke-miterlimit:10;" d="M11.34,10.01
					c-0.12,0.05-0.23,0.1-0.34,0.17"/>
				
					<circle style="fill:none;stroke:#664848;stroke-linecap:round;stroke-linejoin:round;stroke-miterlimit:10;" cx="12.5" cy="12.77" r="1"/>
				<path style="fill:none;stroke:#664848;stroke-linecap:round;stroke-linejoin:round;stroke-miterlimit:10;" d="M5.88,8.27
					L4.27,9.88c0.13,0.03,0.25,0.08,0.38,0.13c0,0,0,0,0.01,0c0.11,0.05,0.23,0.11,0.34,0.17c0.45,0.27,0.82,0.64,1.09,1.09
					c0.06,0.11,0.12,0.23,0.17,0.34c0,0.01,0,0.01,0,0.01c0.05,0.13,0.1,0.25,0.13,0.38L8,10.39"/>
				<path style="fill:none;stroke:#664848;stroke-linecap:round;stroke-linejoin:round;stroke-miterlimit:10;" d="M10.12,8.27
					l3.2-3.2c0.66-0.66,1.02-1.54,1.02-2.47c0-0.77-0.24-1.5-0.69-2.1L8,6.15"/>
				<path style="fill:none;stroke:#664848;stroke-linecap:round;stroke-linejoin:round;stroke-miterlimit:10;" d="M8,6.15L2.35,0.5
					C1.9,1.1,1.66,1.83,1.66,2.6c0,0.93,0.36,1.81,1.02,2.47l3.2,3.2L8,6.15z"/>
				<path style="fill:none;stroke:#664848;stroke-linecap:round;stroke-linejoin:round;stroke-miterlimit:10;" d="M8,10.39L9.61,12
					c0.03-0.13,0.08-0.25,0.13-0.38c0,0,0,0,0-0.01c0.05-0.11,0.11-0.23,0.17-0.34c0.27-0.44,0.64-0.82,1.08-1.09
					c0.01,0.01,0.01,0.01,0.01,0c0.11-0.06,0.23-0.12,0.34-0.17c0.01,0,0.01,0,0.01,0c0.13-0.05,0.25-0.1,0.38-0.13l-1.61-1.61
					L8,10.39z"/>
			</g>
		</g>
	</g>
</g>
<g id="Layer_1">
</g>
</svg>
