<?xml version="1.0" encoding="iso-8859-1"?>
<!-- Generator: Adobe Illustrator 19.2.1, SVG Export Plug-In . SVG Version: 6.00 Build 0)  -->
<svg version="1.1" xmlns="http://www.w3.org/2000/svg" xmlns:xlink="http://www.w3.org/1999/xlink" x="0px" y="0px"
	 viewBox="0 0 16 16.003" style="enable-background:new 0 0 16 16.003;" xml:space="preserve">
<g id="Layer_16">
	<g>
		<path style="fill:#99DDFF;" d="M15.5,5.503v9c0,0.55-0.45,1-1,1h-13c-0.55,0-1-0.45-1-1v-9c0-0.55,0.45-1,1-1h8.58l-0.74,0.74
			l-0.42,1.26H5.5v7h8v-7h-2.58l2-2h1.58C15.05,4.503,15.5,4.953,15.5,5.503z"/>
		<path style="fill:#FFD580;" d="M15.21,0.793c-0.39-0.39-1.03-0.39-1.42,0l-4.45,4.45l-0.7,2.12l2.12-0.7l0.16-0.16l4.29-4.29
			c0.19-0.19,0.29-0.45,0.29-0.71S15.4,0.983,15.21,0.793z"/>
		<polyline style="fill:none;stroke:#664848;stroke-linecap:round;stroke-linejoin:round;stroke-miterlimit:10;" points="
			10.08,4.503 0.5,4.503 0.5,15.503 15.5,15.503 15.5,4.503 12.92,4.503 12.91,4.503 		"/>
		<path style="fill:none;stroke:#664848;stroke-linecap:round;stroke-linejoin:round;stroke-miterlimit:10;" d="M15.21,0.793
			c-0.39-0.39-1.03-0.39-1.42,0l-4.45,4.45l-0.7,2.12l2.12-0.7l0.16-0.16l4.29-4.29c0.19-0.19,0.29-0.45,0.29-0.71
			S15.4,0.983,15.21,0.793z"/>
		<polyline style="fill:none;stroke:#664848;stroke-linecap:round;stroke-linejoin:round;stroke-miterlimit:10;" points="
			10.92,6.503 13.5,6.503 13.5,13.503 5.5,13.503 5.5,6.503 8.92,6.503 		"/>
		
			<line style="fill:none;stroke:#664848;stroke-linecap:round;stroke-linejoin:round;stroke-miterlimit:10;" x1="2.5" y1="6.503" x2="3.5" y2="6.503"/>
		
			<line style="fill:none;stroke:#664848;stroke-linecap:round;stroke-linejoin:round;stroke-miterlimit:10;" x1="2.5" y1="8.503" x2="3.5" y2="8.503"/>
		
			<line style="fill:none;stroke:#664848;stroke-linecap:round;stroke-linejoin:round;stroke-miterlimit:10;" x1="2.5" y1="11.503" x2="3.5" y2="11.503"/>
		
			<line style="fill:none;stroke:#664848;stroke-linecap:round;stroke-linejoin:round;stroke-miterlimit:10;" x1="2.5" y1="13.503" x2="3.5" y2="13.503"/>
	</g>
</g>
<g id="Layer_1">
</g>
</svg>
