<?xml version="1.0" encoding="iso-8859-1"?>
<!-- Generator: Adobe Illustrator 19.2.1, SVG Export Plug-In . SVG Version: 6.00 Build 0)  -->
<svg version="1.1" xmlns="http://www.w3.org/2000/svg" xmlns:xlink="http://www.w3.org/1999/xlink" x="0px" y="0px"
	 viewBox="0 0 16 16" style="enable-background:new 0 0 16 16;" xml:space="preserve">
<g id="Layer_17">
	<g>
		<path style="fill:#99DDFF;" d="M15.5,8c0,0.47-0.04,0.93-0.13,1.37L10.5,6.56L8,5.11l4.86-2.81C14.48,3.67,15.5,5.72,15.5,8z"/>
		<path style="fill:#99DDFF;" d="M10.5,6.56l4.87,2.81c-0.49,2.65-2.37,4.82-4.87,5.69V9.44V6.56z"/>
		<path style="fill:#99DDFF;" d="M12.86,2.3L8,5.11L5.5,6.56V0.94C6.28,0.65,7.12,0.5,8,0.5C9.86,0.5,11.55,1.17,12.86,2.3z"/>
		<path style="fill:#99DDFF;" d="M10.5,9.44v5.62C9.72,15.35,8.88,15.5,8,15.5c-1.86,0-3.55-0.67-4.86-1.8L8,10.89L10.5,9.44z"/>
		<path style="fill:#99DDFF;" d="M8,10.89L3.14,13.7C1.52,12.33,0.5,10.28,0.5,8c0-0.47,0.04-0.93,0.13-1.37L5.5,9.44L8,10.89z"/>
		<path style="fill:#99DDFF;" d="M5.5,6.56v2.88L0.63,6.63C1.12,3.98,3,1.81,5.5,0.94V6.56z"/>
		<path style="fill:none;stroke:#664848;stroke-miterlimit:10;" d="M12.86,2.3C14.48,3.67,15.5,5.72,15.5,8
			c0,0.47-0.04,0.93-0.13,1.37c-0.49,2.65-2.37,4.82-4.87,5.69C9.72,15.35,8.88,15.5,8,15.5c-1.86,0-3.55-0.67-4.86-1.8
			C1.52,12.33,0.5,10.28,0.5,8c0-0.47,0.04-0.93,0.13-1.37C1.12,3.98,3,1.81,5.5,0.94C6.28,0.65,7.12,0.5,8,0.5
			C9.86,0.5,11.55,1.17,12.86,2.3z"/>
		<polyline style="fill:none;stroke:#664848;stroke-miterlimit:10;" points="5.5,0.93 5.5,0.94 5.5,6.56 5.5,9.44 		"/>
		<polyline style="fill:none;stroke:#664848;stroke-miterlimit:10;" points="10.5,6.56 10.5,9.44 10.5,15.06 10.5,15.07 		"/>
		<polyline style="fill:none;stroke:#664848;stroke-miterlimit:10;" points="3.13,13.7 3.14,13.7 8,10.89 10.5,9.44 		"/>
		<polyline style="fill:none;stroke:#664848;stroke-miterlimit:10;" points="5.5,6.56 8,5.11 12.86,2.3 12.87,2.3 		"/>
		<polyline style="fill:none;stroke:#664848;stroke-miterlimit:10;" points="15.37,9.37 10.5,6.56 8,5.11 		"/>
		<polyline style="fill:none;stroke:#664848;stroke-miterlimit:10;" points="8,10.89 5.5,9.44 0.63,6.63 		"/>
	</g>
</g>
<g id="Layer_1">
</g>
</svg>
