<?xml version="1.0" encoding="iso-8859-1"?>
<!-- Generator: Adobe Illustrator 19.2.1, SVG Export Plug-In . SVG Version: 6.00 Build 0)  -->
<svg version="1.1" xmlns="http://www.w3.org/2000/svg" xmlns:xlink="http://www.w3.org/1999/xlink" x="0px" y="0px"
	 viewBox="0 0 15.935 15.935" style="enable-background:new 0 0 15.935 15.935;" xml:space="preserve">
<g id="Layer_18">
	<g>
		<path style="fill:#FFD580;" d="M2.882,8.813l1.5-1.5l1.5-1.5l1.5-1.5l1.5-1.5l1.5-1.5l0.52-0.52c0.39-0.39,1.02-0.39,1.41,0
			l2.83,2.83c0.39,0.39,0.39,1.02,0,1.41l-10.1,10.11c-0.39,0.39-1.03,0.39-1.42,0l-2.83-2.83c-0.39-0.39-0.39-1.03,0-1.42
			l0.59-0.58L2.882,8.813z"/>
		<path style="fill:none;stroke:#664848;stroke-linecap:round;stroke-linejoin:round;stroke-miterlimit:10;" d="M10.382,1.313
			l0.52-0.52c0.39-0.39,1.02-0.39,1.41,0l2.83,2.83c0.39,0.39,0.39,1.02,0,1.41l-10.1,10.11c-0.39,0.39-1.03,0.39-1.42,0l-2.83-2.83
			c-0.39-0.39-0.39-1.03,0-1.42l0.59-0.58l1.5-1.5l1.5-1.5l1.5-1.5l1.5-1.5l1.5-1.5L10.382,1.313z"/>
		
			<line style="fill:none;stroke:#664848;stroke-linecap:round;stroke-linejoin:round;stroke-miterlimit:10;" x1="1.383" y1="10.313" x2="3.503" y2="12.433"/>
		
			<line style="fill:none;stroke:#664848;stroke-linecap:round;stroke-linejoin:round;stroke-miterlimit:10;" x1="2.882" y1="8.813" x2="4.503" y2="10.433"/>
		
			<line style="fill:none;stroke:#664848;stroke-linecap:round;stroke-linejoin:round;stroke-miterlimit:10;" x1="4.383" y1="7.313" x2="6.503" y2="9.433"/>
		
			<line style="fill:none;stroke:#664848;stroke-linecap:round;stroke-linejoin:round;stroke-miterlimit:10;" x1="5.883" y1="5.813" x2="7.503" y2="7.433"/>
		
			<line style="fill:none;stroke:#664848;stroke-linecap:round;stroke-linejoin:round;stroke-miterlimit:10;" x1="7.383" y1="4.313" x2="9.502" y2="6.433"/>
		
			<line style="fill:none;stroke:#664848;stroke-linecap:round;stroke-linejoin:round;stroke-miterlimit:10;" x1="8.882" y1="2.813" x2="10.502" y2="4.433"/>
		
			<line style="fill:none;stroke:#664848;stroke-linecap:round;stroke-linejoin:round;stroke-miterlimit:10;" x1="10.382" y1="1.313" x2="12.502" y2="3.433"/>
	</g>
</g>
<g id="Layer_1">
</g>
</svg>
