<?xml version="1.0" encoding="iso-8859-1"?>
<!-- Generator: Adobe Illustrator 19.2.1, SVG Export Plug-In . SVG Version: 6.00 Build 0)  -->
<svg version="1.1" xmlns="http://www.w3.org/2000/svg" xmlns:xlink="http://www.w3.org/1999/xlink" x="0px" y="0px"
	 viewBox="0 0 16.015 16.042" style="enable-background:new 0 0 16.015 16.042;" xml:space="preserve">
<g id="Layer_19">
	<g id="XMLID_3_">
		<g>
			<path style="fill:#FF9999;" d="M14.22,1.092l0.71,0.7c0.78,0.78,0.78,2.05,0,2.83l-0.25,0.27l-3.53-3.53l0.24-0.27
				C12.17,0.302,13.44,0.302,14.22,1.092z"/>
			<polygon style="fill:#FFD580;" points="12.73,6.842 5.45,14.132 1.91,10.592 9.2,3.312 			"/>
		</g>
		<g>
			<polyline style="fill:none;stroke:#664848;stroke-linecap:round;stroke-linejoin:round;stroke-miterlimit:10;" points="
				5.45,14.132 0.5,15.542 1.91,10.592 			"/>
			<polyline style="fill:none;stroke:#664848;stroke-linecap:round;stroke-linejoin:round;stroke-miterlimit:10;" points="
				11.15,1.362 9.2,3.312 1.91,10.592 5.45,14.132 12.73,6.842 14.68,4.892 			"/>
			<path style="fill:none;stroke:#664848;stroke-linecap:round;stroke-linejoin:round;stroke-miterlimit:10;" d="M14.68,4.892
				l0.25-0.27c0.78-0.78,0.78-2.05,0-2.83l-0.71-0.7c-0.78-0.79-2.05-0.79-2.83,0l-0.24,0.27L14.68,4.892z"/>
			
				<line style="fill:none;stroke:#664848;stroke-linecap:round;stroke-linejoin:round;stroke-miterlimit:10;" x1="1.2" y1="14.132" x2="1.91" y2="14.842"/>
			
				<line style="fill:none;stroke:#664848;stroke-linecap:round;stroke-linejoin:round;stroke-miterlimit:10;" x1="9.2" y1="3.312" x2="12.73" y2="6.842"/>
		</g>
	</g>
</g>
<g id="Layer_1">
</g>
</svg>
