<?xml version="1.0" encoding="iso-8859-1"?>
<!-- Generator: Adobe Illustrator 19.2.1, SVG Export Plug-In . SVG Version: 6.00 Build 0)  -->
<svg version="1.1" xmlns="http://www.w3.org/2000/svg" xmlns:xlink="http://www.w3.org/1999/xlink" x="0px" y="0px"
	 viewBox="0 0 16 16" style="enable-background:new 0 0 16 16;" xml:space="preserve">
<g id="Layer_20">
	<g>
		<polygon style="fill:#99DDFF;" points="15.5,11.5 15.5,13.5 13.5,13.5 11.5,13.5 4.5,13.5 2.5,13.5 2.5,11.5 2.5,4.5 2.5,2.5 
			2.5,0.5 4.5,0.5 4.5,2.5 4.5,4.5 4.5,11.5 11.5,11.5 13.5,11.5 		"/>
		<rect x="11.5" y="13.5" style="fill:#80D5FF;" width="2" height="2"/>
		<polygon style="fill:#99DDFF;" points="13.5,4.5 13.5,11.5 11.5,11.5 11.5,4.5 13.5,2.5 		"/>
		<polygon style="fill:#80D5FF;" points="13.5,2.5 11.5,4.5 4.5,4.5 4.5,2.5 11.5,2.5 		"/>
		<rect x="0.5" y="2.5" style="fill:#80D5FF;" width="2" height="2"/>
		<polyline style="fill:none;stroke:#664848;stroke-linecap:round;stroke-linejoin:round;stroke-miterlimit:10;" points="11.5,11.5 
			4.5,11.5 4.5,4.5 		"/>
		<polyline style="fill:none;stroke:#664848;stroke-linecap:round;stroke-linejoin:round;stroke-miterlimit:10;" points="13.5,13.5 
			15.5,13.5 15.5,11.5 13.5,11.5 		"/>
		<polyline style="fill:none;stroke:#664848;stroke-linecap:round;stroke-linejoin:round;stroke-miterlimit:10;" points="2.5,4.5 
			2.5,11.5 2.5,13.5 4.5,13.5 11.5,13.5 		"/>
		<polyline style="fill:none;stroke:#664848;stroke-linecap:round;stroke-linejoin:round;stroke-miterlimit:10;" points="4.5,2.5 
			4.5,0.5 2.5,0.5 2.5,2.5 		"/>
		<polygon style="fill:none;stroke:#664848;stroke-linecap:round;stroke-linejoin:round;stroke-miterlimit:10;" points="4.5,4.5 
			11.5,4.5 11.5,11.5 13.5,11.5 13.5,4.5 13.5,2.5 11.5,2.5 4.5,2.5 		"/>
		
			<rect x="11.5" y="13.5" style="fill:none;stroke:#664848;stroke-linecap:round;stroke-linejoin:round;stroke-miterlimit:10;" width="2" height="2"/>
		
			<rect x="0.5" y="2.5" style="fill:none;stroke:#664848;stroke-linecap:round;stroke-linejoin:round;stroke-miterlimit:10;" width="2" height="2"/>
		
			<polyline style="fill:none;stroke:#664848;stroke-linecap:round;stroke-linejoin:round;stroke-miterlimit:10;stroke-dasharray:1,2;" points="
			15.5,0.5 13.5,2.5 11.5,4.5 4.5,11.5 		"/>
	</g>
</g>
<g id="Layer_1">
</g>
</svg>
