<?xml version="1.0" encoding="iso-8859-1"?>
<!-- Generator: Adobe Illustrator 19.2.1, SVG Export Plug-In . SVG Version: 6.00 Build 0)  -->
<svg version="1.1" xmlns="http://www.w3.org/2000/svg" xmlns:xlink="http://www.w3.org/1999/xlink" x="0px" y="0px"
	 viewBox="0 0 16.112 16.112" style="enable-background:new 0 0 16.112 16.112;" xml:space="preserve">
<g id="Layer_3">
	<g>
		<path style="fill:#FF8080;" d="M15.613,8.19v4.31c0,0.55-0.45,1-1,1s-1-0.45-1-1V9.57V8.92V8.84V6.08l1.78,1.78
			C15.493,7.96,15.563,8.07,15.613,8.19z"/>
		<path style="fill:#99DDFF;" d="M10.222,5.46l-3.32-3.32l-0.03,0.03c-0.36-0.39-0.35-1,0.03-1.38c0.19-0.19,0.45-0.29,0.71-0.29
			c0.26,0,0.52,0.1,0.71,0.29l5.29,5.29v2.76L10.222,5.46z"/>
		<path style="fill:none;stroke:#664848;stroke-linecap:round;stroke-linejoin:round;stroke-miterlimit:10;" d="M13.613,8.92
			l-3.46-3.46l-3.25-3.25c-0.01-0.01-0.02-0.03-0.03-0.04c-0.36-0.39-0.35-1,0.03-1.38c0.19-0.19,0.45-0.29,0.71-0.29
			c0.26,0,0.52,0.1,0.71,0.29l5.29,5.29"/>
		<path style="fill:none;stroke:#664848;stroke-linecap:round;stroke-linejoin:round;stroke-miterlimit:10;" d="M13.613,8.84
			l-3.39-3.38l-3.32-3.32l-0.03,0.03l-3.29,3.29l-2.79,2.79c-0.39,0.39-0.39,1.02,0,1.41l5.66,5.66c0.39,0.39,1.02,0.39,1.41,0
			l5.75-5.75"/>
		<polyline style="fill:none;stroke:#664848;stroke-linecap:round;stroke-linejoin:round;stroke-miterlimit:10;" points="
			10.613,5.46 10.222,5.46 10.153,5.46 3.582,5.46 0.613,5.46 		"/>
		<path style="fill:none;stroke:#664848;stroke-linecap:round;stroke-linejoin:round;stroke-miterlimit:10;" d="M15.613,8.19v4.31
			c0,0.55-0.45,1-1,1s-1-0.45-1-1V9.57V8.92V8.84V6.08l1.78,1.78C15.493,7.96,15.563,8.07,15.613,8.19z"/>
	</g>
</g>
<g id="Layer_1">
</g>
</svg>
