<?xml version="1.0" encoding="iso-8859-1"?>
<!-- Generator: Adobe Illustrator 19.2.1, SVG Export Plug-In . SVG Version: 6.00 Build 0)  -->
<svg version="1.1" xmlns="http://www.w3.org/2000/svg" xmlns:xlink="http://www.w3.org/1999/xlink" x="0px" y="0px"
	 viewBox="0 0 15 15" style="enable-background:new 0 0 15 15;" xml:space="preserve">
<g id="Layer_23">
	<g>
		<polygon style="fill:#80D5FF;" points="14.5,6.5 14.5,8.5 13.42,8.5 12.5,8.5 12.5,6.5 13.42,6.5 		"/>
		<polygon style="fill:#80D5FF;" points="8.5,13.42 8.5,14.5 6.5,14.5 6.5,13.42 6.5,12.5 8.5,12.5 		"/>
		<polygon style="fill:#80D5FF;" points="8.5,1.58 8.5,2.5 6.5,2.5 6.5,1.58 6.5,0.5 8.5,0.5 		"/>
		<polygon style="fill:#80D5FF;" points="2.5,6.5 2.5,8.5 1.58,8.5 0.5,8.5 0.5,6.5 1.58,6.5 		"/>
		<polygon style="fill:none;stroke:#664848;stroke-miterlimit:10;" points="8.5,1.58 8.5,2.5 6.5,2.5 6.5,1.58 6.5,0.5 8.5,0.5 		
			"/>
		<polygon style="fill:none;stroke:#664848;stroke-miterlimit:10;" points="8.5,13.42 8.5,14.5 6.5,14.5 6.5,13.42 6.5,12.5 
			8.5,12.5 		"/>
		<polygon style="fill:none;stroke:#664848;stroke-miterlimit:10;" points="1.58,6.5 2.5,6.5 2.5,8.5 1.58,8.5 0.5,8.5 0.5,6.5 		
			"/>
		<polygon style="fill:none;stroke:#664848;stroke-miterlimit:10;" points="13.42,6.5 14.5,6.5 14.5,8.5 13.42,8.5 12.5,8.5 
			12.5,6.5 		"/>
		<path style="fill:none;stroke:#664848;stroke-miterlimit:10;" d="M1.58,6.5C2.01,3.99,3.99,2.01,6.5,1.58"/>
		<path style="fill:none;stroke:#664848;stroke-miterlimit:10;" d="M8.5,1.58c2.51,0.43,4.49,2.41,4.92,4.92"/>
		<path style="fill:none;stroke:#664848;stroke-miterlimit:10;" d="M13.42,8.5c-0.43,2.51-2.41,4.49-4.92,4.92"/>
		<path style="fill:none;stroke:#664848;stroke-miterlimit:10;" d="M6.5,13.42c-2.51-0.43-4.49-2.41-4.92-4.92"/>
	</g>
</g>
<g id="Layer_1">
</g>
</svg>
