<?xml version="1.0" encoding="iso-8859-1"?>
<!-- Generator: Adobe Illustrator 19.2.1, SVG Export Plug-In . SVG Version: 6.00 Build 0)  -->
<svg version="1.1" xmlns="http://www.w3.org/2000/svg" xmlns:xlink="http://www.w3.org/1999/xlink" x="0px" y="0px"
	 viewBox="0 0 15 15" style="enable-background:new 0 0 15 15;" xml:space="preserve">
<g id="Layer_24">
	<g>
		<polygon style="fill:#99DDFF;" points="14.5,12.5 14.5,14.5 12.5,14.5 12.5,13.5 12.5,12.5 13.5,12.5 		"/>
		<polygon style="fill:#99DDFF;" points="14.5,0.5 14.5,2.5 13.5,2.5 12.5,2.5 12.5,1.5 12.5,0.5 		"/>
		<polygon style="fill:#99DDFF;" points="2.5,13.5 2.5,14.5 0.5,14.5 0.5,12.5 1.5,12.5 2.5,12.5 		"/>
		<polygon style="fill:#99DDFF;" points="2.5,1.5 2.5,2.5 1.5,2.5 0.5,2.5 0.5,0.5 2.5,0.5 		"/>
		<polygon style="fill:none;stroke:#664848;stroke-miterlimit:10;" points="2.5,1.5 2.5,2.5 1.5,2.5 0.5,2.5 0.5,0.5 2.5,0.5 		"/>
		<polygon style="fill:none;stroke:#664848;stroke-miterlimit:10;" points="12.5,1.5 12.5,0.5 14.5,0.5 14.5,2.5 13.5,2.5 12.5,2.5 
					"/>
		<polygon style="fill:none;stroke:#664848;stroke-miterlimit:10;" points="2.5,13.5 2.5,14.5 0.5,14.5 0.5,12.5 1.5,12.5 2.5,12.5 
					"/>
		<polygon style="fill:none;stroke:#664848;stroke-miterlimit:10;" points="13.5,12.5 14.5,12.5 14.5,14.5 12.5,14.5 12.5,13.5 
			12.5,12.5 		"/>
		<line style="fill:none;stroke:#664848;stroke-miterlimit:10;" x1="1.5" y1="12.5" x2="1.5" y2="2.5"/>
		<line style="fill:none;stroke:#664848;stroke-miterlimit:10;" x1="2.5" y1="1.5" x2="12.5" y2="1.5"/>
		<line style="fill:none;stroke:#664848;stroke-miterlimit:10;" x1="13.5" y1="2.5" x2="13.5" y2="12.5"/>
		<line style="fill:none;stroke:#664848;stroke-miterlimit:10;" x1="12.5" y1="13.5" x2="2.5" y2="13.5"/>
	</g>
</g>
<g id="Layer_1">
</g>
</svg>
