<?xml version="1.0" encoding="iso-8859-1"?>
<!-- Generator: Adobe Illustrator 19.2.1, SVG Export Plug-In . SVG Version: 6.00 Build 0)  -->
<svg version="1.1" xmlns="http://www.w3.org/2000/svg" xmlns:xlink="http://www.w3.org/1999/xlink" x="0px" y="0px"
	 viewBox="0 0 16.206 16.206" style="enable-background:new 0 0 16.206 16.206;" xml:space="preserve">
<g id="Layer_25">
	<g>
		<polygon style="fill:#99DDFF;" points="15.5,4.91 14.09,6.33 12.67,4.91 13.23,4.36 14.09,3.5 		"/>
		<path style="fill:#664848;" d="M8.29,1.71C8.11,1.52,8,1.28,8,1c0-0.55,0.45-1,1-1s1,0.45,1,1S9.55,2,9,2
			C8.72,2,8.48,1.89,8.29,1.71z"/>
		<polygon style="fill:#99DDFF;" points="6.17,4.75 6.41,5 5,6.41 4.75,6.17 4.29,5.71 3.58,5 5,3.58 5.71,4.29 		"/>
		<polygon style="fill:#99DDFF;" points="6.33,14.09 4.91,15.5 3.5,14.09 4.36,13.23 4.91,12.67 		"/>
		<path style="fill:#664848;" d="M1.71,8.29C1.89,8.48,2,8.72,2,9c0,0.55-0.45,1-1,1S0,9.55,0,9c0-0.55,0.45-1,1-1
			C1.28,8,1.52,8.11,1.71,8.29z"/>
		<polygon style="fill:none;stroke:#664848;stroke-miterlimit:10;" points="6.33,14.09 4.91,15.5 3.5,14.09 4.36,13.23 4.91,12.67 
					"/>
		<polygon style="fill:none;stroke:#664848;stroke-miterlimit:10;" points="15.5,4.91 14.09,6.33 12.67,4.91 13.23,4.36 14.09,3.5 
					"/>
		<polygon style="fill:none;stroke:#664848;stroke-miterlimit:10;" points="6.17,4.75 6.41,5 5,6.41 4.75,6.17 4.29,5.71 3.58,5 
			5,3.58 5.71,4.29 		"/>
		<path style="fill:none;stroke:#664848;stroke-linecap:round;stroke-linejoin:round;stroke-miterlimit:10;" d="M4.36,13.23
			c-1.26-2.2-1.13-4.99,0.39-7.06"/>
		<path style="fill:none;stroke:#664848;stroke-linecap:round;stroke-linejoin:round;stroke-miterlimit:10;" d="M6.17,4.75
			c2.07-1.52,4.86-1.65,7.06-0.39"/>
		<polyline style="fill:none;stroke:#664848;stroke-linecap:round;stroke-linejoin:round;stroke-miterlimit:10;" points="9,1 
			8.29,1.71 5.71,4.29 		"/>
		<polyline style="fill:none;stroke:#664848;stroke-linecap:round;stroke-linejoin:round;stroke-miterlimit:10;" points="4.29,5.71 
			1.71,8.29 1,9 		"/>
	</g>
</g>
<g id="Layer_1">
</g>
</svg>
