<?xml version="1.0" encoding="iso-8859-1"?>
<!-- Generator: Adobe Illustrator 19.2.1, SVG Export Plug-In . SVG Version: 6.00 Build 0)  -->
<svg version="1.1" xmlns="http://www.w3.org/2000/svg" xmlns:xlink="http://www.w3.org/1999/xlink" x="0px" y="0px"
	 viewBox="0 0 10.998 16" style="enable-background:new 0 0 10.998 16;" xml:space="preserve">
<g id="Layer_26">
	<g>
		<path style="fill:#FF9999;" d="M7.919,11.5l-2.02-4.04c0.73-0.15,1.32-0.7,1.52-1.42l2.87,5.72c0.49,0.99,0.09,2.19-0.9,2.69
			L7.919,11.5z"/>
		<path style="fill:#FF9999;" d="M3.089,11.5l-1.48,2.95c-0.99-0.5-1.39-1.7-0.9-2.69l2.87-5.72c0.2,0.72,0.79,1.27,1.52,1.42
			L3.089,11.5z"/>
		<polyline style="fill:none;stroke:#664848;stroke-linecap:round;stroke-linejoin:round;stroke-miterlimit:10;" points="
			2.499,11.5 3.029,11.5 3.089,11.5 5.499,11.5 7.799,11.5 7.919,11.5 8.499,11.5 		"/>
		<path style="fill:none;stroke:#664848;stroke-miterlimit:10;" d="M3.579,6.04c-0.05-0.17-0.08-0.35-0.08-0.54c0-1.1,0.9-2,2-2
			s2,0.9,2,2c0,0.19-0.03,0.37-0.08,0.54"/>
		<path style="fill:none;stroke:#664848;stroke-miterlimit:10;" d="M5.899,7.46c-0.13,0.03-0.26,0.04-0.4,0.04s-0.27-0.01-0.4-0.04"
			/>
		
			<line style="fill:none;stroke:#664848;stroke-linecap:round;stroke-linejoin:round;stroke-miterlimit:10;" x1="5.499" y1="3.5" x2="5.499" y2="0.5"/>
		
			<line style="fill:none;stroke:#664848;stroke-linecap:round;stroke-linejoin:round;stroke-miterlimit:10;" x1="1.499" y1="15.5" x2="1.499" y2="14.5"/>
		
			<line style="fill:none;stroke:#664848;stroke-linecap:round;stroke-linejoin:round;stroke-miterlimit:10;" x1="9.499" y1="15.5" x2="9.499" y2="14.5"/>
		<path style="fill:none;stroke:#664848;stroke-miterlimit:10;" d="M5.099,7.46l-2.01,4.04l-1.48,2.95c-0.99-0.5-1.39-1.7-0.9-2.69
			l2.87-5.72C3.779,6.76,4.369,7.31,5.099,7.46z"/>
		<path style="fill:none;stroke:#664848;stroke-miterlimit:10;" d="M7.419,6.04l2.87,5.72c0.49,0.99,0.09,2.19-0.9,2.69l-1.47-2.95
			l-2.02-4.04C6.629,7.31,7.219,6.76,7.419,6.04z"/>
	</g>
</g>
<g id="Layer_1">
</g>
</svg>
