<?xml version="1.0" encoding="iso-8859-1"?>
<!-- Generator: Adobe Illustrator 19.2.1, SVG Export Plug-In . SVG Version: 6.00 Build 0)  -->
<svg version="1.1" xmlns="http://www.w3.org/2000/svg" xmlns:xlink="http://www.w3.org/1999/xlink" x="0px" y="0px"
	 viewBox="0 0 14 16" style="enable-background:new 0 0 14 16;" xml:space="preserve">
<g id="Layer_27">
	<g>
		<path style="fill:#FFD580;" d="M12.5,2.5v1c0,0.55-0.45,1-1,1h-10c-0.55,0-1-0.45-1-1v-2c0-0.55,0.45-1,1-1h10c0.55,0,1,0.45,1,1
			V2.5z"/>
		<path style="fill:#FF9999;" d="M7.5,10.5v4c0,0.55-0.45,1-1,1s-1-0.45-1-1v-4c0-0.55,0.45-1,1-1S7.5,9.95,7.5,10.5z"/>
		<path style="fill:none;stroke:#664848;stroke-linecap:round;stroke-linejoin:round;stroke-miterlimit:10;" d="M11.5,4.5h-10
			c-0.55,0-1-0.45-1-1v-2c0-0.55,0.45-1,1-1h10c0.55,0,1,0.45,1,1v1v1C12.5,4.05,12.05,4.5,11.5,4.5z"/>
		<path style="fill:none;stroke:#664848;stroke-linecap:round;stroke-linejoin:round;stroke-miterlimit:10;" d="M6.5,15.5
			c-0.55,0-1-0.45-1-1v-4c0-0.55,0.45-1,1-1s1,0.45,1,1v4C7.5,15.05,7.05,15.5,6.5,15.5z"/>
		<path style="fill:none;stroke:#664848;stroke-linecap:round;stroke-linejoin:round;stroke-miterlimit:10;" d="M6.5,9.5v-2
			c0-0.55,0.45-1,1-1h5c0.55,0,1-0.45,1-1v-2c0-0.55-0.45-1-1-1"/>
	</g>
</g>
<g id="Layer_1">
</g>
</svg>
