<?xml version="1.0" encoding="iso-8859-1"?>
<!-- Generator: Adobe Illustrator 19.2.1, SVG Export Plug-In . SVG Version: 6.00 Build 0)  -->
<svg version="1.1" xmlns="http://www.w3.org/2000/svg" xmlns:xlink="http://www.w3.org/1999/xlink" x="0px" y="0px"
	 viewBox="0 0 16.003 16.003" style="enable-background:new 0 0 16.003 16.003;" xml:space="preserve">
<g id="Layer_28">
	<g>
		<path style="fill:#99DDFF;" d="M7.59,3.593c0.39-0.39,1.02-0.39,1.41,0l0.29,0.29l2.8-2.79c0.78-0.79,2.04-0.79,2.82,0
			c0.79,0.78,0.79,2.04,0,2.82l-2.79,2.8l0.29,0.29c0.39,0.39,0.39,1.02,0,1.41c-0.39,0.39-1.02,0.39-1.41,0l-3.41-3.41
			C7.2,4.613,7.2,3.983,7.59,3.593z"/>
		<polygon style="fill:#FFD580;" points="7.32,11.503 4.31,14.503 1.5,14.513 1.5,11.693 1.68,11.503 1.69,11.503 		"/>
		<polyline style="fill:none;stroke:#664848;stroke-linecap:round;stroke-linejoin:round;stroke-miterlimit:10;" points="
			1.68,11.503 1.5,11.693 1.5,14.513 4.31,14.503 7.32,11.503 10.67,8.163 7.84,5.333 1.69,11.503 		"/>
		
			<line style="fill:none;stroke:#664848;stroke-linecap:round;stroke-linejoin:round;stroke-miterlimit:10;" x1="0.5" y1="15.503" x2="1.49" y2="14.513"/>
		<path style="fill:none;stroke:#664848;stroke-linecap:round;stroke-linejoin:round;stroke-miterlimit:10;" d="M9,3.593
			c-0.39-0.39-1.02-0.39-1.41,0c-0.39,0.39-0.39,1.02,0,1.41L11,8.413c0.39,0.39,1.02,0.39,1.41,0c0.39-0.39,0.39-1.02,0-1.41"/>
		<path style="fill:none;stroke:#664848;stroke-linecap:round;stroke-linejoin:round;stroke-miterlimit:10;" d="M12.12,6.713
			l2.79-2.8c0.79-0.78,0.79-2.04,0-2.82c-0.78-0.79-2.04-0.79-2.82,0l-2.8,2.79"/>
		<polyline style="fill:none;stroke:#664848;stroke-linecap:round;stroke-linejoin:round;stroke-miterlimit:10;" points="
			11.56,6.153 12.12,6.713 12.41,7.003 		"/>
		<polyline style="fill:none;stroke:#664848;stroke-linecap:round;stroke-linejoin:round;stroke-miterlimit:10;" points="9,3.593 
			9.29,3.883 9.85,4.443 		"/>
		<polyline style="fill:none;stroke:#664848;stroke-linecap:round;stroke-linejoin:round;stroke-miterlimit:10;" points="
			1.68,11.503 1.69,11.503 7.32,11.503 		"/>
	</g>
</g>
<g id="Layer_1">
</g>
</svg>
