<?xml version="1.0" encoding="iso-8859-1"?>
<!-- Generator: Adobe Illustrator 19.2.1, SVG Export Plug-In . SVG Version: 6.00 Build 0)  -->
<svg version="1.1" xmlns="http://www.w3.org/2000/svg" xmlns:xlink="http://www.w3.org/1999/xlink" x="0px" y="0px"
	 viewBox="0 0 16.142 16.14" style="enable-background:new 0 0 16.142 16.14;" xml:space="preserve">
<g id="Layer_29">
	<g>
		<polygon style="fill:#FFD580;" points="15.642,6.16 13.773,7.69 8.453,2.37 9.983,0.5 		"/>
		<path style="fill:#FF9999;" d="M13.773,7.69l-5.91,4.83c-0.39,0.39-1.03,0.39-1.42,0l-2.82-2.83c-0.39-0.39-0.39-1.02,0-1.41
			l4.83-5.91L13.773,7.69z"/>
		
			<rect x="3.323" y="9.816" transform="matrix(0.7084 -0.7059 0.7059 0.7084 -7.0783 6.4986)" style="fill:#FFD580;" width="2.005" height="3.999"/>
		<path style="fill:none;stroke:#664848;stroke-linecap:round;stroke-linejoin:round;stroke-miterlimit:10;" d="M5.032,13.94
			c0.39,0.39,0.39,1.02,0,1.41c-0.19,0.19-0.45,0.29-0.71,0.29c-0.25,0-0.5-0.1-0.7-0.29l-2.83-2.83c-0.39-0.39-0.39-1.02,0-1.41
			c0.39-0.39,1.02-0.39,1.41,0"/>
		<polyline style="fill:none;stroke:#664848;stroke-linecap:round;stroke-linejoin:round;stroke-miterlimit:10;" points="
			3.622,9.69 2.203,11.11 5.032,13.94 6.443,12.52 		"/>
		<path style="fill:none;stroke:#664848;stroke-linecap:round;stroke-linejoin:round;stroke-miterlimit:10;" d="M8.453,2.37
			l1.53-1.87l5.66,5.66l-1.87,1.53l-5.91,4.83c-0.39,0.39-1.03,0.39-1.42,0l-2.82-2.83c-0.39-0.39-0.39-1.02,0-1.41L8.453,2.37z"/>
		
			<line style="fill:none;stroke:#664848;stroke-linecap:round;stroke-linejoin:round;stroke-miterlimit:10;" x1="8.453" y1="2.37" x2="13.773" y2="7.69"/>
	</g>
</g>
<g id="Layer_1">
</g>
</svg>
