<?xml version="1.0" encoding="iso-8859-1"?>
<!-- Generator: Adobe Illustrator 19.2.1, SVG Export Plug-In . SVG Version: 6.00 Build 0)  -->
<svg version="1.1" xmlns="http://www.w3.org/2000/svg" xmlns:xlink="http://www.w3.org/1999/xlink" x="0px" y="0px"
	 viewBox="0 0 15.76 15.88" style="enable-background:new 0 0 15.76 15.88;" xml:space="preserve">
<g id="Layer_30">
	<g>
		<polygon style="fill:#99DDFF;" points="15.26,3.94 10.87,5.99 10.76,5.94 7.88,7.38 5,5.94 4.89,5.99 0.5,3.94 7.88,0.5 		"/>
		<polygon style="fill:#FFD580;" points="7.88,11.38 4.89,9.99 0.5,11.94 7.88,15.38 15.26,11.94 10.87,9.99 		"/>
		<polygon style="fill:none;stroke:#664848;stroke-linecap:round;stroke-linejoin:round;stroke-miterlimit:10;" points="4.89,5.99 
			0.5,3.94 7.88,0.5 15.26,3.94 10.87,5.99 7.88,7.38 		"/>
		<polygon style="fill:none;stroke:#664848;stroke-linecap:round;stroke-linejoin:round;stroke-miterlimit:10;" points="7.88,7.38 
			4.89,5.99 0.5,7.94 4.89,9.99 7.88,11.38 10.87,9.99 15.26,7.94 10.87,5.99 		"/>
		<polygon style="fill:none;stroke:#664848;stroke-linecap:round;stroke-linejoin:round;stroke-miterlimit:10;" points="7.88,11.38 
			4.89,9.99 0.5,11.94 7.88,15.38 15.26,11.94 10.87,9.99 		"/>
	</g>
</g>
<g id="Layer_1">
</g>
</svg>
