<?xml version="1.0" encoding="iso-8859-1"?>
<!-- Generator: Adobe Illustrator 19.2.1, SVG Export Plug-In . SVG Version: 6.00 Build 0)  -->
<svg version="1.1" xmlns="http://www.w3.org/2000/svg" xmlns:xlink="http://www.w3.org/1999/xlink" x="0px" y="0px"
	 viewBox="0 0 15.654 14.922" style="enable-background:new 0 0 15.654 14.922;" xml:space="preserve">
<g id="Layer_31">
	<g>
		<path style="fill:#FFD580;" d="M14.862,3.622c0.39,0.39,0.39,1.02,0,1.41l-7.48,7.49l-4.25-4.25l7.49-7.48
			c0.39-0.39,1.02-0.39,1.41,0L14.862,3.622z"/>
		<path style="fill:#99DDFF;" d="M7.382,12.523l-0.71,0.7c-0.2,0.2-0.45,0.29-0.7,0.29c-0.26,0-0.52-0.09-0.71-0.29
			c-0.4-0.39-1.03-0.39-1.42,0l-0.71,0.71l-1.41-1.41l0.71-0.71c0.2-0.19,0.29-0.45,0.29-0.71c0-0.25-0.09-0.51-0.29-0.71
			c-0.39-0.39-0.39-1.02,0-1.41l0.7-0.71L7.382,12.523z"/>
		<path style="fill:none;stroke:#664848;stroke-linecap:round;stroke-linejoin:round;stroke-miterlimit:10;" d="M3.132,8.273
			l7.49-7.48c0.39-0.39,1.02-0.39,1.41,0l2.83,2.83c0.39,0.39,0.39,1.02,0,1.41l-7.48,7.49"/>
		<path style="fill:none;stroke:#664848;stroke-linecap:round;stroke-linejoin:round;stroke-miterlimit:10;" d="M3.132,13.932
			l0.71-0.71c0.39-0.39,1.02-0.39,1.42,0c0.19,0.2,0.45,0.29,0.71,0.29c0.25,0,0.5-0.09,0.7-0.29l0.71-0.7l-4.25-4.25l-0.7,0.71
			c-0.39,0.39-0.39,1.02,0,1.41c0.2,0.2,0.29,0.46,0.29,0.71c0,0.26-0.09,0.52-0.29,0.71l-0.71,0.71"/>
		<path style="fill:#FFD580;" d="M3.132,13.932l-1.41-1.41l-1.07,1.04c-0.32,0.32-0.1,0.86,0.35,0.86h1.69L3.132,13.932z"/>
		<path style="fill:none;stroke:#664848;stroke-linecap:round;stroke-linejoin:round;stroke-miterlimit:10;" d="M3.132,13.932
			l-1.41-1.41l-1.07,1.04c-0.32,0.32-0.1,0.86,0.35,0.86h1.69L3.132,13.932z"/>
	</g>
</g>
<g id="Layer_1">
</g>
</svg>
