<?xml version="1.0" encoding="iso-8859-1"?>
<!-- Generator: Adobe Illustrator 19.2.1, SVG Export Plug-In . SVG Version: 6.00 Build 0)  -->
<svg version="1.1" xmlns="http://www.w3.org/2000/svg" xmlns:xlink="http://www.w3.org/1999/xlink" x="0px" y="0px"
	 viewBox="0 0 16 15" style="enable-background:new 0 0 16 15;" xml:space="preserve">
<g id="Layer_4">
	<g>
		<path style="fill:#FFD580;" d="M12.44,5.74c1.78,0.6,3.06,2.29,3.06,4.26c0,2.48-2.02,4.5-4.5,4.5c-1.15,0-2.2-0.43-3-1.16
			c0.92-0.82,1.5-2.01,1.5-3.34c0-0.25-0.02-0.5-0.06-0.74C10.99,8.73,12.16,7.39,12.44,5.74z"/>
		<path style="fill:#FF9999;" d="M12.5,5c0,0.25-0.02,0.5-0.06,0.74C11.99,5.58,11.51,5.5,11,5.5c-1.15,0-2.2,0.43-3,1.16
			C7.2,5.93,6.15,5.5,5,5.5c-0.51,0-0.99,0.08-1.44,0.24C3.52,5.5,3.5,5.25,3.5,5c0-2.48,2.02-4.5,4.5-4.5S12.5,2.52,12.5,5z"/>
		<path style="fill:#99DDFF;" d="M6.5,10c0,1.33,0.58,2.52,1.5,3.34c-0.8,0.73-1.85,1.16-3,1.16c-2.48,0-4.5-2.02-4.5-4.5
			c0-1.97,1.28-3.66,3.06-4.26c0.28,1.65,1.45,2.99,3,3.52C6.52,9.5,6.5,9.75,6.5,10z"/>
		<path style="fill:none;stroke:#664848;stroke-linecap:round;stroke-linejoin:round;stroke-miterlimit:10;" d="M8,13.34
			c-0.8,0.73-1.85,1.16-3,1.16c-2.48,0-4.5-2.02-4.5-4.5c0-1.97,1.28-3.66,3.06-4.26C4.01,5.58,4.49,5.5,5,5.5
			c1.15,0,2.2,0.43,3,1.16c0.75,0.66,1.27,1.57,1.44,2.6C9.48,9.5,9.5,9.75,9.5,10C9.5,11.33,8.92,12.52,8,13.34z"/>
		<path style="fill:none;stroke:#664848;stroke-linecap:round;stroke-linejoin:round;stroke-miterlimit:10;" d="M12.44,5.74
			c1.78,0.6,3.06,2.29,3.06,4.26c0,2.48-2.02,4.5-4.5,4.5c-1.15,0-2.2-0.43-3-1.16C7.08,12.52,6.5,11.33,6.5,10
			c0-0.25,0.02-0.5,0.06-0.74C6.73,8.23,7.25,7.32,8,6.66C8.8,5.93,9.85,5.5,11,5.5C11.51,5.5,11.99,5.58,12.44,5.74z"/>
		<path style="fill:none;stroke:#664848;stroke-linecap:round;stroke-linejoin:round;stroke-miterlimit:10;" d="M9.44,9.26
			C8.99,9.42,8.51,9.5,8,9.5S7.01,9.42,6.56,9.26c-1.55-0.53-2.72-1.87-3-3.52C3.52,5.5,3.5,5.25,3.5,5c0-2.48,2.02-4.5,4.5-4.5
			s4.5,2.02,4.5,4.5c0,0.25-0.02,0.5-0.06,0.74C12.16,7.39,10.99,8.73,9.44,9.26z"/>
	</g>
</g>
<g id="Layer_1">
</g>
</svg>
