<?xml version="1.0" encoding="iso-8859-1"?>
<!-- Generator: Adobe Illustrator 19.2.1, SVG Export Plug-In . SVG Version: 6.00 Build 0)  -->
<svg version="1.1" xmlns="http://www.w3.org/2000/svg" xmlns:xlink="http://www.w3.org/1999/xlink" x="0px" y="0px"
	 viewBox="0 0 16.032 15.833" style="enable-background:new 0 0 16.032 15.833;" xml:space="preserve">
<g id="Layer_32">
	<g>
		<polygon style="fill:#FFD580;" points="15.533,5.83 12.403,6.28 11.002,9.12 10.052,7.19 9.602,6.28 8.323,6.1 6.472,5.83 
			8.743,3.62 8.203,0.5 11.002,1.98 13.802,0.5 13.262,3.62 		"/>
		<path style="fill:#99DDFF;" d="M9.602,6.28l0.45,0.91l-7.84,7.85c-0.39,0.39-1.03,0.39-1.42,0c-0.39-0.39-0.39-1.03,0-1.42
			l7.53-7.52L9.602,6.28z"/>
		<path style="fill:none;stroke:#664848;stroke-linecap:round;stroke-linejoin:round;stroke-miterlimit:10;" d="M8.323,6.1
			l-7.53,7.52c-0.39,0.39-0.39,1.03,0,1.42c0.39,0.39,1.03,0.39,1.42,0l7.84-7.85"/>
		<polyline style="fill:none;stroke:#664747;stroke-linecap:round;stroke-linejoin:round;stroke-miterlimit:10;" points="8.323,6.1 
			6.472,5.83 8.743,3.62 8.203,0.5 11.002,1.98 13.802,0.5 13.262,3.62 15.533,5.83 12.403,6.28 11.002,9.12 10.052,7.19 		"/>
		<polyline style="fill:none;stroke:#664848;stroke-linecap:round;stroke-linejoin:round;stroke-miterlimit:10;" points="
			10.052,7.19 9.602,6.28 8.323,6.1 		"/>
	</g>
</g>
<g id="Layer_1">
</g>
</svg>
