<?xml version="1.0" encoding="iso-8859-1"?>
<!-- Generator: Adobe Illustrator 19.2.1, SVG Export Plug-In . SVG Version: 6.00 Build 0)  -->
<svg version="1.1" xmlns="http://www.w3.org/2000/svg" xmlns:xlink="http://www.w3.org/1999/xlink" x="0px" y="0px"
	 viewBox="0 0 15.985 13.983" style="enable-background:new 0 0 15.985 13.983;" xml:space="preserve">
<g id="Layer_33">
	<g>
		<path style="fill:#99DDFF;" d="M15.193,5.043c0.39,0.39,0.39,1.02,0,1.41l-5.36,5.36l-5.66-5.66l5.36-5.36
			c0.39-0.39,1.02-0.39,1.41,0L15.193,5.043z"/>
		<path style="fill:#FF9999;" d="M9.833,11.813l-1.09,1.08c-0.37,0.38-0.88,0.59-1.41,0.59h-3.17c-0.53,0-1.04-0.21-1.42-0.59
			l-1.95-1.95c-0.39-0.39-0.39-1.02,0-1.41l3.38-3.38L9.833,11.813z"/>
		
			<line style="fill:none;stroke:#664848;stroke-linecap:round;stroke-linejoin:round;stroke-miterlimit:10;" x1="4.173" y1="6.153" x2="9.833" y2="11.813"/>
		<path style="fill:none;stroke:#664848;stroke-linecap:round;stroke-linejoin:round;stroke-miterlimit:10;" d="M9.833,11.813
			l5.36-5.36c0.39-0.39,0.39-1.02,0-1.41l-4.25-4.25c-0.39-0.39-1.02-0.39-1.41,0l-5.36,5.36l-3.38,3.38
			c-0.39,0.39-0.39,1.02,0,1.41l1.95,1.95c0.38,0.38,0.89,0.59,1.42,0.59h3.17c0.53,0,1.04-0.21,1.41-0.59L9.833,11.813z"/>
	</g>
</g>
<g id="Layer_1">
</g>
</svg>
