<?xml version="1.0" encoding="iso-8859-1"?>
<!-- Generator: Adobe Illustrator 19.2.1, SVG Export Plug-In . SVG Version: 6.00 Build 0)  -->
<svg version="1.1" xmlns="http://www.w3.org/2000/svg" xmlns:xlink="http://www.w3.org/1999/xlink" x="0px" y="0px"
	 viewBox="0 0 15.985 15.057" style="enable-background:new 0 0 15.985 15.057;" xml:space="preserve">
<g id="Layer_34">
	<g>
		<path style="fill:#FF9999;" d="M15.05,0.935c0.58,0.59,0.58,1.54,0,2.13l-7.66,7.65c-0.26-1.04-1.08-1.86-2.12-2.12l7.65-7.66
			C13.51,0.355,14.46,0.355,15.05,0.935z"/>
		<path style="fill:#FFD580;" d="M7.39,10.715c0.07,0.24,0.11,0.5,0.11,0.77c0,3.42-3.59,3.22-7,2.92c0.55-0.64,1-1.05,1-2.92
			c0-1.23,0.74-2.28,1.79-2.75c0.37-0.16,0.78-0.25,1.21-0.25c0.27,0,0.53,0.04,0.77,0.11l-0.04,0.04c0.97,0.34,1.76,1.19,2.09,2.15
			L7.39,10.715z"/>
		<path style="fill:none;stroke:#664848;stroke-linecap:round;stroke-linejoin:round;stroke-miterlimit:10;" d="M7.39,10.715
			l7.66-7.65c0.58-0.59,0.58-1.54,0-2.13c-0.59-0.58-1.54-0.58-2.13,0l-7.65,7.66l-0.04,0.04c0.97,0.34,1.76,1.19,2.09,2.15
			L7.39,10.715z"/>
		<path style="fill:none;stroke:#664848;stroke-linecap:round;stroke-linejoin:round;stroke-miterlimit:10;" d="M5.27,8.595
			c-0.24-0.07-0.5-0.11-0.77-0.11c-0.43,0-0.84,0.09-1.21,0.25c-1.05,0.47-1.79,1.52-1.79,2.75c0,1.87-0.45,2.28-1,2.92
			c3.41,0.3,7,0.5,7-2.92c0-0.27-0.04-0.53-0.11-0.77C7.13,9.675,6.31,8.855,5.27,8.595z"/>
	</g>
</g>
<g id="Layer_1">
</g>
</svg>
