<?xml version="1.0" encoding="iso-8859-1"?>
<!-- Generator: Adobe Illustrator 19.2.1, SVG Export Plug-In . SVG Version: 6.00 Build 0)  -->
<svg version="1.1" xmlns="http://www.w3.org/2000/svg" xmlns:xlink="http://www.w3.org/1999/xlink" x="0px" y="0px"
	 viewBox="0 0 16.191 16.187" style="enable-background:new 0 0 16.191 16.187;" xml:space="preserve">
<g id="Layer_35">
	<g>
		<path style="fill:#FF9999;" d="M11.451,8.28l-3.68,3.68c-0.43,0.43-0.97,0.67-1.53,0.72c-0.72,0.07-1.46-0.17-2.01-0.72
			c-0.67-0.67-0.88-1.63-0.63-2.48c0.12-0.39,0.32-0.75,0.63-1.06l3.68-3.68l-2.12-2.12L2.111,6.3c-0.67,0.67-1.13,1.47-1.38,2.33
			c-0.56,1.87-0.1,3.98,1.38,5.45c1.17,1.18,2.75,1.71,4.3,1.59c1.26-0.09,2.51-0.62,3.48-1.59l3.68-3.68L11.451,8.28z"/>
		<path style="fill:none;stroke:#664848;stroke-linecap:round;stroke-linejoin:round;stroke-miterlimit:10;" d="M13.571,10.4
			l2.12-2.12l-2.12-2.12l-2.12,2.12l-3.68,3.68c-0.43,0.43-0.97,0.67-1.53,0.72c-0.72,0.07-1.46-0.17-2.01-0.72
			c-0.67-0.67-0.88-1.63-0.63-2.48c0.12-0.39,0.32-0.75,0.63-1.06l3.68-3.68l2.12-2.12L7.911,0.5l-2.12,2.12L2.111,6.3
			c-0.67,0.67-1.13,1.47-1.38,2.33c-0.56,1.87-0.1,3.98,1.38,5.45c1.17,1.18,2.75,1.71,4.3,1.59c1.26-0.09,2.51-0.62,3.48-1.59
			L13.571,10.4z"/>
		
			<line style="fill:none;stroke:#664848;stroke-linecap:round;stroke-linejoin:round;stroke-miterlimit:10;" x1="5.791" y1="2.62" x2="7.911" y2="4.74"/>
		
			<line style="fill:none;stroke:#664848;stroke-linecap:round;stroke-linejoin:round;stroke-miterlimit:10;" x1="11.451" y1="8.28" x2="13.571" y2="10.4"/>
	</g>
</g>
<g id="Layer_1">
</g>
</svg>
