<?xml version="1.0" encoding="iso-8859-1"?>
<!-- Generator: Adobe Illustrator 19.2.1, SVG Export Plug-In . SVG Version: 6.00 Build 0)  -->
<svg version="1.1" xmlns="http://www.w3.org/2000/svg" xmlns:xlink="http://www.w3.org/1999/xlink" x="0px" y="0px"
	 viewBox="0 0 14 15.996" style="enable-background:new 0 0 14 15.996;" xml:space="preserve">
<g id="Layer_36">
	<g>
		<path style="fill:#FFD580;" d="M13.5,11.496v1c0,0.55-0.45,1-1,1h-11c-0.55,0-1-0.45-1-1v-1c0-0.55,0.45-1,1-1h3
			c0.55,0,1-0.45,1-1v-2.35c-1.18-0.57-2-1.76-2-3.15c0-2.2,2.04-3.93,4.33-3.4c1.27,0.29,2.29,1.32,2.58,2.59
			c0.39,1.72-0.51,3.29-1.91,3.96v2.35c0,0.55,0.45,1,1,1h3C13.05,10.496,13.5,10.946,13.5,11.496z"/>
		<path style="fill:#FF9999;" d="M12.5,13.496v1c0,0.55-0.45,1-1,1h-9c-0.55,0-1-0.45-1-1v-1H12.5z"/>
		<path style="fill:none;stroke:#664848;stroke-linecap:round;stroke-linejoin:round;stroke-miterlimit:10;" d="M1.5,13.496v1
			c0,0.55,0.45,1,1,1h9c0.55,0,1-0.45,1-1v-1"/>
		<path style="fill:none;stroke:#664848;stroke-linecap:round;stroke-linejoin:round;stroke-miterlimit:10;" d="M12.5,13.496
			c0.55,0,1-0.45,1-1v-1c0-0.55-0.45-1-1-1h-3c-0.55,0-1-0.45-1-1v-2.35c1.4-0.67,2.3-2.24,1.91-3.96c-0.29-1.27-1.31-2.3-2.58-2.59
			c-2.29-0.53-4.33,1.2-4.33,3.4c0,1.39,0.82,2.58,2,3.15v2.35c0,0.55-0.45,1-1,1h-3c-0.55,0-1,0.45-1,1v1c0,0.55,0.45,1,1,1H12.5z"
			/>
		<path style="fill:none;stroke:#664848;stroke-linecap:round;stroke-linejoin:round;stroke-miterlimit:10;" d="M7,2.496
			c0.83,0,1.5,0.67,1.5,1.5"/>
	</g>
</g>
<g id="Layer_1">
</g>
</svg>
