<?xml version="1.0" encoding="iso-8859-1"?>
<!-- Generator: Adobe Illustrator 19.2.1, SVG Export Plug-In . SVG Version: 6.00 Build 0)  -->
<svg version="1.1" xmlns="http://www.w3.org/2000/svg" xmlns:xlink="http://www.w3.org/1999/xlink" x="0px" y="0px"
	 viewBox="0 0 12 15.67" style="enable-background:new 0 0 12 15.67;" xml:space="preserve">
<g id="Layer_37">
	<g>
		<path style="fill:#99DDFF;" d="M-986.09,995.36c3.18,4.17,3.59,4.71,3.59,6.64c0,3.03-2.47,5.5-5.5,5.5s-5.5-2.47-5.5-5.5
			c0-1.93,0.41-2.47,3.59-6.64c0.55-0.73,1.18-1.56,1.91-2.53C-987.27,993.8-986.64,994.63-986.09,995.36z"/>
		<path style="fill:none;stroke:#664848;stroke-linecap:round;stroke-linejoin:round;stroke-miterlimit:10;" d="M-988,1007.5
			c-3.03,0-5.5-2.47-5.5-5.5c0-1.93,0.41-2.47,3.59-6.64c0.55-0.73,1.18-1.56,1.91-2.53c0.73,0.97,1.36,1.8,1.91,2.53
			c3.18,4.17,3.59,4.71,3.59,6.64C-982.5,1005.03-984.97,1007.5-988,1007.5z"/>
		<path style="fill:none;stroke:#664848;stroke-linecap:round;stroke-linejoin:round;stroke-miterlimit:10;" d="M-984.5,1002
			c0,1.93-1.57,3.5-3.5,3.5"/>
	</g>
</g>
<g id="Layer_1">
</g>
</svg>
