<?xml version="1.0" encoding="iso-8859-1"?>
<!-- Generator: Adobe Illustrator 19.2.1, SVG Export Plug-In . SVG Version: 6.00 Build 0)  -->
<svg version="1.1" xmlns="http://www.w3.org/2000/svg" xmlns:xlink="http://www.w3.org/1999/xlink" x="0px" y="0px"
	 viewBox="0 0 15.943 13.105" style="enable-background:new 0 0 15.943 13.105;" xml:space="preserve">
<g id="Layer_38">
	<g>
		<path style="fill:#99DDFF;" d="M14.85,1.085c0.79,0.78,0.79,2.05,0,2.83L8.8,9.965l-2.83-2.83l6.06-6.05
			C12.81,0.305,14.07,0.305,14.85,1.085z"/>
		<polygon style="fill:#FFD580;" points="8.8,9.965 8.78,9.985 7.97,10.795 7.78,10.605 2.5,10.605 5.95,7.155 5.97,7.135 		"/>
		<path style="fill:none;stroke:#665252;stroke-linecap:round;stroke-linejoin:round;stroke-miterlimit:10;" d="M8.8,9.965
			l6.05-6.05c0.79-0.78,0.79-2.05,0-2.83c-0.78-0.78-2.04-0.78-2.82,0l-6.06,6.05l-0.02,0.02l-3.45,3.45l-2,2h5.66l1.81-1.81
			l0.81-0.81L8.8,9.965z"/>
		
			<line style="fill:none;stroke:#665252;stroke-linecap:round;stroke-linejoin:round;stroke-miterlimit:10;" x1="2.5" y1="10.605" x2="7.78" y2="10.605"/>
		
			<line style="fill:none;stroke:#665252;stroke-linecap:round;stroke-linejoin:round;stroke-miterlimit:10;" x1="8.8" y1="9.965" x2="5.97" y2="7.135"/>
	</g>
</g>
<g id="Layer_1">
</g>
</svg>
