<?xml version="1.0" encoding="iso-8859-1"?>
<!-- Generator: Adobe Illustrator 19.2.1, SVG Export Plug-In . SVG Version: 6.00 Build 0)  -->
<svg version="1.1" xmlns="http://www.w3.org/2000/svg" xmlns:xlink="http://www.w3.org/1999/xlink" x="0px" y="0px"
	 viewBox="0 0 16 10.04" style="enable-background:new 0 0 16 10.04;" xml:space="preserve">
<g id="Layer_39">
	<g>
		<path style="fill:#99DDFF;" d="M8,2.5c1.38,0,2.5,1.12,2.5,2.5S9.38,7.5,8,7.5S5.5,6.38,5.5,5S6.62,2.5,8,2.5z M9,5
			c0-0.55-0.45-1-1-1S7,4.45,7,5s0.45,1,1,1S9,5.55,9,5z"/>
		<circle style="fill:#664848;" cx="8" cy="5" r="1"/>
		<path style="fill:none;stroke:#664848;stroke-linecap:round;stroke-linejoin:round;stroke-miterlimit:10;" d="M8,9.54
			c-4.14,0-7.5-4.52-7.5-4.52S3.86,0.5,8,0.5s7.5,4.52,7.5,4.52S12.14,9.54,8,9.54z"/>
		
			<circle style="fill:none;stroke:#664848;stroke-linecap:round;stroke-linejoin:round;stroke-miterlimit:10;" cx="8" cy="5" r="2.5"/>
	</g>
</g>
<g id="Layer_1">
</g>
</svg>
