<?xml version="1.0" encoding="iso-8859-1"?>
<!-- Generator: Adobe Illustrator 19.2.1, SVG Export Plug-In . SVG Version: 6.00 Build 0)  -->
<svg version="1.1" xmlns="http://www.w3.org/2000/svg" xmlns:xlink="http://www.w3.org/1999/xlink" x="0px" y="0px"
	 viewBox="0 0 16 13" style="enable-background:new 0 0 16 13;" xml:space="preserve">
<g id="Layer_40">
	<g>
		<path style="fill:#FFD580;" d="M15.49,9.4c-0.03-1.13-0.69-2.11-1.65-2.58c-0.4-0.2-0.86-0.32-1.34-0.32
			c-1.61,0-2.92,1.26-2.99,2.85C9.5,9.4,9.5,9.45,9.5,9.5c0,0.03,0,0.07,0.01,0.1c0.04,1.61,1.36,2.9,2.99,2.9c1.66,0,3-1.34,3-3
			C15.5,9.47,15.5,9.43,15.49,9.4z"/>
		<path style="fill:#99DDFF;" d="M8,2.5c1.38,0,2.5,1.12,2.5,2.5S9.38,7.5,8,7.5S5.5,6.38,5.5,5S6.62,2.5,8,2.5z M9,5
			c0-0.55-0.45-1-1-1S7,4.45,7,5s0.45,1,1,1S9,5.55,9,5z"/>
		<circle style="fill:#664848;" cx="8" cy="5" r="1"/>
		<path style="fill:none;stroke:#664848;stroke-linecap:round;stroke-linejoin:round;stroke-miterlimit:10;" d="M9.5,9.35
			C9.02,9.47,8.51,9.54,8,9.54c-4.14,0-7.5-4.52-7.5-4.52S3.86,0.5,8,0.5s7.5,4.52,7.5,4.52s-0.62,0.84-1.66,1.79"/>
		
			<circle style="fill:none;stroke:#664848;stroke-linecap:round;stroke-linejoin:round;stroke-miterlimit:10;" cx="8" cy="5" r="2.5"/>
		<path style="fill:none;stroke:#664848;stroke-linecap:round;stroke-linejoin:round;stroke-miterlimit:10;" d="M15.49,9.4
			c0.01,0.03,0.01,0.07,0.01,0.1c0,1.66-1.34,3-3,3c-1.63,0-2.95-1.29-2.99-2.9C9.5,9.57,9.5,9.53,9.5,9.5c0-0.05,0-0.1,0.01-0.15
			C9.58,7.76,10.89,6.5,12.5,6.5c0.48,0,0.94,0.12,1.34,0.32C14.8,7.29,15.46,8.27,15.49,9.4z"/>
		
			<line style="fill:none;stroke:#664848;stroke-linecap:round;stroke-linejoin:round;stroke-miterlimit:10;" x1="11" y1="9.5" x2="14" y2="9.5"/>
	</g>
</g>
<g id="Layer_1">
</g>
</svg>
