<?xml version="1.0" encoding="iso-8859-1"?>
<!-- Generator: Adobe Illustrator 19.2.1, SVG Export Plug-In . SVG Version: 6.00 Build 0)  -->
<svg version="1.1" xmlns="http://www.w3.org/2000/svg" xmlns:xlink="http://www.w3.org/1999/xlink" x="0px" y="0px"
	 viewBox="0 0 16 13" style="enable-background:new 0 0 16 13;" xml:space="preserve">
<g id="Layer_41">
	<g>
		<path style="fill:#FFD580;" d="M13.84,6.82c0.99,0.49,1.66,1.5,1.66,2.68c0,1.66-1.34,3-3,3s-3-1.34-3-3c0-0.05,0-0.1,0.01-0.15
			C9.58,7.76,10.89,6.5,12.5,6.5C12.98,6.5,13.44,6.62,13.84,6.82z"/>
		<path style="fill:#80D5FF;" d="M8,2.5c1.38,0,2.5,1.12,2.5,2.5S9.38,7.5,8,7.5S5.5,6.38,5.5,5S6.62,2.5,8,2.5z M9,5
			c0-0.55-0.45-1-1-1S7,4.45,7,5s0.45,1,1,1S9,5.55,9,5z"/>
		<circle style="fill:#664848;" cx="8" cy="5" r="1"/>
		<path style="fill:none;stroke:#664848;stroke-linecap:round;stroke-linejoin:round;stroke-miterlimit:10;" d="M9.5,9.35
			C9.02,9.47,8.51,9.54,8,9.54c-4.14,0-7.5-4.52-7.5-4.52S3.86,0.5,8,0.5s7.5,4.52,7.5,4.52s-0.62,0.84-1.66,1.79"/>
		
			<circle style="fill:none;stroke:#664848;stroke-linecap:round;stroke-linejoin:round;stroke-miterlimit:10;" cx="8" cy="5" r="2.5"/>
		<path style="fill:none;stroke:#664848;stroke-linecap:round;stroke-linejoin:round;stroke-miterlimit:10;" d="M13.84,6.82
			c0.99,0.49,1.66,1.5,1.66,2.68c0,1.66-1.34,3-3,3s-3-1.34-3-3c0-0.05,0-0.1,0.01-0.15C9.58,7.76,10.89,6.5,12.5,6.5
			C12.98,6.5,13.44,6.62,13.84,6.82z"/>
		<polyline style="fill:none;stroke:#664848;stroke-linecap:round;stroke-linejoin:round;stroke-miterlimit:10;" points="12.5,8 
			12.5,9.5 12.5,11 		"/>
		<polyline style="fill:none;stroke:#664848;stroke-linecap:round;stroke-linejoin:round;stroke-miterlimit:10;" points="11,9.5 
			12.5,9.5 14,9.5 		"/>
	</g>
</g>
<g id="Layer_1">
</g>
</svg>
