<?xml version="1.0" encoding="iso-8859-1"?>
<!-- Generator: Adobe Illustrator 19.2.1, SVG Export Plug-In . SVG Version: 6.00 Build 0)  -->
<svg version="1.1" xmlns="http://www.w3.org/2000/svg" xmlns:xlink="http://www.w3.org/1999/xlink" x="0px" y="0px"
	 viewBox="0 0 16.017 16.02" style="enable-background:new 0 0 16.017 16.02;" xml:space="preserve">
<g id="Layer_5">
	<g>
		<path style="fill:#FFD580;" d="M10.57,5.45V1.22c0.56-0.48,1.25-0.72,1.95-0.72c0.77,0,1.53,0.29,2.12,0.88
			c1.17,1.17,1.17,3.07,0,4.24l-1.83,1.83H8.57L10.57,5.45z"/>
		<path style="fill:#99DDFF;" d="M5.57,10.45l3-3h4.24l-5.4,5.41c-0.38,0.37-0.89,0.58-1.42,0.58H2.58L5.57,10.45z"/>
		<path style="fill:#99DDFF;" d="M5.57,10.45l-2.99,2.99v-3.41c0-0.53,0.21-1.04,0.58-1.42l7.24-7.23c0.05-0.05,0.11-0.11,0.17-0.16
			v4.23l-2,2L5.57,10.45z"/>
		<path style="fill:none;stroke:#664848;stroke-linecap:round;stroke-linejoin:round;stroke-miterlimit:10;" d="M10.57,1.22
			c-0.06,0.05-0.12,0.11-0.17,0.16L3.16,8.61C2.79,8.99,2.58,9.5,2.58,10.03v3.41h3.41c0.53,0,1.04-0.21,1.42-0.58l5.4-5.41
			l1.83-1.83c1.17-1.17,1.17-3.07,0-4.24c-0.59-0.59-1.35-0.88-2.12-0.88C11.82,0.5,11.13,0.74,10.57,1.22z"/>
		<polyline style="fill:none;stroke:#664848;stroke-linecap:round;stroke-linejoin:round;stroke-miterlimit:10;" points="5.57,8.33 
			5.57,10.45 7.69,10.45 		"/>
		
			<line style="fill:none;stroke:#664848;stroke-linecap:round;stroke-linejoin:round;stroke-miterlimit:10;" x1="8.57" y1="7.45" x2="12.81" y2="7.45"/>
		
			<line style="fill:none;stroke:#664848;stroke-linecap:round;stroke-linejoin:round;stroke-miterlimit:10;" x1="10.57" y1="5.45" x2="10.57" y2="1.22"/>
		<polyline style="fill:none;stroke:#664848;stroke-linecap:round;stroke-linejoin:round;stroke-miterlimit:10;" points="0.5,15.52 
			2.58,13.44 5.57,10.45 8.57,7.45 10.57,5.45 12.52,3.5 		"/>
	</g>
</g>
<g id="Layer_1">
</g>
</svg>
