<?xml version="1.0" encoding="iso-8859-1"?>
<!-- Generator: Adobe Illustrator 19.2.1, SVG Export Plug-In . SVG Version: 6.00 Build 0)  -->
<svg version="1.1" xmlns="http://www.w3.org/2000/svg" xmlns:xlink="http://www.w3.org/1999/xlink" x="0px" y="0px"
	 viewBox="0 0 15 15" style="enable-background:new 0 0 15 15;" xml:space="preserve">
<g id="Layer_2">
	<g>
		<rect x="11" y="7" style="fill:#664848;" width="1" height="1"/>
		<rect x="11" y="5" style="fill:#664848;" width="1" height="1"/>
		<rect x="11" y="3" style="fill:#664848;" width="1" height="1"/>
		<rect x="10" y="8" style="fill:#664848;" width="1" height="1"/>
		<rect x="10" y="6" style="fill:#664848;" width="1" height="1"/>
		<rect x="10" y="4" style="fill:#664848;" width="1" height="1"/>
		<rect x="10" y="2" style="fill:#664848;" width="1" height="1"/>
		<rect x="9" y="7" style="fill:#664848;" width="1" height="1"/>
		<rect x="9" y="5" style="fill:#664848;" width="1" height="1"/>
		<rect x="9" y="3" style="fill:#664848;" width="1" height="1"/>
		<rect x="8" y="8" style="fill:#664848;" width="1" height="1"/>
		<rect x="8" y="6" style="fill:#664848;" width="1" height="1"/>
		<rect x="8" y="4" style="fill:#664848;" width="1" height="1"/>
		<rect x="8" y="2" style="fill:#664848;" width="1" height="1"/>
		<polygon style="fill:#99DDFF;" points="8.5,12.5 8.5,14.5 6.5,14.5 6.5,12.5 7.5,12.5 		"/>
		<rect x="7" y="7" style="fill:#664848;" width="1" height="1"/>
		<rect x="7" y="5" style="fill:#664848;" width="1" height="1"/>
		<rect x="7" y="3" style="fill:#664848;" width="1" height="1"/>
		<circle style="fill:#664848;" cx="7.5" cy="11.5" r="0.5"/>
		<path style="fill:#99DDFF;" d="M7.5,10.5h-7v1c0,0.55,0.45,1,1,1h5h1h1h6v-2H7.5z"/>
		<rect x="6" y="8" style="fill:#664848;" width="1" height="1"/>
		<rect x="6" y="6" style="fill:#664848;" width="1" height="1"/>
		<rect x="6" y="4" style="fill:#664848;" width="1" height="1"/>
		<rect x="6" y="2" style="fill:#664848;" width="1" height="1"/>
		<rect x="5" y="7" style="fill:#664848;" width="1" height="1"/>
		<rect x="5" y="5" style="fill:#664848;" width="1" height="1"/>
		<rect x="5" y="3" style="fill:#664848;" width="1" height="1"/>
		<rect x="4" y="8" style="fill:#664848;" width="1" height="1"/>
		<rect x="4" y="6" style="fill:#664848;" width="1" height="1"/>
		<rect x="4" y="4" style="fill:#664848;" width="1" height="1"/>
		<rect x="4" y="2" style="fill:#664848;" width="1" height="1"/>
		<rect x="3" y="7" style="fill:#664848;" width="1" height="1"/>
		<rect x="3" y="5" style="fill:#664848;" width="1" height="1"/>
		<rect x="3" y="3" style="fill:#664848;" width="1" height="1"/>
		<polyline style="fill:none;stroke:#664848;stroke-linecap:round;stroke-linejoin:round;stroke-miterlimit:10;" points="6.5,12.5 
			0.5,12.5 0.5,10.5 0.5,0.5 14.5,0.5 14.5,10.5 14.5,12.5 8.5,12.5 		"/>
		<polyline style="fill:none;stroke:#664848;stroke-linecap:round;stroke-linejoin:round;stroke-miterlimit:10;" points="0.5,10.5 
			7.5,10.5 14.5,10.5 		"/>
		
			<line style="fill:none;stroke:#664848;stroke-linecap:round;stroke-linejoin:round;stroke-miterlimit:10;" x1="8.5" y1="14.5" x2="11.5" y2="14.5"/>
		
			<line style="fill:none;stroke:#664848;stroke-linecap:round;stroke-linejoin:round;stroke-miterlimit:10;" x1="3.5" y1="14.5" x2="6.5" y2="14.5"/>
		<polygon style="fill:none;stroke:#664848;stroke-linecap:round;stroke-linejoin:round;stroke-miterlimit:10;" points="8.5,14.5 
			6.5,14.5 6.5,12.5 7.5,12.5 8.5,12.5 		"/>
	</g>
</g>
<g id="Layer_1">
</g>
</svg>
