<?xml version="1.0" encoding="iso-8859-1"?>
<!-- Generator: Adobe Illustrator 19.2.1, SVG Export Plug-In . SVG Version: 6.00 Build 0)  -->
<svg version="1.1" xmlns="http://www.w3.org/2000/svg" xmlns:xlink="http://www.w3.org/1999/xlink" x="0px" y="0px"
	 viewBox="0 0 16 16" style="enable-background:new 0 0 16 16;" xml:space="preserve">
<g id="Layer_7">
	<g>
		<path style="fill:#FFD580;" d="M15.49,3.4c-0.04-1.61-1.36-2.9-2.99-2.9c-1.66,0-3,1.34-3,3c0,0.03,0,0.07,0.01,0.1
			c0.04,1.61,1.36,2.9,2.99,2.9c1.66,0,3-1.34,3-3C15.5,3.47,15.5,3.43,15.49,3.4z"/>
		<rect x="2.5" y="12.5" style="fill:#99DDFF;" width="4" height="3"/>
		<path style="fill:none;stroke:#664848;stroke-linecap:round;stroke-linejoin:round;stroke-miterlimit:10;" d="M15.49,3.4
			c0.01,0.03,0.01,0.07,0.01,0.1c0,1.66-1.34,3-3,3c-1.63,0-2.95-1.29-2.99-2.9C9.5,3.57,9.5,3.53,9.5,3.5c0-1.66,1.34-3,3-3
			C14.13,0.5,15.45,1.79,15.49,3.4z"/>
		
			<line style="fill:none;stroke:#664848;stroke-linecap:round;stroke-linejoin:round;stroke-miterlimit:10;" x1="11" y1="3.5" x2="14" y2="3.5"/>
		<polyline style="fill:none;stroke:#664848;stroke-linecap:round;stroke-linejoin:round;stroke-miterlimit:10;" points="2.5,12.5 
			0.5,8.5 4.5,0.5 8.5,8.5 6.5,12.5 		"/>
		<polyline style="fill:none;stroke:#664848;stroke-linecap:round;stroke-linejoin:round;stroke-miterlimit:10;" points="2.5,12.5 
			2.5,15.5 6.5,15.5 6.5,12.5 		"/>
		
			<line style="fill:none;stroke:#664848;stroke-linecap:round;stroke-linejoin:round;stroke-miterlimit:10;" x1="4.5" y1="0.5" x2="4.5" y2="7.5"/>
		<circle style="fill:none;stroke:#664848;stroke-miterlimit:10;" cx="4.5" cy="8.5" r="1"/>
		<polyline style="fill:none;stroke:#664848;stroke-linecap:round;stroke-linejoin:round;stroke-miterlimit:10;" points="1.5,12.5 
			2.5,12.5 6.5,12.5 7.5,12.5 		"/>
	</g>
</g>
<g id="Layer_1">
</g>
</svg>
