<?xml version="1.0" encoding="iso-8859-1"?>
<!-- Generator: Adobe Illustrator 19.2.1, SVG Export Plug-In . SVG Version: 6.00 Build 0)  -->
<svg version="1.1" xmlns="http://www.w3.org/2000/svg" xmlns:xlink="http://www.w3.org/1999/xlink" x="0px" y="0px"
	 viewBox="0 0 15.935 16.003" style="enable-background:new 0 0 15.935 16.003;" xml:space="preserve">
<g id="Layer_9">
	<g>
		<path style="fill:#FF9999;" d="M14.85,1.093c0.78,0.78,0.78,2.04,0,2.82l-3.27,3.26l-2.83-2.83l3.27-3.25
			C12.8,0.303,14.07,0.303,14.85,1.093z"/>
		<path style="fill:#FFD580;" d="M4.41,6.503v1.5c0,0.83-0.67,1.5-1.5,1.5s-1.5-0.67-1.5-1.5v-1.5H4.41z"/>
		<path style="fill:none;stroke:#664848;stroke-linecap:round;stroke-linejoin:round;stroke-miterlimit:10;" d="M11.58,7.173
			l3.27-3.26c0.78-0.78,0.78-2.04,0-2.82c-0.78-0.79-2.05-0.79-2.83,0l-3.27,3.25l-5.34,5.33c-1.28,1.28-2,3.02-2,4.83h0.01
			c1.8,0,3.54-0.72,4.81-1.99l4.68-4.66L11.58,7.173z"/>
		
			<line style="fill:none;stroke:#664848;stroke-linecap:round;stroke-linejoin:round;stroke-miterlimit:10;" x1="0.5" y1="15.413" x2="1.41" y2="14.503"/>
		<path style="fill:#FFD580;" d="M11.98,11.043l-0.36,0.35c-0.39,0.39-1.02,0.39-1.41,0l-1.42-1.42l2.12-2.12l1.42,1.41
			c0.39,0.39,0.39,1.03,0,1.42L11.98,11.043z"/>
		<path style="fill:none;stroke:#664848;stroke-linecap:round;stroke-linejoin:round;stroke-miterlimit:10;" d="M11.98,11.043
			l-0.36,0.35c-0.39,0.39-1.02,0.39-1.41,0l-1.42-1.42l2.12-2.12l1.42,1.41c0.39,0.39,0.39,1.03,0,1.42L11.98,11.043z"/>
		<path style="fill:none;stroke:#664848;stroke-linecap:round;stroke-linejoin:round;stroke-miterlimit:10;" d="M2.91,9.503
			c-0.83,0-1.5-0.67-1.5-1.5v-1.5h3v1.5C4.41,8.833,3.74,9.503,2.91,9.503z"/>
		
			<line style="fill:none;stroke:#664848;stroke-linecap:round;stroke-linejoin:round;stroke-miterlimit:10;" x1="8.75" y1="4.343" x2="11.58" y2="7.173"/>
		<path style="fill:none;stroke:#664848;stroke-linecap:round;stroke-linejoin:round;stroke-miterlimit:10;" d="M14.41,15.503
			c0-1.3-0.52-2.54-1.43-3.46c-0.5-0.5-0.95-0.95-1-1c-0.01-0.01-0.01-0.01-0.01-0.01"/>
	</g>
</g>
<g id="Layer_1">
</g>
</svg>
