<?xml version="1.0" encoding="iso-8859-1"?>
<!-- Generator: Adobe Illustrator 19.2.1, SVG Export Plug-In . SVG Version: 6.00 Build 0)  -->
<svg version="1.1" xmlns="http://www.w3.org/2000/svg" xmlns:xlink="http://www.w3.org/1999/xlink" x="0px" y="0px"
	 viewBox="0 0 16.002 16.002" style="enable-background:new 0 0 16.002 16.002;" xml:space="preserve">
<g id="Layer_10">
	<g>
		<path style="fill:#FFD580;" d="M15.2,5.92c0.39,1.33,0.38,2.62,0.1,3.8c-0.11,0.45-0.52,0.78-0.99,0.78H11.5c-0.55,0-1,0.45-1,1
			v2.81c0,0.47-0.33,0.88-0.78,0.99c-1.18,0.28-2.47,0.29-3.8-0.1c-2.75-0.8-4.87-3.14-5.32-5.96c-0.82-5.1,3.54-9.46,8.64-8.64
			C12.06,1.05,14.4,3.17,15.2,5.92z M13,4c0-0.55-0.45-1-1-1c-0.55,0-1,0.45-1,1s0.45,1,1,1C12.55,5,13,4.55,13,4z M9,3
			c0-0.55-0.45-1-1-1S7,2.45,7,3s0.45,1,1,1S9,3.55,9,3z M9,13c0-0.55-0.45-1-1-1s-1,0.45-1,1c0,0.55,0.45,1,1,1S9,13.55,9,13z M5,4
			c0-0.55-0.45-1-1-1S3,3.45,3,4s0.45,1,1,1S5,4.55,5,4z M5,12c0-0.55-0.45-1-1-1s-1,0.45-1,1c0,0.55,0.45,1,1,1S5,12.55,5,12z M4,8
			c0-0.55-0.45-1-1-1S2,7.45,2,8s0.45,1,1,1S4,8.55,4,8z"/>
		<circle style="fill:#664747;" cx="12" cy="4" r="1"/>
		<circle style="fill:#664747;" cx="8" cy="3" r="1"/>
		<circle style="fill:#664747;" cx="8" cy="13" r="1"/>
		<circle style="fill:#664747;" cx="4" cy="4" r="1"/>
		<circle style="fill:#664747;" cx="4" cy="12" r="1"/>
		<circle style="fill:#664747;" cx="3" cy="8" r="1"/>
		<path style="fill:none;stroke:#664848;stroke-linecap:round;stroke-linejoin:round;stroke-miterlimit:10;" d="M11.5,10.5h2.81
			c0.47,0,0.88-0.33,0.99-0.78c0.28-1.18,0.29-2.47-0.1-3.8c-0.8-2.75-3.14-4.87-5.96-5.32C4.14-0.22-0.22,4.14,0.6,9.24
			c0.45,2.82,2.57,5.16,5.32,5.96c1.33,0.39,2.62,0.38,3.8,0.1c0.45-0.11,0.78-0.52,0.78-0.99V11.5C10.5,10.95,10.95,10.5,11.5,10.5
			z"/>
	</g>
</g>
<g id="Layer_1">
</g>
</svg>
