<?xml version="1.0" encoding="UTF-8" standalone="no"?>
<svg
   xmlns:dc="http://purl.org/dc/elements/1.1/"
   xmlns:cc="http://creativecommons.org/ns#"
   xmlns:rdf="http://www.w3.org/1999/02/22-rdf-syntax-ns#"
   xmlns:svg="http://www.w3.org/2000/svg"
   xmlns="http://www.w3.org/2000/svg"
   xmlns:xlink="http://www.w3.org/1999/xlink"
   xmlns:sodipodi="http://sodipodi.sourceforge.net/DTD/sodipodi-0.dtd"
   xmlns:inkscape="http://www.inkscape.org/namespaces/inkscape"
   version="1.1"
   id="Layer_1"
   x="0px"
   y="0px"
   width="512px"
   height="512px"
   viewBox="0 0 512 512"
   enable-background="new 0 0 512 512"
   xml:space="preserve"
   sodipodi:docname="Chariotte.svg"
   inkscape:version="1.0.2 (e86c870879, 2021-01-15)"><metadata
   id="metadata25"><rdf:RDF><cc:Work
       rdf:about=""><dc:format>image/svg+xml</dc:format><dc:type
         rdf:resource="http://purl.org/dc/dcmitype/StillImage" /></cc:Work></rdf:RDF></metadata><defs
   id="defs23"><linearGradient
     inkscape:collect="always"
     id="linearGradient850"><stop
       style="stop-color:#000000;stop-opacity:1;"
       offset="0"
       id="stop846" /><stop
       style="stop-color:#000000;stop-opacity:0;"
       offset="1"
       id="stop848" /></linearGradient><linearGradient
     inkscape:collect="always"
     xlink:href="#linearGradient850"
     id="linearGradient852"
     x1="-0.492"
     y1="192"
     x2="448.492"
     y2="192"
     gradientUnits="userSpaceOnUse" /></defs><sodipodi:namedview
   pagecolor="#ffffff"
   bordercolor="#666666"
   borderopacity="1"
   objecttolerance="10"
   gridtolerance="10"
   guidetolerance="10"
   inkscape:pageopacity="0"
   inkscape:pageshadow="2"
   inkscape:window-width="1920"
   inkscape:window-height="1012"
   id="namedview21"
   showgrid="false"
   inkscape:zoom="1.3964844"
   inkscape:cx="256"
   inkscape:cy="256"
   inkscape:window-x="0"
   inkscape:window-y="0"
   inkscape:window-maximized="1"
   inkscape:current-layer="g16"
   inkscape:document-rotation="0" />
<g
   id="g18">
	<g
   id="g4"
   style="stroke:#ffffff;stroke-opacity:1;stroke-width:1;stroke-miterlimit:4;stroke-dasharray:none;opacity:1">
		<polygon
   points="447.992,336 181.555,336 69.539,80 0.008,80 0.008,48 90.477,48 202.492,304 447.992,304   "
   id="polygon2"
   style="stroke:#ffffff;stroke-opacity:1;stroke-width:1;stroke-miterlimit:4;stroke-dasharray:none" />
	</g>
	<path
   d="M287.992,416c0,26.5-21.5,48-48,48s-48-21.5-48-48s21.5-48,48-48S287.992,389.5,287.992,416z"
   id="path6" />
	<path
   d="M447.992,416c0,26.5-21.5,48-48,48s-48-21.5-48-48s21.5-48,48-48S447.992,389.5,447.992,416z"
   id="path8" />
	<g
   id="g16">
		<polygon
   points="499.18,144 511.992,112 160.008,112 172.805,144   "
   id="polygon10"
   style="fill:#0000ff;fill-opacity:1;stroke:#ff0e00;stroke-opacity:1" />
		<polygon
   points="211.195,240 223.992,272 447.992,272 460.805,240   "
   id="polygon12"
   style="fill:#ff0000;fill-opacity:1;stroke:#0600ff;stroke-opacity:1" />
		<polygon
   points="486.398,176 185.602,176 198.398,208 473.586,208   "
   id="polygon14"
   style="fill:#bbbbbb;fill-opacity:1;opacity:1;stroke:#000000;stroke-opacity:0.95279664" />
	</g>
</g>
</svg>
