<?xml version="1.0" encoding="iso-8859-1"?>
<!-- Generator: Adobe Illustrator 19.2.1, SVG Export Plug-In . SVG Version: 6.00 Build 0)  -->
<svg version="1.1" xmlns="http://www.w3.org/2000/svg" xmlns:xlink="http://www.w3.org/1999/xlink" x="0px" y="0px"
	 viewBox="0 0 32.065 31.666" style="enable-background:new 0 0 32.065 31.666;" xml:space="preserve">
<g id="Layer_13">
	<polygon style="fill:#FFD580;" points="31.065,11.661 24.805,12.561 22.005,18.241 20.105,14.381 19.205,12.561 16.645,12.201 
		12.945,11.661 17.485,7.241 16.405,1.001 22.005,3.961 27.605,1.001 26.525,7.241 	"/>
	<path style="fill:#99DDFF;" d="M19.205,12.561l0.9,1.82l-15.68,15.7c-0.78,0.78-2.06,0.78-2.84,0s-0.78-2.06,0-2.84l15.06-15.04
		L19.205,12.561z"/>
	<path style="fill:#664747;" d="M31.763,10.944L27.6,6.892l0.99-5.721c0.065-0.377-0.088-0.755-0.398-0.98
		c-0.31-0.225-0.716-0.254-1.055-0.075l-5.133,2.713l-5.133-2.713c-0.338-0.179-0.745-0.15-1.055,0.075
		c-0.31,0.225-0.463,0.603-0.398,0.98l0.99,5.721l-4.162,4.052c-0.272,0.265-0.371,0.664-0.254,1.025s0.431,0.626,0.807,0.681
		l1.727,0.252L0.878,26.533C0.292,27.119-0.001,27.895,0,28.661c-0.001,0.765,0.292,1.542,0.878,2.127
		c0.585,0.586,1.362,0.879,2.127,0.878c0.765,0.001,1.542-0.292,2.127-0.878l14.693-14.712l1.283,2.606
		c0.168,0.341,0.517,0.558,0.897,0.558c0.38,0,0.729-0.217,0.897-0.558l2.567-5.207l5.738-0.825c0.376-0.054,0.691-0.319,0.809-0.68
		C32.133,11.609,32.035,11.209,31.763,10.944z M24.663,11.571c-0.328,0.047-0.608,0.251-0.755,0.548l-1.902,3.859l-1.003-2.039
		c-0.025-0.051-0.068-0.085-0.1-0.129c-0.032-0.045-0.05-0.096-0.091-0.137c-0.009-0.009-0.021-0.011-0.03-0.02
		c-0.054-0.05-0.117-0.082-0.179-0.119c-0.051-0.03-0.097-0.067-0.151-0.087c-0.06-0.022-0.123-0.026-0.186-0.036
		c-0.063-0.01-0.124-0.028-0.188-0.026c-0.058,0.002-0.113,0.021-0.171,0.033c-0.071,0.015-0.141,0.025-0.208,0.055
		c-0.011,0.005-0.023,0.004-0.034,0.009c-0.051,0.025-0.085,0.068-0.13,0.1c-0.045,0.032-0.096,0.05-0.136,0.091l-15.68,15.7
		c-0.194,0.194-0.448,0.291-0.712,0.292c-0.265-0.001-0.518-0.098-0.713-0.292C2.098,29.179,2.001,28.925,2,28.661
		c0.001-0.265,0.098-0.518,0.292-0.713l15.06-15.04c0.028-0.028,0.039-0.065,0.063-0.095c0.043-0.054,0.081-0.107,0.112-0.169
		c0.031-0.062,0.051-0.125,0.068-0.191c0.01-0.038,0.033-0.068,0.039-0.108c0.004-0.024-0.006-0.046-0.004-0.07
		c0.005-0.069-0.002-0.135-0.011-0.204c-0.008-0.062-0.016-0.122-0.035-0.181c-0.019-0.059-0.049-0.111-0.08-0.166
		c-0.034-0.061-0.068-0.118-0.113-0.171c-0.016-0.018-0.022-0.041-0.039-0.059c-0.028-0.028-0.065-0.039-0.095-0.063
		c-0.054-0.043-0.107-0.081-0.169-0.112c-0.062-0.031-0.125-0.051-0.191-0.068c-0.038-0.01-0.068-0.033-0.108-0.039l-1.695-0.247
		l3.088-3.007c0.237-0.231,0.344-0.561,0.288-0.887l-0.733-4.234l3.8,2.009c0.293,0.155,0.642,0.155,0.935,0l3.8-2.009L25.54,7.07
		c-0.056,0.326,0.051,0.656,0.288,0.887l3.084,3.003L24.663,11.571z"/>
	<path style="fill:#664848;" d="M21.001,13.937l-0.9-1.82c-0.147-0.297-0.429-0.501-0.757-0.547l-2.56-0.36
		c-0.547-0.077-1.053,0.304-1.13,0.851c-0.077,0.547,0.304,1.053,0.851,1.13l2.037,0.286l0.666,1.347
		c0.245,0.495,0.845,0.698,1.34,0.453C21.043,15.032,21.246,14.432,21.001,13.937L21.001,13.937z"/>
</g>
<g id="Layer_1">
</g>
</svg>
