<?xml version="1.0" encoding="iso-8859-1"?>
<!-- Generator: Adobe Illustrator 19.2.1, SVG Export Plug-In . SVG Version: 6.00 Build 0)  -->
<svg version="1.1" xmlns="http://www.w3.org/2000/svg" xmlns:xlink="http://www.w3.org/1999/xlink" x="0px" y="0px"
	 viewBox="0 0 31.308 29.845" style="enable-background:new 0 0 31.308 29.845;" xml:space="preserve">
<g id="Layer_14">
	<path style="fill:#FFD580;" d="M29.723,7.4c0.78,0.78,0.78,2.04,0,2.82L14.763,25.2l-8.5-8.5l14.98-14.96
		c0.78-0.78,2.04-0.78,2.82,0L29.723,7.4z"/>
	<path style="fill:#99DDFF;" d="M14.763,25.2l-1.42,1.4c-0.4,0.4-0.9,0.58-1.4,0.58c-0.52,0-1.04-0.18-1.42-0.58
		c-0.8-0.78-2.06-0.78-2.84,0l-1.42,1.42l-2.82-2.82l1.42-1.42c0.4-0.38,0.58-0.9,0.58-1.42c0-0.5-0.18-1.02-0.58-1.42
		c-0.78-0.78-0.78-2.04,0-2.82l1.4-1.42L14.763,25.2z"/>
	<path style="fill:#FFD580;" d="M6.263,28.02l-2.82-2.82l-2.14,2.08c-0.64,0.64-0.2,1.72,0.7,1.72h3.38L6.263,28.02z"/>
	<path style="fill:#664848;" d="M31.308,8.81c0.001-0.763-0.295-1.535-0.878-2.117l-5.66-5.66c-0.582-0.583-1.354-0.879-2.117-0.878
		c-0.763-0.001-1.535,0.295-2.117,0.878l0,0l-14.98,14.96c-0.001,0.001-0.001,0.002-0.002,0.003s-0.002,0.001-0.003,0.002l-1.4,1.42
		l0.005-0.005c-0.583,0.582-0.879,1.354-0.878,2.117c-0.001,0.763,0.295,1.535,0.878,2.117c0.196,0.196,0.286,0.448,0.287,0.713
		c-0.002,0.296-0.096,0.531-0.269,0.695l-0.018,0.018L2.74,24.489l-2.133,2.074l-0.01,0.01c-0.397,0.392-0.6,0.924-0.596,1.423
		c0.001,0.515,0.194,0.926,0.545,1.302c0.347,0.377,0.882,0.547,1.458,0.547h3.38c0.282,0,0.556-0.045,0.744-0.254l0.862-0.922
		l1.401-1.381c0.198-0.197,0.445-0.514,0.705-0.515c0.26,0.001,0.518,0.073,0.729,0.073h0.003c0.593,1,1.382,1.103,2.116,1.101
		c0.737,0.004,1.518-0.162,2.107-0.756l-0.005,0.064l1.42-1.371c0.001-0.001,0.001,0.012,0.002,0.011s0.002,0.006,0.003,0.005
		l14.96-14.976l0,0.002C31.013,10.343,31.309,9.573,31.308,8.81z M2,27.845v0.153l0.009-0.011l1.424-1.461l1.396,1.318H2z
		 M12.641,25.888l-0.005,0.005c-0.211,0.206-0.43,0.283-0.693,0.287c-0.295-0.002-0.531-0.096-0.695-0.269l-0.027-0.027
		c-0.589-0.575-1.361-0.87-2.126-0.869c-0.765-0.001-1.538,0.295-2.12,0.878l-0.713,0.713L4.857,25.2l0.713-0.713l-0.002-0.002
		c0.614-0.594,0.877-1.388,0.875-2.125c0.002-0.736-0.269-1.523-0.873-2.127c-0.197-0.198-0.291-0.446-0.292-0.703
		c0.001-0.257,0.095-0.505,0.292-0.703l0.005-0.005l0.693-0.703l7.076,7.076L12.641,25.888z M29.016,9.513L29.016,9.513
		L14.763,23.785L7.678,16.7L21.95,2.448l0,0c0.198-0.197,0.446-0.291,0.703-0.292c0.257,0.001,0.505,0.095,0.703,0.292l5.66,5.66
		c0.197,0.198,0.291,0.446,0.292,0.703C29.307,9.067,29.213,9.315,29.016,9.513z"/>
</g>
<g id="Layer_1">
</g>
</svg>
