<?xml version="1.0" encoding="iso-8859-1"?>
<!-- Generator: Adobe Illustrator 19.2.1, SVG Export Plug-In . SVG Version: 6.00 Build 0)  -->
<svg version="1.1" xmlns="http://www.w3.org/2000/svg" xmlns:xlink="http://www.w3.org/1999/xlink" x="0px" y="0px"
	 viewBox="0 0 32.285 32.28" style="enable-background:new 0 0 32.285 32.28;" xml:space="preserve">
<g id="Layer_16">
	<polygon style="fill:#FFD580;" points="31.285,12.32 27.545,15.38 16.905,4.74 19.965,1 	"/>
	<path style="fill:#FF9999;" d="M27.545,15.38l-11.82,9.66c-0.78,0.78-2.06,0.78-2.84,0l-5.64-5.66c-0.78-0.78-0.78-2.04,0-2.82
		l9.66-11.82L27.545,15.38z"/>
	<polygon style="fill:#FFD580;" points="7.245,19.38 12.885,25.04 10.065,27.88 4.405,22.22 	"/>
	<path style="fill:#664848;" d="M31.992,11.613l-11.32-11.32c-0.199-0.2-0.475-0.306-0.757-0.292
		c-0.282,0.014-0.545,0.147-0.724,0.366l-3.06,3.74l0,0l-9.66,11.82l0.004,0.003c-0.536,0.573-0.816,1.308-0.815,2.04
		c-0.001,0.438,0.108,0.874,0.301,1.28l-1.686,1.686c-0.406-0.193-0.842-0.301-1.28-0.301c-0.763-0.001-1.535,0.295-2.117,0.878
		C0.295,22.095-0.001,22.867,0,23.63c-0.001,0.763,0.295,1.535,0.878,2.117l5.66,5.66l0.018,0.018
		c0.574,0.546,1.321,0.855,2.089,0.855c0.774-0.001,1.546-0.294,2.127-0.873c0.583-0.582,0.879-1.354,0.878-2.117
		c0.001-0.439-0.108-0.876-0.302-1.283l1.671-1.683c0.408,0.193,0.847,0.301,1.286,0.3c0.734,0.001,1.473-0.276,2.05-0.815
		l0.003,0.004l11.82-9.66l3.74-3.06c0.218-0.179,0.352-0.442,0.366-0.724C32.298,12.088,32.192,11.812,31.992,11.613z M9.358,29.993
		c-0.179,0.181-0.447,0.288-0.713,0.287c-0.232,0-0.484-0.091-0.71-0.304l-5.643-5.643C2.095,24.135,2.001,23.887,2,23.63
		c0.001-0.257,0.095-0.505,0.292-0.703c0.198-0.197,0.446-0.291,0.703-0.292c0.257,0.001,0.505,0.095,0.703,0.292c0,0,0,0,0,0
		l5.66,5.66c0.197,0.198,0.291,0.446,0.292,0.703C9.649,29.547,9.555,29.795,9.358,29.993z M10.062,26.463L5.819,22.22l1.425-1.425
		l4.231,4.246L10.062,26.463z M15.092,24.266l-0.074,0.067c-0.195,0.194-0.448,0.291-0.713,0.292
		c-0.265-0.001-0.518-0.098-0.713-0.292l-5.639-5.659l-0.001-0.001c-0.197-0.198-0.291-0.446-0.292-0.703
		c0.001-0.257,0.095-0.505,0.292-0.703l0.067-0.074l8.96-10.964l9.076,9.076L15.092,24.266z M27.612,14.033l-9.36-9.36l1.787-2.184
		l9.757,9.757L27.612,14.033z"/>
</g>
<g id="Layer_1">
</g>
</svg>
