<?xml version="1.0" encoding="iso-8859-1"?>
<!-- Generator: Adobe Illustrator 19.2.1, SVG Export Plug-In . SVG Version: 6.00 Build 0)  -->
<svg version="1.1" xmlns="http://www.w3.org/2000/svg" xmlns:xlink="http://www.w3.org/1999/xlink" x="0px" y="0px"
	 viewBox="0 0 32.005 32.005" style="enable-background:new 0 0 32.005 32.005;" xml:space="preserve">
<g id="Layer_17">
	<path style="fill:#99DDFF;" d="M15.18,7.185c0.78-0.78,2.04-0.78,2.82,0l0.58,0.58l5.6-5.58c1.56-1.58,4.08-1.58,5.64,0
		c1.58,1.56,1.58,4.08,0,5.64l-5.58,5.6l0.58,0.58c0.78,0.78,0.78,2.04,0,2.82c-0.78,0.78-2.04,0.78-2.82,0l-6.82-6.82
		C14.4,9.225,14.4,7.965,15.18,7.185z"/>
	<polygon style="fill:#FFD580;" points="14.64,23.005 8.62,29.005 3,29.025 3,23.385 3.36,23.005 3.38,23.005 	"/>
	<path style="fill:#664848;" d="M30.523,8.537c0.984-0.97,1.484-2.255,1.482-3.532c0.001-1.273-0.496-2.552-1.474-3.522l0.001-0.001
		c-0.002-0.002-0.003-0.003-0.005-0.004s-0.003-0.003-0.004-0.005l-0.001,0.001C29.553,0.496,28.273-0.001,27,0
		c-1.277-0.001-2.561,0.498-3.532,1.482l0.006-0.006l-4.906,4.888c-0.564-0.5-1.272-0.766-1.979-0.765
		c-0.763-0.001-1.535,0.295-2.117,0.878c-0.583,0.582-0.879,1.354-0.878,2.117c-0.001,0.707,0.264,1.414,0.765,1.978L2.699,22.271
		c-0.02,0.018-0.046,0.026-0.065,0.046h0l-0.36,0.38C2.098,22.883,2,23.129,2,23.385v5.206l-1.707,1.707
		c-0.391,0.391-0.391,1.024,0,1.414c0.391,0.391,1.024,0.391,1.414,0l1.689-1.689l5.228-0.019c0.263-0.001,0.516-0.106,0.702-0.292
		l6.02-6l6.086-6.068c0.564,0.5,1.271,0.766,1.978,0.764c0.763,0.001,1.535-0.295,2.117-0.878c0.583-0.582,0.879-1.354,0.878-2.117
		c0.001-0.707-0.264-1.415-0.765-1.979l4.888-4.906L30.523,8.537z M13.934,22.297l-5.729,5.71L4,28.021v-4.238l0.035-0.037
		c0.016-0.014,0.037-0.02,0.053-0.035L15.681,12.08l4.244,4.244L13.934,22.297z M29.117,7.113l-0.006,0.006l-5.58,5.6
		c-0.39,0.391-0.389,1.024,0.003,1.414c0.104,0.103,0.225,0.175,0.354,0.224c0.049,0.129,0.12,0.251,0.224,0.355
		c0.197,0.198,0.291,0.446,0.292,0.703c-0.001,0.257-0.095,0.505-0.292,0.703c-0.198,0.197-0.446,0.291-0.703,0.292
		c-0.257-0.001-0.505-0.095-0.703-0.292l-6.82-6.82C15.69,9.1,15.596,8.852,15.595,8.595c0.001-0.257,0.095-0.505,0.292-0.703
		c0.198-0.197,0.446-0.291,0.703-0.292c0.257,0.001,0.505,0.095,0.703,0.292c0.104,0.104,0.226,0.176,0.355,0.224
		c0.048,0.129,0.12,0.25,0.224,0.354c0.39,0.391,1.023,0.392,1.414,0.003l5.6-5.58l0.006-0.006C25.481,2.292,26.237,2.001,27,2
		c0.763,0.001,1.519,0.292,2.108,0.888l0.009,0.009c0.596,0.59,0.886,1.345,0.888,2.108C30.004,5.768,29.713,6.524,29.117,7.113z"/>
	<path style="fill:#664848;" d="M22.413,13.012l1.12,1.12l0.58,0.58c0.391,0.391,1.024,0.391,1.414,0
		c0.391-0.391,0.391-1.024,0-1.414l-0.58-0.58l-1.12-1.12c-0.391-0.391-1.024-0.391-1.414,0
		C22.022,11.988,22.022,12.622,22.413,13.012L22.413,13.012z"/>
	<path style="fill:#664848;" d="M17.293,7.892l0.58,0.58l1.12,1.12c0.391,0.391,1.024,0.391,1.414,0
		c0.391-0.391,0.391-1.024,0-1.414l-1.12-1.12l-0.58-0.58c-0.391-0.391-1.024-0.391-1.414,0C16.902,6.868,16.902,7.502,17.293,7.892
		L17.293,7.892z"/>
	<path style="fill:#664848;" d="M3.36,24.005h0.02h11.26c0.552,0,1-0.448,1-1c0-0.552-0.448-1-1-1l-11.26,0H3.36
		c-0.552,0-1,0.448-1,1C2.36,23.557,2.808,24.005,3.36,24.005L3.36,24.005z"/>
</g>
<g id="Layer_1">
</g>
</svg>
