<?xml version="1.0" encoding="iso-8859-1"?>
<!-- Generator: Adobe Illustrator 19.2.1, SVG Export Plug-In . SVG Version: 6.00 Build 0)  -->
<svg version="1.1" xmlns="http://www.w3.org/2000/svg" xmlns:xlink="http://www.w3.org/1999/xlink" x="0px" y="0px"
	 viewBox="0 0 28 32" style="enable-background:new 0 0 28 32;" xml:space="preserve">
<g id="Layer_18">
	<path style="fill:#FFD580;" d="M25,5v2c0,1.1-0.9,2-2,2H3C1.9,9,1,8.1,1,7V3c0-1.1,0.9-2,2-2h20c1.1,0,2,0.9,2,2V5z"/>
	<path style="fill:#FF9999;" d="M15,21v8c0,1.1-0.9,2-2,2s-2-0.9-2-2v-8c0-1.1,0.9-2,2-2S15,19.9,15,21z"/>
	<path style="fill:#664848;" d="M26,4.185V3c-0.004-1.657-1.343-2.996-3-3H3C1.343,0.004,0.004,1.343,0,3v4
		c0.004,1.657,1.343,2.996,3,3h20c1.657-0.004,2.996-1.343,3-3v4c-0.001,0.543-0.457,0.999-1,1H15c-1.657,0.004-2.996,1.343-3,3
		v3.185C10.839,18.6,10.003,19.696,10,21v8c0.004,1.657,1.343,2.996,3,3c1.657-0.004,2.996-1.343,3-3v-8
		c-0.003-1.304-0.839-2.4-2-2.815V15c0.001-0.543,0.457-0.999,1-1h10c1.657-0.004,2.996-1.343,3-3V7
		C27.997,5.696,27.161,4.6,26,4.185z M24,5v2c-0.001,0.543-0.457,0.999-1,1H3C2.457,7.999,2.001,7.543,2,7V3
		c0.001-0.543,0.457-0.999,1-1h20c0.543,0.001,0.999,0.457,1,1V5z M14,29c-0.001,0.543-0.457,0.999-1,1
		c-0.543-0.001-0.999-0.457-1-1v-8c0.001-0.543,0.457-0.999,1-1c0.543,0.001,0.999,0.457,1,1V29z"/>
</g>
<g id="Layer_1">
</g>
</svg>
