<?xml version="1.0" encoding="iso-8859-1"?>
<!-- Generator: Adobe Illustrator 19.2.1, SVG Export Plug-In . SVG Version: 6.00 Build 0)  -->
<svg version="1.1" xmlns="http://www.w3.org/2000/svg" xmlns:xlink="http://www.w3.org/1999/xlink" x="0px" y="0px"
	 viewBox="0 0 32.412 32.412" style="enable-background:new 0 0 32.412 32.412;" xml:space="preserve">
<g id="Layer_20">
	<polygon style="fill:#99DDFF;" points="31,9.82 28.18,12.66 25.34,9.82 26.46,8.72 28.18,7 	"/>
	<polygon style="fill:#99DDFF;" points="12.34,9.5 12.82,10 10,12.82 9.5,12.34 8.58,11.42 7.16,10 10,7.16 11.42,8.58 	"/>
	<polygon style="fill:#99DDFF;" points="12.66,28.18 9.82,31 7,28.18 8.72,26.46 9.82,25.34 	"/>
	<path style="fill:#664848;" d="M31.707,9.113L28.18,5.586l-1.905,1.905c-1.971-0.987-4.126-1.484-6.281-1.484
		c-2.017,0-4.032,0.443-5.896,1.309l3.189-3.189l0.2-0.2C17.651,3.97,17.819,4,18,4c1.1,0,2-0.9,2-2c0-1.1-0.9-2-2-2
		c-1.1,0-2,0.9-2,2c0,0.18,0.03,0.349,0.073,0.513l-0.2,0.2L11.42,7.166L10,5.746L5.746,10l1.42,1.42l-4.453,4.453l-0.2,0.2
		C2.349,16.03,2.18,16,2,16c-1.1,0-2,0.9-2,2c0,1.1,0.9,2,2,2c1.1,0,2-0.9,2-2c0-0.181-0.03-0.349-0.073-0.513l0.2-0.2l3.183-3.183
		c-0.856,1.836-1.303,3.821-1.303,5.815c0,2.174,0.486,4.357,1.485,6.356L5.586,28.18l4.232,4.232l4.259-4.229l-0.71-0.71
		l-3.554-3.554l-0.815,0.83c-0.657-1.534-0.992-3.178-0.992-4.831c0-2.09,0.568-4.175,1.669-6.024l0.339,0.325l4.206-4.206
		l-0.325-0.338c1.868-1.108,3.98-1.669,6.099-1.669c1.624,0,3.243,0.339,4.757,0.99l-0.112,0.11l-0.72,0.707l4.263,4.263
		l4.229-4.259L31.707,9.113z M9.427,27.167l0.004-0.004l0.396-0.403l1.417,1.417l-1.421,1.411L8.414,28.18L9.427,27.167z
		 M9.99,11.416l-0.703-0.703L8.574,10L10,8.574l0.713,0.713l0.703,0.703L9.99,11.416z M28.177,11.243l-1.417-1.417l0.4-0.393
		l0.004-0.004l1.016-1.016l1.408,1.408L28.177,11.243z"/>
</g>
<g id="Layer_1">
</g>
</svg>
