<?xml version="1.0" encoding="iso-8859-1"?>
<!-- Generator: Adobe Illustrator 19.2.1, SVG Export Plug-In . SVG Version: 6.00 Build 0)  -->
<svg version="1.1" xmlns="http://www.w3.org/2000/svg" xmlns:xlink="http://www.w3.org/1999/xlink" x="0px" y="0px"
	 viewBox="0 0 32.875 32.875" style="enable-background:new 0 0 32.875 32.875;" xml:space="preserve">
<g id="Layer_3">
	<path style="fill:#99DDFF;" d="M30.69,2.185c1.58,1.56,1.58,4.08,0,5.64l-8.48,8.48l-5.64-5.64l8.48-8.48
		C26.61,0.605,29.13,0.605,30.69,2.185z M28.85,4.925c0-0.56-0.44-1-1-1s-1,0.44-1,1s0.44,1,1,1S28.85,5.485,28.85,4.925z"/>
	<path style="fill:#99DDFF;" d="M25.05,19.145c0.78,0.78,0.78,2.04,0,2.84l-1.92,1.9L8.99,9.745l1.9-1.92c0.8-0.78,2.06-0.78,2.84,0
		l2.82,2.84l5.66,5.66L25.05,19.145z"/>
	<path style="fill:#FFD580;" d="M23.13,23.885l-6.58,6.58c-0.78,0.78-2.04,0.78-2.82,0L2.41,19.145c-0.78-0.78-0.78-2.04,0-2.82
		l6.58-6.58L23.13,23.885z"/>
	<g>
		<path style="fill:#664848;" d="M27.85,2.925c-0.544-0.001-1.055,0.219-1.417,0.583c-0.364,0.362-0.584,0.873-0.583,1.417
			c-0.001,0.544,0.219,1.055,0.583,1.417c0.362,0.364,0.873,0.584,1.417,0.583c0.544,0.001,1.055-0.219,1.417-0.583
			c0.364-0.362,0.584-0.873,0.583-1.417c0.001-0.544-0.219-1.055-0.583-1.417C28.905,3.144,28.394,2.924,27.85,2.925z"/>
	</g>
	<path style="fill:#664848;" d="M32.875,5.005c0.001-1.273-0.496-2.553-1.474-3.522l0.001-0.001
		C31.4,1.481,31.398,1.48,31.397,1.478s-0.003-0.003-0.004-0.005l-0.001,0.001C30.423,0.496,29.143-0.001,27.87,0
		c-1.277-0.001-2.561,0.498-3.532,1.482l0.005-0.005l-7.78,7.78L14.44,7.12l-0.003-0.003c-0.582-0.583-1.355-0.879-2.12-0.878
		c-0.765-0.001-1.537,0.294-2.126,0.869l-0.013,0.013l-1.9,1.92c0,0,0,0,0,0l-7.986,7.986c-0.391,0.391-0.391,1.024,0,1.414
		l14.14,14.14c0.186,0.186,0.444,0.293,0.707,0.293c0.263,0,0.521-0.107,0.707-0.293l7.99-7.99l0,0l1.916-1.896l0.013-0.013
		c0.575-0.589,0.87-1.361,0.869-2.126c0.001-0.765-0.295-1.538-0.878-2.12l-0.003-0.003l-2.138-2.123l7.776-7.776
		C32.377,7.566,32.876,6.282,32.875,5.005z M15.14,30.461l-1.706-1.706l3.123-3.123c0.391-0.391,0.391-1.024,0-1.414
		c-0.391-0.391-1.024-0.391-1.414,0l-3.123,3.123l-1.586-1.586l2.123-2.123c0.391-0.391,0.391-1.024,0-1.414
		c-0.391-0.391-1.024-0.391-1.414,0L9.02,24.341l-6.606-6.606l6.576-6.576l12.726,12.726L15.14,30.461z M24.346,19.855
		c0.184,0.183,0.29,0.439,0.29,0.7c0,0.271-0.109,0.535-0.3,0.73l-1.202,1.189L10.4,9.741l1.2-1.213
		c0.184-0.179,0.448-0.289,0.713-0.289c0.269,0,0.523,0.106,0.708,0.291l2.127,2.142l-0.002,0.002l1.412,1.417l0.003-0.002
		l4.226,4.226l-0.003,0.003L24.346,19.855z M29.987,7.113l-0.005,0.005L22.2,14.901l-4.226-4.226l7.783-7.783l0.005-0.005
		C26.351,2.292,27.107,2.001,27.87,2c0.763,0.001,1.519,0.292,2.108,0.888l0.009,0.009c0.596,0.59,0.886,1.345,0.888,2.108
		C30.874,5.768,30.583,6.524,29.987,7.113z"/>
</g>
<g id="Layer_1">
</g>
</svg>
