<?xml version="1.0" encoding="iso-8859-1"?>
<!-- Generator: Adobe Illustrator 19.2.1, SVG Export Plug-In . SVG Version: 6.00 Build 0)  -->
<svg version="1.1" xmlns="http://www.w3.org/2000/svg" xmlns:xlink="http://www.w3.org/1999/xlink" x="0px" y="0px"
	 viewBox="0 0 30 30" style="enable-background:new 0 0 30 30;" xml:space="preserve">
<g id="Layer_21">
	<polygon style="fill:#99DDFF;" points="29,25 29,29 25,29 25,27 25,25 27,25 	"/>
	<polygon style="fill:#99DDFF;" points="29,1 29,5 27,5 25,5 25,3 25,1 	"/>
	<polygon style="fill:#99DDFF;" points="5,27 5,29 1,29 1,25 3,25 5,25 	"/>
	<polygon style="fill:#99DDFF;" points="5,3 5,5 3,5 1,5 1,1 5,1 	"/>
	<path style="fill:#664848;" d="M29,6h1V0h-6v2H6V1V0H0v6h2v18H1H0v6h6v-2h18v1v1h6v-6h-2V6H29z M2,2h2v1v1H3H2V2z M4,27v1H2v-2h1h1
		V27z M24,24v2H6v-1v-1H4V6h1h1V4h18v1v1h2v18h-1H24z M28,28h-2v-1v-1h1h1V28z M27,4h-1V3V2h2v2H27z"/>
</g>
<g id="Layer_1">
</g>
</svg>
