<?xml version="1.0" encoding="iso-8859-1"?>
<!-- Generator: Adobe Illustrator 19.2.1, SVG Export Plug-In . SVG Version: 6.00 Build 0)  -->
<svg version="1.1" xmlns="http://www.w3.org/2000/svg" xmlns:xlink="http://www.w3.org/1999/xlink" x="0px" y="0px"
	 viewBox="0 0 30 30" style="enable-background:new 0 0 30 30;" xml:space="preserve">
<g id="Layer_22">
	<polygon style="fill:#80D5FF;" points="29,13 29,17 26.84,17 25,17 25,13 26.84,13 	"/>
	<polygon style="fill:#80D5FF;" points="17,26.84 17,29 13,29 13,26.84 13,25 17,25 	"/>
	<polygon style="fill:#80D5FF;" points="17,3.16 17,5 13,5 13,3.16 13,1 17,1 	"/>
	<polygon style="fill:#80D5FF;" points="5,13 5,17 3.16,17 1,17 1,13 3.16,13 	"/>
	<path style="fill:#664848;" d="M27.649,12C26.507,7.234,22.766,3.493,18,2.351V1V0h-6v2.351C7.234,3.493,3.493,7.234,2.351,12H1H0
		v6h2.351c1.142,4.766,4.883,8.507,9.649,9.649V29v1h6v-2.351c4.766-1.142,8.507-4.883,9.649-9.649H29h1v-6H27.649z M14,3.16V2h2
		v1.16V4h-2V3.16z M4,16H3.16H2v-2h1.16H4V16z M16,26.84V28h-2v-1.16V26h2V26.84z M25.58,18c-1.047,3.654-3.926,6.533-7.58,7.58V25
		v-1h-6v1.58C8.346,24.533,5.467,21.654,4.42,18H5h1v-6H4.42C5.467,8.346,8.346,5.467,12,4.42V5v1h6V4.42
		c3.654,1.047,6.533,3.926,7.58,7.58H25h-1v6H25.58z M28,16h-1.16H26v-2h0.84H28V16z"/>
</g>
<g id="Layer_1">
</g>
</svg>
