<?xml version="1.0" encoding="iso-8859-1"?>
<!-- Generator: Adobe Illustrator 19.2.1, SVG Export Plug-In . SVG Version: 6.00 Build 0)  -->
<svg version="1.1" xmlns="http://www.w3.org/2000/svg" xmlns:xlink="http://www.w3.org/1999/xlink" x="0px" y="0px"
	 viewBox="0 0 30 28" style="enable-background:new 0 0 30 28;" xml:space="preserve">
<g id="Layer_23">
	<polygon style="fill:#FF9999;" points="29,3 29,25 19,14 	"/>
	<polygon style="fill:#99DDFF;" points="1,3 11,14 1,25 	"/>
	<path style="fill:#664848;" d="M16,3V1c0-0.552-0.448-1-1-1c-0.552,0-1,0.448-1,1v2c0,0.552,0.448,1,1,1C15.552,4,16,3.552,16,3z
		 M16,9V7c0-0.552-0.448-1-1-1c-0.552,0-1,0.448-1,1v2c0,0.552,0.448,1,1,1C15.552,10,16,9.552,16,9z M16,15v-2c0-0.552-0.448-1-1-1
		c-0.552,0-1,0.448-1,1v2c0,0.552,0.448,1,1,1C15.552,16,16,15.552,16,15z M16,21v-2c0-0.552-0.448-1-1-1c-0.552,0-1,0.448-1,1v2
		c0,0.552,0.448,1,1,1C15.552,22,16,21.552,16,21z M16,27v-2c0-0.552-0.448-1-1-1c-0.552,0-1,0.448-1,1v2c0,0.552,0.448,1,1,1
		C15.552,28,16,27.552,16,27z"/>
	<g>
		<path style="fill:#664848;" d="M1.74,2.327c-0.278-0.306-0.715-0.409-1.101-0.26S0,2.586,0,3v22c0,0.414,0.254,0.784,0.639,0.933
			c0.386,0.149,0.822,0.046,1.101-0.26l10-11c0.347-0.382,0.347-0.964,0-1.345L1.74,2.327z M2,22.413V5.587L9.649,14L2,22.413z"/>
		<path style="fill:#664848;" d="M29.361,2.067c-0.386-0.149-0.822-0.046-1.101,0.26l-10,11c-0.347,0.382-0.347,0.964,0,1.345l10,11
			c0.278,0.306,0.715,0.409,1.101,0.26C29.746,25.784,30,25.414,30,25V3C30,2.586,29.746,2.216,29.361,2.067z M28,22.413L20.351,14
			L28,5.587V22.413z"/>
	</g>
</g>
<g id="Layer_1">
</g>
</svg>
