<?xml version="1.0" encoding="iso-8859-1"?>
<!-- Generator: Adobe Illustrator 19.2.1, SVG Export Plug-In . SVG Version: 6.00 Build 0)  -->
<svg version="1.1" xmlns="http://www.w3.org/2000/svg" xmlns:xlink="http://www.w3.org/1999/xlink" x="0px" y="0px"
	 viewBox="0 0 28 30" style="enable-background:new 0 0 28 30;" xml:space="preserve">
<g id="Layer_24">
	<polygon style="fill:#99DDFF;" points="25,1 14,11 3,1 	"/>
	<polygon style="fill:#FF9999;" points="25,29 3,29 14,19 	"/>
	<path style="fill:#664848;" d="M3,14H1c-0.552,0-1,0.448-1,1c0,0.552,0.448,1,1,1h2c0.552,0,1-0.448,1-1C4,14.448,3.552,14,3,14z
		 M9,14H7c-0.552,0-1,0.448-1,1c0,0.552,0.448,1,1,1h2c0.552,0,1-0.448,1-1C10,14.448,9.552,14,9,14z M15,14h-2
		c-0.552,0-1,0.448-1,1c0,0.552,0.448,1,1,1h2c0.552,0,1-0.448,1-1C16,14.448,15.552,14,15,14z M21,14h-2c-0.552,0-1,0.448-1,1
		c0,0.552,0.448,1,1,1h2c0.552,0,1-0.448,1-1C22,14.448,21.552,14,21,14z M27,14h-2c-0.552,0-1,0.448-1,1c0,0.552,0.448,1,1,1h2
		c0.552,0,1-0.448,1-1C28,14.448,27.552,14,27,14z"/>
	<g>
		<path style="fill:#664848;" d="M14.673,18.26c-0.382-0.347-0.964-0.347-1.345,0l-11,10c-0.306,0.278-0.409,0.715-0.26,1.101
			C2.216,29.746,2.586,30,3,30h22c0.414,0,0.784-0.254,0.933-0.639c0.149-0.386,0.046-0.822-0.26-1.101L14.673,18.26z M5.587,28
			L14,20.351L22.413,28H5.587z"/>
		<path style="fill:#664848;" d="M13.327,11.74c0.382,0.347,0.964,0.347,1.345,0l11-10c0.306-0.278,0.409-0.715,0.26-1.101
			C25.784,0.254,25.414,0,25,0H3C2.586,0,2.216,0.254,2.067,0.639C1.918,1.025,2.021,1.462,2.327,1.74L13.327,11.74z M22.413,2
			L14,9.648L5.587,2H22.413z"/>
	</g>
</g>
<g id="Layer_1">
</g>
</svg>
