<?xml version="1.0" encoding="iso-8859-1"?>
<!-- Generator: Adobe Illustrator 19.2.1, SVG Export Plug-In . SVG Version: 6.00 Build 0)  -->
<svg version="1.1" xmlns="http://www.w3.org/2000/svg" xmlns:xlink="http://www.w3.org/1999/xlink" x="0px" y="0px"
	 viewBox="0 0 32 32" style="enable-background:new 0 0 32 32;" xml:space="preserve">
<g id="Layer_25">
	<polygon style="fill:#99DDFF;" points="31,23 31,27 27,27 23,27 9,27 5,27 5,23 5,9 5,5 5,1 9,1 9,5 9,9 9,23 23,23 27,23 	"/>
	<rect x="23" y="27" style="fill:#80D5FF;" width="4" height="4"/>
	<polygon style="fill:#99DDFF;" points="27,9 27,23 23,23 23,9 27,5 	"/>
	<polygon style="fill:#80D5FF;" points="27,5 23,9 9,9 9,5 23,5 	"/>
	<rect x="1" y="5" style="fill:#80D5FF;" width="4" height="4"/>
	<path style="fill:#664848;" d="M10,5V1c0-0.263-0.107-0.521-0.293-0.707C9.521,0.107,9.263,0,9,0H5
		C4.737,0,4.479,0.107,4.293,0.293C4.107,0.479,4,0.737,4,1v4c0,0.552,0.448,1,1,1c0.552,0,1-0.448,1-1V2h2l0,3c0,0.552,0.448,1,1,1
		C9.552,6,10,5.552,10,5z"/>
	<path style="fill:#664848;" d="M31.707,22.293C31.521,22.107,31.263,22,31,22h-3V9V5c0-0.263-0.107-0.521-0.293-0.707
		C27.521,4.107,27.263,4,27,4h-4H9C8.737,4,8.479,4.107,8.293,4.293C8.107,4.479,8,4.737,8,5v4v14c0,0.263,0.107,0.521,0.293,0.707
		S8.737,24,9,24h14h4h3v2h-3h-4H9H6v-3V9V5c0-0.263-0.107-0.521-0.293-0.707C5.521,4.107,5.263,4,5,4H1
		C0.737,4,0.479,4.107,0.293,4.293C0.107,4.479,0,4.737,0,5v4c0,0.263,0.107,0.521,0.293,0.707S0.737,10,1,10h3v13v4
		c0,0.263,0.107,0.521,0.293,0.707S4.737,28,5,28h4h13v3c0,0.263,0.107,0.521,0.293,0.707S22.737,32,23,32h4
		c0.263,0,0.521-0.107,0.707-0.293S28,31.263,28,31v-3h3c0.263,0,0.521-0.107,0.707-0.293S32,27.263,32,27v-4
		C32,22.737,31.893,22.479,31.707,22.293z M22,22H10V10h12V22z M26,9v13h-2V9c0-0.263-0.107-0.521-0.293-0.707
		C23.521,8.107,23.263,8,23,8H10V6h13h3V9z M4,8H2V6h2V8z M26,30h-2v-2h2V30z"/>
	<path style="fill:#664848;" d="M9.08,21.506l-0.787,0.787c-0.391,0.391-0.391,1.024,0,1.414c0.391,0.391,1.024,0.391,1.414,0
		l0.787-0.787c0.391-0.391,0.391-1.024,0-1.414C10.103,21.116,9.47,21.116,9.08,21.506z M13.322,17.263l-1.414,1.414
		c-0.391,0.391-0.391,1.024,0,1.414c0.391,0.391,1.024,0.391,1.414,0l1.414-1.414c0.391-0.391,0.391-1.024,0-1.414
		C14.346,16.873,13.713,16.873,13.322,17.263z M17.565,13.021l-1.414,1.414c-0.391,0.391-0.391,1.024,0,1.414
		c0.391,0.391,1.024,0.391,1.414,0l1.414-1.414c0.391-0.391,0.391-1.024,0-1.414C18.589,12.63,17.955,12.63,17.565,13.021z
		 M21.808,8.778l-1.414,1.414c-0.391,0.391-0.391,1.024,0,1.414c0.391,0.391,1.024,0.391,1.414,0l1.414-1.414
		c0.391-0.391,0.391-1.024,0-1.414C22.831,8.388,22.198,8.388,21.808,8.778z M26.05,4.536L24.636,5.95
		c-0.391,0.391-0.391,1.024,0,1.414c0.391,0.391,1.024,0.391,1.414,0l1.414-1.414c0.391-0.391,0.391-1.024,0-1.414
		C27.074,4.145,26.441,4.145,26.05,4.536z M30.293,0.293l-1.414,1.414c-0.391,0.391-0.391,1.024,0,1.414
		c0.391,0.391,1.024,0.391,1.414,0l1.414-1.414c0.391-0.391,0.391-1.024,0-1.414C31.317-0.098,30.683-0.098,30.293,0.293z"/>
</g>
<g id="Layer_1">
</g>
</svg>
