<?xml version="1.0" encoding="iso-8859-1"?>
<!-- Generator: Adobe Illustrator 19.2.1, SVG Export Plug-In . SVG Version: 6.00 Build 0)  -->
<svg version="1.1" xmlns="http://www.w3.org/2000/svg" xmlns:xlink="http://www.w3.org/1999/xlink" x="0px" y="0px"
	 viewBox="0 0 31.87 31.87" style="enable-background:new 0 0 31.87 31.87;" xml:space="preserve">
<g id="Layer_27">
	<path style="fill:#FFD580;" d="M5.765,17.625l3-3l3-3l3-3l3-3l3-3l1.04-1.04c0.78-0.78,2.04-0.78,2.82,0l5.66,5.66
		c0.78,0.78,0.78,2.04,0,2.82l-20.2,20.22c-0.78,0.78-2.06,0.78-2.84,0l-5.66-5.66c-0.78-0.78-0.78-2.06,0-2.84l1.18-1.16
		L5.765,17.625z"/>
	<path style="fill:#664848;" d="M30.992,6.538l-5.66-5.66C24.75,0.295,23.978-0.001,23.215,0c-0.763-0.001-1.535,0.295-2.117,0.878
		l-1.04,1.04c0,0,0,0,0,0l-3,3l-3,3l-3,3l-3,3l-3,3L2.06,19.915l-1.176,1.156l-0.006,0.006C0.292,21.663-0.001,22.44,0,23.205
		c-0.001,0.765,0.292,1.542,0.878,2.127l5.66,5.66c0.585,0.586,1.362,0.879,2.127,0.878c0.765,0.001,1.542-0.292,2.127-0.878l0,0
		l20.2-20.22c0.582-0.582,0.879-1.354,0.878-2.117C31.871,7.892,31.575,7.12,30.992,6.538z M29.578,9.358l-20.2,20.22
		c-0.195,0.194-0.448,0.291-0.713,0.292c-0.265-0.001-0.518-0.098-0.713-0.292l-5.66-5.66C2.098,23.723,2.001,23.47,2,23.205
		c0.001-0.265,0.098-0.518,0.292-0.713l0.467-0.459l3.539,3.539c0.391,0.391,1.024,0.391,1.414,0c0.391-0.391,0.391-1.024,0-1.414
		l-3.533-3.533l1.586-1.586l2.533,2.533c0.391,0.391,1.024,0.391,1.414,0c0.391-0.391,0.391-1.024,0-1.414l-2.533-2.533l1.586-1.586
		l3.533,3.533c0.391,0.391,1.024,0.391,1.414,0c0.391-0.391,0.391-1.024,0-1.414l-3.533-3.533l1.586-1.586l2.533,2.533
		c0.391,0.391,1.024,0.391,1.414,0c0.391-0.391,0.391-1.024,0-1.414l-2.533-2.533l1.586-1.586l3.533,3.533
		c0.391,0.391,1.024,0.391,1.414,0c0.391-0.391,0.391-1.024,0-1.414l-3.533-3.533l1.586-1.586l2.533,2.533
		c0.391,0.391,1.024,0.391,1.414,0c0.391-0.391,0.391-1.024,0-1.414l-2.533-2.533l1.586-1.586l3.533,3.533
		c0.391,0.391,1.024,0.391,1.414,0c0.391-0.391,0.391-1.024,0-1.414l-3.533-3.533l0.333-0.333C22.71,2.095,22.958,2.001,23.215,2
		c0.257,0.001,0.505,0.095,0.703,0.292l5.66,5.66c0.197,0.198,0.291,0.446,0.292,0.703C29.869,8.912,29.775,9.16,29.578,9.358z"/>
</g>
<g id="Layer_1">
</g>
</svg>
