<?xml version="1.0" encoding="iso-8859-1"?>
<!-- Generator: Adobe Illustrator 19.2.1, SVG Export Plug-In . SVG Version: 6.00 Build 0)  -->
<svg version="1.1" xmlns="http://www.w3.org/2000/svg" xmlns:xlink="http://www.w3.org/1999/xlink" x="0px" y="0px"
	 viewBox="0 0 32 32.005" style="enable-background:new 0 0 32 32.005;" xml:space="preserve">
<g id="Layer_29">
	<path style="fill:#99DDFF;" d="M31,11.005v18c0,1.1-0.9,2-2,2H3c-1.1,0-2-0.9-2-2v-18c0-1.1,0.9-2,2-2h17.16l-1.48,1.48l-0.84,2.52
		H11v14h16v-14h-5.16l4-4H29C30.1,9.005,31,9.905,31,11.005z"/>
	<path style="fill:#FFD580;" d="M30.42,1.585c-0.78-0.78-2.06-0.78-2.84,0l-8.9,8.9l-1.4,4.24l4.24-1.4l0.32-0.32l8.58-8.58
		c0.38-0.38,0.58-0.9,0.58-1.42S30.8,1.965,30.42,1.585z"/>
	<path style="fill:#664848;" d="M20.16,8.005H1c-0.263,0-0.521,0.107-0.707,0.293C0.107,8.484,0,8.742,0,9.005v22
		c0,0.263,0.107,0.521,0.293,0.707C0.479,31.898,0.737,32.005,1,32.005h30c0.263,0,0.521-0.107,0.707-0.293
		C31.893,31.526,32,31.268,32,31.005v-22c0-0.263-0.107-0.521-0.293-0.707C31.521,8.112,31.263,8.005,31,8.005h-5.16h-0.02
		c-0.552,0-1,0.448-1,1c0,0.552,0.448,1,1,1l0.02,0H30v20H2v-20h18.16c0.552,0,1-0.448,1-1C21.16,8.453,20.712,8.005,20.16,8.005
		L20.16,8.005z"/>
	<path style="fill:#664848;" d="M32,3.005c-0.001-0.774-0.294-1.546-0.873-2.127L30.42,1.585l0.707-0.707
		C30.542,0.292,29.765-0.001,29,0c-0.765-0.001-1.542,0.292-2.127,0.878l-8.9,8.9l-0.242,0.394l-0.605,1.834H11
		c-0.263,0-0.521,0.107-0.707,0.293C10.107,12.484,10,12.742,10,13.005v14c0,0.263,0.107,0.521,0.293,0.707s0.444,0.293,0.707,0.293
		h16c0.263,0,0.521-0.107,0.707-0.293C27.893,27.526,28,27.268,28,27.005v-14c0-0.263-0.107-0.521-0.293-0.707
		c-0.186-0.186-0.444-0.293-0.707-0.293h-2.746l6.873-6.873C31.706,4.551,31.999,3.779,32,3.005z M26,14.005v12H12v-12h4.465
		l-0.134,0.406c-0.118,0.357-0.024,0.754,0.242,1.021c0.266,0.266,0.663,0.36,1.021,0.242l4.24-1.4l0.394-0.242l0.027-0.027H26z
		 M29.713,3.718l-8.58,8.58l-0.152,0.152l-2.129,0.703l0.703-2.129l8.732-8.732C28.482,2.098,28.735,2.001,29,2
		c0.265,0.001,0.518,0.098,0.713,0.292C29.894,2.471,30.001,2.739,30,3.005C30.001,3.271,29.894,3.539,29.713,3.718z"/>
	<path style="fill:#664848;" d="M5,14.005h2c0.552,0,1-0.448,1-1c0-0.552-0.448-1-1-1H5c-0.552,0-1,0.448-1,1
		C4,13.557,4.448,14.005,5,14.005"/>
	<path style="fill:#664848;" d="M5,18.005h2c0.552,0,1-0.448,1-1c0-0.552-0.448-1-1-1H5c-0.552,0-1,0.448-1,1
		C4,17.557,4.448,18.005,5,18.005"/>
	<path style="fill:#664848;" d="M5,24.005h2c0.552,0,1-0.448,1-1c0-0.552-0.448-1-1-1H5c-0.552,0-1,0.448-1,1
		C4,23.557,4.448,24.005,5,24.005"/>
	<path style="fill:#664848;" d="M5,28.005h2c0.552,0,1-0.448,1-1c0-0.552-0.448-1-1-1H5c-0.552,0-1,0.448-1,1
		C4,27.557,4.448,28.005,5,28.005"/>
</g>
<g id="Layer_1">
</g>
</svg>
