<?xml version="1.0" encoding="iso-8859-1"?>
<!-- Generator: Adobe Illustrator 19.2.1, SVG Export Plug-In . SVG Version: 6.00 Build 0)  -->
<svg version="1.1" xmlns="http://www.w3.org/2000/svg" xmlns:xlink="http://www.w3.org/1999/xlink" x="0px" y="0px"
	 viewBox="0 0 32 32.54" style="enable-background:new 0 0 32 32.54;" xml:space="preserve">
<g id="Layer_30">
	<path style="fill:#FF9999;" d="M1,25.54c0-3.3,2.7-6,6-6c0.54,0,1.06,0.08,1.54,0.22c0.26,0.06,0.5,0.16,0.76,0.26h0.02
		c0.22,0.1,0.46,0.22,0.68,0.34c0.9,0.54,1.64,1.28,2.18,2.18c0.12,0.22,0.24,0.46,0.34,0.68v0.02c0.1,0.26,0.2,0.5,0.26,0.76
		c0.14,0.48,0.22,1,0.22,1.54c0,3.3-2.7,6-6,6S1,28.84,1,25.54z M9,25.54c0-1.1-0.9-2-2-2s-2,0.9-2,2s0.9,2,2,2S9,26.64,9,25.54z"/>
	<path style="fill:#FF9999;" d="M25,23.54c-1.1,0-2,0.9-2,2s0.9,2,2,2s2-0.9,2-2S26.1,23.54,25,23.54z M31,25.54c0,3.3-2.7,6-6,6
		s-6-2.7-6-6c0-0.54,0.08-1.06,0.22-1.54c0.06-0.26,0.16-0.5,0.26-0.76v-0.02c0.1-0.22,0.22-0.46,0.34-0.68
		c0.54-0.88,1.28-1.64,2.16-2.18H22c0.22-0.12,0.46-0.24,0.68-0.34h0.02c0.26-0.1,0.5-0.2,0.76-0.26c0.5-0.14,1-0.22,1.54-0.22
		C28.3,19.54,31,22.24,31,25.54z"/>
	<path style="fill:#664848;" d="M13.443,22.835c-0.107-0.257-0.232-0.538-0.419-0.832L12.18,22.54l0.866-0.5
		c-0.61-1.054-1.492-1.936-2.546-2.546L10,20.36l0.537-0.844c-0.294-0.187-0.575-0.312-0.832-0.419
		c-0.51-0.212-1.095,0.029-1.308,0.538c-0.212,0.51,0.029,1.095,0.538,1.308c0.223,0.093,0.382,0.168,0.528,0.261L9.5,21.226
		c0.746,0.43,1.384,1.068,1.814,1.814l0.022,0.037c0.093,0.146,0.168,0.305,0.261,0.528c0.212,0.51,0.798,0.751,1.308,0.538
		C13.414,23.931,13.655,23.345,13.443,22.835L13.443,22.835z"/>
	<path style="fill:#664848;" d="M21.48,19.494c-1.06,0.613-1.922,1.501-2.526,2.546l0.866,0.5l-0.844-0.537
		c-0.187,0.294-0.312,0.575-0.419,0.832c-0.212,0.51,0.029,1.095,0.538,1.308c0.51,0.212,1.095-0.029,1.308-0.538
		c0.093-0.223,0.168-0.382,0.261-0.528l0.022-0.037c0.437-0.756,1.055-1.387,1.794-1.814c0.478-0.276,0.642-0.888,0.366-1.366
		C22.57,19.382,21.958,19.218,21.48,19.494L21.48,19.494z"/>
	<path style="fill:#664848;" d="M22.295,19.097c-0.257,0.107-0.538,0.232-0.832,0.419c-0.466,0.297-0.603,0.915-0.307,1.381
		c0.297,0.466,0.915,0.603,1.381,0.307c0.146-0.093,0.305-0.168,0.528-0.261c0.51-0.212,0.751-0.798,0.538-1.308
		C23.391,19.126,22.805,18.885,22.295,19.097L22.295,19.097z"/>
	<g>
		<path style="fill:#664848;" d="M7,22.54c-1.657,0.004-2.996,1.343-3,3c0.004,1.657,1.343,2.996,3,3c1.657-0.004,2.996-1.343,3-3
			C9.996,23.883,8.657,22.544,7,22.54z M7,26.54c-0.543-0.001-0.999-0.457-1-1c0.001-0.543,0.457-0.999,1-1
			c0.543,0.001,0.999,0.457,1,1C7.999,26.083,7.543,26.539,7,26.54z"/>
		<path style="fill:#664848;" d="M25,22.54c-1.657,0.004-2.996,1.343-3,3c0.004,1.657,1.343,2.996,3,3c1.657-0.004,2.996-1.343,3-3
			C27.996,23.883,26.657,22.544,25,22.54z M25,26.54c-0.543-0.001-0.999-0.457-1-1c0.001-0.543,0.457-0.999,1-1
			c0.543,0.001,0.999,0.457,1,1C25.999,26.083,25.543,26.539,25,26.54z"/>
	</g>
	<g>
		<circle style="fill:#664848;" cx="16" cy="16.54" r="2"/>
		<path style="fill:#664848;" d="M25,18.54c-0.423,0-0.824,0.054-1.216,0.13l-2.13-2.13l5.693-5.693
			c1.507-1.505,2.334-3.529,2.333-5.647c0.001-1.748-0.548-3.425-1.58-4.8c-0.174-0.232-0.44-0.377-0.729-0.397
			c-0.289-0.021-0.573,0.086-0.778,0.29L16,10.886L5.407,0.293c-0.205-0.205-0.489-0.311-0.778-0.29C4.34,0.023,4.074,0.168,3.9,0.4
			C2.868,1.775,2.319,3.452,2.32,5.2c-0.002,2.118,0.825,4.142,2.333,5.647l5.693,5.693l-2.129,2.129
			C7.824,18.594,7.421,18.54,7,18.54c-3.857,0.004-6.996,3.143-7,7c0.004,3.857,3.143,6.996,7,7c3.857-0.004,6.996-3.143,7-7
			c0-0.421-0.054-0.824-0.129-1.217L16,22.194l2.129,2.129C18.054,24.716,18,25.119,18,25.54c0.004,3.857,3.143,6.996,7,7
			c3.857-0.004,6.996-3.143,7-7C31.996,21.683,28.857,18.544,25,18.54z M6.067,9.433C4.935,8.298,4.322,6.802,4.32,5.2
			c0.001-0.92,0.21-1.79,0.583-2.582l9.682,9.682l-2.826,2.826L6.067,9.433z M10.53,29.07C9.62,29.98,8.374,30.54,7,30.54
			c-1.374,0-2.62-0.56-3.53-1.47C2.56,28.16,2,26.914,2,25.54c0-1.374,0.56-2.62,1.47-3.53C4.38,21.1,5.626,20.54,7,20.54
			c0.441,0,0.868,0.066,1.26,0.18l0.055,0.014c0.153,0.034,0.349,0.111,0.626,0.219l0.018,0.003c0.175,0.081,0.366,0.175,0.541,0.27
			c0.75,0.454,1.36,1.064,1.814,1.814c0.095,0.175,0.189,0.365,0.27,0.541l0.003,0.018c0.108,0.277,0.185,0.473,0.219,0.626
			l0.014,0.055c0.114,0.392,0.18,0.819,0.18,1.26C12,26.914,11.44,28.16,10.53,29.07z M15.293,20.073l-2.153,2.153
			c-0.029-0.055-0.053-0.111-0.082-0.164l-0.02-0.036c-0.622-1.039-1.484-1.901-2.523-2.523l-0.036-0.02
			c-0.054-0.029-0.11-0.054-0.165-0.082l2.153-2.153l4.24-4.24l10.39-10.39C27.47,3.41,27.679,4.28,27.68,5.2
			c-0.002,1.602-0.615,3.098-1.747,4.233l-6.4,6.4L15.293,20.073z M18.942,22.061c-0.029,0.054-0.054,0.11-0.082,0.164l-1.446-1.446
			l2.826-2.826l1.446,1.446c-0.041,0.022-0.083,0.04-0.123,0.062c-0.035,0.016-0.072,0.026-0.105,0.046
			c-1.024,0.629-1.87,1.502-2.489,2.509L18.942,22.061z M28.53,29.07C27.62,29.98,26.374,30.54,25,30.54
			c-1.374,0-2.62-0.56-3.53-1.47C20.56,28.16,20,26.914,20,25.54c0-0.441,0.066-0.868,0.18-1.26l0.014-0.055
			c0.034-0.153,0.111-0.349,0.219-0.626l0.003-0.018c0.08-0.174,0.174-0.362,0.268-0.536c0.451-0.729,1.064-1.356,1.775-1.802
			l0.019-0.005c0.181-0.099,0.38-0.197,0.563-0.281l0.018-0.003c0.277-0.108,0.473-0.185,0.626-0.219l0.045-0.011
			c0.429-0.12,0.83-0.182,1.27-0.183c1.374,0,2.62,0.56,3.53,1.47C29.44,22.92,30,24.166,30,25.54
			C30,26.914,29.44,28.16,28.53,29.07z"/>
	</g>
</g>
<g id="Layer_1">
</g>
</svg>
