<?xml version="1.0" encoding="iso-8859-1"?>
<!-- Generator: Adobe Illustrator 19.2.1, SVG Export Plug-In . SVG Version: 6.00 Build 0)  -->
<svg version="1.1" xmlns="http://www.w3.org/2000/svg" xmlns:xlink="http://www.w3.org/1999/xlink" x="0px" y="0px"
	 viewBox="0 0 32 26" style="enable-background:new 0 0 32 26;" xml:space="preserve">
<g id="Layer_4">
	<path style="fill:#FFD580;" d="M27.68,13.64c1.98,0.98,3.32,3,3.32,5.36c0,3.32-2.68,6-6,6s-6-2.68-6-6l0.02-0.3
		C19.16,15.52,21.78,13,25,13C25.96,13,26.88,13.24,27.68,13.64z"/>
	<path style="fill:#80D5FF;" d="M16,5c2.76,0,5,2.24,5,5s-2.24,5-5,5c-2.76,0-5-2.24-5-5S13.24,5,16,5z M18,10c0-1.1-0.9-2-2-2
		s-2,0.9-2,2s0.9,2,2,2S18,11.1,18,10z"/>
	<circle style="fill:#664848;" cx="16" cy="10" r="2"/>
	<g>
		<path style="fill:#664848;" d="M29.274,13.479c1.584-1.571,2.508-2.815,2.53-2.845c0.262-0.355,0.261-0.837-0.002-1.19
			c-0.031-0.039-1.749-2.352-4.558-4.692C24.437,2.422,20.516,0.012,16,0C11.483,0.012,7.563,2.422,4.755,4.751
			c-2.809,2.34-4.527,4.652-4.558,4.692c-0.263,0.354-0.263,0.839,0,1.193c0.031,0.039,1.749,2.352,4.558,4.692
			C7.563,17.658,11.483,19.988,16,20c0.699,0,1.39,0.014,2.065-0.094c0.203,1.571,0.919,2.984,1.983,4.047
			C21.311,25.217,23.068,26.001,25,26c1.932,0.001,3.689-0.783,4.952-2.048C31.217,22.689,32,20.932,32,19
			C32.001,16.744,30.932,14.754,29.274,13.479z M18.107,17.853c-0.693,0.134-1.4,0.227-2.107,0.227
			c-3.763,0.012-7.343-2.098-9.965-4.289c-1.31-1.09-2.377-2.187-3.111-3.006C2.66,10.49,2.456,10.249,2.281,10.04
			c0.721-0.867,2.226-2.553,4.255-4.159C9.106,3.839,12.471,1.991,16,2c3.763-0.012,7.343,2.098,9.965,4.289
			c1.31,1.09,2.377,2.187,3.111,3.006c0.265,0.296,0.47,0.537,0.644,0.747c-0.458,0.552-1.234,1.433-2.262,2.414
			C26.697,12.168,25.866,12,25,12c-1.464,0-2.82,0.452-3.943,1.219C21.651,12.288,21.999,11.186,22,10c-0.001-3.313-2.687-5.999-6-6
			c-3.313,0.001-5.999,2.687-6,6c0.001,3.313,2.687,5.999,6,6c1.187,0,2.291-0.35,3.222-0.945
			C18.661,15.878,18.272,16.827,18.107,17.853z M16,14c-2.207-0.004-3.996-1.793-4-4c0.004-2.207,1.793-3.996,4-4
			c2.207,0.004,3.996,1.793,4,4C19.996,12.207,18.207,13.996,16,14z M25,24c-2.765-0.001-4.991-2.224-4.999-4.987l0.016-0.247
			l0.001-0.023C20.136,16.099,22.313,14,25,14c0.793,0,1.563,0.199,2.233,0.534l0.004,0.002C28.888,15.357,29.998,17.026,30,19
			C29.999,21.769,27.769,23.999,25,24z"/>
		<path style="fill:#664848;" d="M26,18v-2c0-0.552-0.448-1-1-1s-1,0.448-1,1h0v2h-2c-0.552,0-1,0.448-1,1c0,0.552,0.448,1,1,1h2v2
			c0,0.552,0.448,1,1,1s1-0.448,1-1v-2h2c0.552,0,1-0.448,1-1c0-0.552-0.448-1-1-1H26z"/>
	</g>
</g>
<g id="Layer_1">
</g>
</svg>
