<?xml version="1.0" encoding="iso-8859-1"?>
<!-- Generator: Adobe Illustrator 19.2.1, SVG Export Plug-In . SVG Version: 6.00 Build 0)  -->
<svg version="1.1" xmlns="http://www.w3.org/2000/svg" xmlns:xlink="http://www.w3.org/1999/xlink" x="0px" y="0px"
	 viewBox="0 0 28 32" style="enable-background:new 0 0 28 32;" xml:space="preserve">
<g id="Layer_32">
	<circle style="fill:#664848;" cx="27" cy="1" r="1"/>
	<circle style="fill:#664848;" cx="27" cy="5" r="1"/>
	<circle style="fill:#664848;" cx="23" cy="1" r="1"/>
	<circle style="fill:#664848;" cx="23" cy="5" r="1"/>
	<circle style="fill:#664848;" cx="19" cy="1" r="1"/>
	<circle style="fill:#664848;" cx="19" cy="5" r="1"/>
	<rect x="1" y="13" style="fill:#FFD580;" width="16" height="18"/>
	<circle style="fill:#664848;" cx="15" cy="3" r="1"/>
	<path style="fill:#664848;" d="M6,27V17c0-0.552-0.448-1-1-1c-0.552,0-1,0.448-1,1v10c0,0.552,0.448,1,1,1C5.552,28,6,27.552,6,27"
		/>
	<path style="fill:#664848;" d="M12,4.52V2c0.001-0.544-0.219-1.055-0.583-1.417C11.055,0.219,10.544,0,10,0H8
		C7.456,0,6.945,0.219,6.583,0.583C6.219,0.945,5.999,1.456,6,2v2.52C2.493,5.75,0.002,9.09,0,13v18
		c0,0.263,0.107,0.521,0.293,0.707S0.737,32,1,32h16c0.263,0,0.521-0.107,0.707-0.293S18,31.263,18,31V13
		C17.998,9.09,15.507,5.75,12,4.52z M8,2h2v2H9H8V2z M7.246,6.229l0.024-0.006C7.812,6.071,8.376,6,9,6
		c0.624,0,1.188,0.071,1.729,0.223l0.024,0.006C13.459,6.917,15.513,9,15.915,12H2.085C2.487,9,4.541,6.917,7.246,6.229z M16,30H2
		V14h14V30z"/>
</g>
<g id="Layer_1">
</g>
</svg>
