<?xml version="1.0" encoding="iso-8859-1"?>
<!-- Generator: Adobe Illustrator 19.2.1, SVG Export Plug-In . SVG Version: 6.00 Build 0)  -->
<svg version="1.1" xmlns="http://www.w3.org/2000/svg" xmlns:xlink="http://www.w3.org/1999/xlink" x="0px" y="0px"
	 viewBox="0 0 30 30" style="enable-background:new 0 0 30 30;" xml:space="preserve">
<g id="Layer_33">
	<rect x="22" y="14" style="fill:#664848;" width="2" height="2"/>
	<rect x="22" y="10" style="fill:#664848;" width="2" height="2"/>
	<rect x="22" y="6" style="fill:#664848;" width="2" height="2"/>
	<rect x="20" y="16" style="fill:#664848;" width="2" height="2"/>
	<rect x="20" y="12" style="fill:#664848;" width="2" height="2"/>
	<rect x="20" y="8" style="fill:#664848;" width="2" height="2"/>
	<rect x="20" y="4" style="fill:#664848;" width="2" height="2"/>
	<rect x="18" y="14" style="fill:#664848;" width="2" height="2"/>
	<rect x="18" y="10" style="fill:#664848;" width="2" height="2"/>
	<rect x="18" y="6" style="fill:#664848;" width="2" height="2"/>
	<rect x="16" y="16" style="fill:#664848;" width="2" height="2"/>
	<rect x="16" y="12" style="fill:#664848;" width="2" height="2"/>
	<rect x="16" y="8" style="fill:#664848;" width="2" height="2"/>
	<rect x="16" y="4" style="fill:#664848;" width="2" height="2"/>
	<polygon style="fill:#99DDFF;" points="17,25 17,29 13,29 13,25 15,25 	"/>
	<rect x="14" y="14" style="fill:#664848;" width="2" height="2"/>
	<rect x="14" y="10" style="fill:#664848;" width="2" height="2"/>
	<rect x="14" y="6" style="fill:#664848;" width="2" height="2"/>
	<path style="fill:#99DDFF;" d="M15,21H1v2c0,1.1,0.9,2,2,2h10h2h2h10c1.1,0,2-0.9,2-2v-2H15z"/>
	<rect x="12" y="16" style="fill:#664848;" width="2" height="2"/>
	<rect x="12" y="12" style="fill:#664848;" width="2" height="2"/>
	<rect x="12" y="8" style="fill:#664848;" width="2" height="2"/>
	<rect x="12" y="4" style="fill:#664848;" width="2" height="2"/>
	<rect x="10" y="14" style="fill:#664848;" width="2" height="2"/>
	<rect x="10" y="10" style="fill:#664848;" width="2" height="2"/>
	<rect x="10" y="6" style="fill:#664848;" width="2" height="2"/>
	<rect x="8" y="16" style="fill:#664848;" width="2" height="2"/>
	<rect x="8" y="12" style="fill:#664848;" width="2" height="2"/>
	<rect x="8" y="8" style="fill:#664848;" width="2" height="2"/>
	<rect x="8" y="4" style="fill:#664848;" width="2" height="2"/>
	<rect x="6" y="14" style="fill:#664848;" width="2" height="2"/>
	<rect x="6" y="10" style="fill:#664848;" width="2" height="2"/>
	<rect x="6" y="6" style="fill:#664848;" width="2" height="2"/>
	<path style="fill:#664848;" d="M29.707,0.293C29.521,0.107,29.263,0,29,0H1C0.737,0,0.479,0.107,0.293,0.293
		C0.107,0.479,0,0.737,0,1v20v4c0,0.263,0.107,0.521,0.293,0.707S0.737,26,1,26h11v2H7c-0.552,0-1,0.448-1,1c0,0.552,0.448,1,1,1h6
		h4h6c0.552,0,1-0.448,1-1c0-0.552-0.448-1-1-1h-5v-2h11c0.263,0,0.521-0.107,0.707-0.293S30,25.263,30,25v-4V1
		C30,0.737,29.893,0.479,29.707,0.293z M16,28h-2v-2h1h1V28z M28,24H17h-2h-2H2v-2h13h13V24z M28,20H15H2V2h26V20z"/>
</g>
<g id="Layer_1">
</g>
</svg>
