<?xml version="1.0" encoding="iso-8859-1"?>
<!-- Generator: Adobe Illustrator 19.2.1, SVG Export Plug-In . SVG Version: 6.00 Build 0)  -->
<svg version="1.1" xmlns="http://www.w3.org/2000/svg" xmlns:xlink="http://www.w3.org/1999/xlink" x="0px" y="0px"
	 viewBox="0 0 32.009 31.935" style="enable-background:new 0 0 32.009 31.935;" xml:space="preserve">
<g id="Layer_34">
	<path style="fill:#FFD580;" d="M30.404,11.863c0.78,2.66,0.76,5.24,0.2,7.6c-0.22,0.9-1.04,1.56-1.98,1.56h-5.62c-1.1,0-2,0.9-2,2
		v5.62c0,0.94-0.66,1.76-1.56,1.98c-2.36,0.56-4.94,0.58-7.6-0.2c-5.5-1.6-9.74-6.28-10.64-11.92c-1.64-10.2,7.08-18.92,17.28-17.28
		C24.124,2.123,28.804,6.363,30.404,11.863z M26.004,8.023c0-1.1-0.9-2-2-2s-2,0.9-2,2s0.9,2,2,2S26.004,9.123,26.004,8.023z
		 M18.004,6.023c0-1.1-0.9-2-2-2s-2,0.9-2,2s0.9,2,2,2S18.004,7.123,18.004,6.023z M18.004,26.023c0-1.1-0.9-2-2-2s-2,0.9-2,2
		s0.9,2,2,2S18.004,27.123,18.004,26.023z M10.004,8.023c0-1.1-0.9-2-2-2s-2,0.9-2,2s0.9,2,2,2S10.004,9.123,10.004,8.023z
		 M10.004,24.023c0-1.1-0.9-2-2-2s-2,0.9-2,2s0.9,2,2,2S10.004,25.123,10.004,24.023z M8.004,16.023c0-1.1-0.9-2-2-2s-2,0.9-2,2
		s0.9,2,2,2S8.004,17.123,8.004,16.023z"/>
	<circle style="fill:#664747;" cx="24.004" cy="8.023" r="2"/>
	<circle style="fill:#664747;" cx="16.004" cy="6.023" r="2"/>
	<circle style="fill:#664747;" cx="16.004" cy="26.023" r="2"/>
	<circle style="fill:#664747;" cx="8.004" cy="8.023" r="2"/>
	<circle style="fill:#664747;" cx="8.004" cy="24.023" r="2"/>
	<circle style="fill:#664747;" cx="6.004" cy="16.023" r="2"/>
	<g>
		<polygon style="fill:#664848;" points="11.564,31.383 11.563,31.383 11.562,31.383 		"/>
		<path style="fill:#664848;" d="M31.364,11.583c-1.884-6.46-7.829-11.56-15.355-11.56C7.181,0.026,0.006,7.337,0.004,16.165
			c0,0.865-0.037,1.77,0.106,2.77H0.004l0,0H0.11c0.97,6,5.533,10.674,11.4,12.385c2.662,0.78,5.437,0.786,8.138,0.145l0.018-0.036
			C21.013,31.095,22,29.858,22,28.443v-5.42c0-0.543,0.46-1.088,1.004-1.088h5.62c1.415,0,2.618-0.931,2.951-2.279l0.002,0.015
			C32.217,16.974,32.145,14.247,31.364,11.583z M29.631,19.189c-0.114,0.458-0.532,0.746-1.015,0.746h-5.612
			c-1.653,0-3.004,1.435-3.004,3.084v5.424c0,0.475-0.33,0.894-0.801,1.01l-0.029,0.008c-2.265,0.529-4.645,0.506-7.044-0.197
			c-5.73-1.672-10.122-6.696-10.122-13.236C2.006,8.307,8.288,2.025,16.008,2.024c6.498,0,11.754,4.33,13.436,10.097
			C30.1,14.362,30.213,16.737,29.631,19.189z"/>
		<polygon style="fill:#664848;" points="31.363,11.582 31.364,11.583 31.364,11.584 		"/>
	</g>
</g>
<g id="Layer_1">
</g>
</svg>
