<?xml version="1.0" encoding="iso-8859-1"?>
<!-- Generator: Adobe Illustrator 19.2.1, SVG Export Plug-In . SVG Version: 6.00 Build 0)  -->
<svg version="1.1" xmlns="http://www.w3.org/2000/svg" xmlns:xlink="http://www.w3.org/1999/xlink" x="0px" y="0px"
	 viewBox="0 0 31.87 32.005" style="enable-background:new 0 0 31.87 32.005;" xml:space="preserve">
<g id="Layer_35">
	<path style="fill:#FF9999;" d="M29.7,2.185c1.56,1.56,1.56,4.08,0,5.64l-6.54,6.52l-5.66-5.66l6.54-6.5
		C25.6,0.605,28.14,0.605,29.7,2.185z"/>
	<path style="fill:#FFD580;" d="M8.82,13.005v3c0,1.66-1.34,3-3,3s-3-1.34-3-3v-3H8.82z"/>
	<path style="fill:#FFD580;" d="M23.96,22.085l-0.72,0.7c-0.78,0.78-2.04,0.78-2.82,0l-2.84-2.84l4.24-4.24l2.84,2.82
		c0.78,0.78,0.78,2.06,0,2.84L23.96,22.085z"/>
	<g>
		<polygon style="fill:#664848;" points="30.407,1.478 30.409,1.48 30.412,1.482 		"/>
		<path style="fill:#664848;" d="M30.409,1.48C29.437,0.496,28.149-0.001,26.87,0c-1.28-0.001-2.57,0.497-3.542,1.482l0.097-0.007
			L10,14.938v-1.933c0-0.263-0.197-0.521-0.383-0.707c-0.186-0.186-0.534-0.293-0.797-0.293h-6c-0.263,0-0.431,0.107-0.617,0.293
			C2.017,12.484,2,12.742,2,13.005v3c0,1.926,1.269,3.526,3.08,3.91c-1.947,2.463-3.099,5.495-3.193,8.654l-1.571,1.549
			c-0.391,0.391-0.402,1.024-0.011,1.414c0.391,0.391,1.018,0.391,1.409,0l1.545-1.548c3.717-0.107,7.279-1.621,9.911-4.252
			l-0.002,0.002l4.404-4.385l2.143,2.143c0.582,0.583,1.354,0.879,2.117,0.878c0.759,0.001,1.525-0.293,2.106-0.869l0.001,0.001
			l0.013-0.013c0.357,0.357,0.815,0.815,1.299,1.299c1.638,1.656,2.57,3.884,2.57,6.216c0,0.552,0.448,1,1,1s1-0.448,1-1
			c0-2.868-1.147-5.6-3.149-7.623l-0.004-0.004c-0.485-0.485-0.945-0.945-1.303-1.303l0.013-0.013l-0.001-0.001
			c0.579-0.584,0.87-1.355,0.869-2.116c0.001-0.765-0.292-1.542-0.878-2.127l-0.003-0.003l-2.133-2.118l0.636-0.646l6.538-6.518
			l0.001-0.001c0.973-0.972,1.464-2.254,1.463-3.527C31.871,3.733,31.38,2.452,30.409,1.48z M4,16.005v-2h4v2
			c0,1.109-0.891,1.999-2,2C4.891,18.004,4,17.114,4,16.005z M11.754,24.316l-0.002,0.002c-2.106,2.107-4.92,3.391-7.881,3.636
			c0.248-2.971,1.532-5.779,3.655-7.902l9.972-9.954l4.252,4.252l-0.642,0.651L11.754,24.316z M23.953,19.232
			c0.194,0.195,0.291,0.448,0.292,0.713c-0.001,0.265-0.098,0.518-0.292,0.713l-0.01,0.01l-0.599,0.616
			c-0.036,0.027-0.078,0.041-0.111,0.074c-0.033,0.033-0.046,0.075-0.073,0.111l-0.616,0.599l-0.01,0.01
			c-0.198,0.197-0.446,0.291-0.703,0.292c-0.257-0.001-0.505-0.095-0.703-0.292l-2.133-2.133l2.828-2.828L23.953,19.232z
			 M28.993,7.118l-5.832,5.814l-4.245-4.245l5.829-5.793l0.007-0.007C25.339,2.293,26.1,2.001,26.87,2
			c0.77,0.001,1.531,0.293,2.118,0.888l0.005,0.005c0.587,0.588,0.876,1.346,0.877,2.113C29.869,5.772,29.58,6.53,28.993,7.118z"/>
	</g>
</g>
<g id="Layer_1">
</g>
</svg>
