<?xml version="1.0" encoding="iso-8859-1"?>
<!-- Generator: Adobe Illustrator 19.2.1, SVG Export Plug-In . SVG Version: 6.00 Build 0)  -->
<svg version="1.1" xmlns="http://www.w3.org/2000/svg" xmlns:xlink="http://www.w3.org/1999/xlink" x="0px" y="0px"
	 viewBox="0 0 32 32" style="enable-background:new 0 0 32 32;" xml:space="preserve">
<g id="Layer_36">
	<circle style="fill:#FFD580;" cx="25" cy="7" r="6"/>
	<rect x="5" y="25" style="fill:#99DDFF;" width="8" height="6"/>
	<g>
		<path style="fill:#664848;" d="M29.952,2.048C28.689,0.783,26.931-0.001,25,0c-1.932-0.001-3.689,0.783-4.952,2.048
			C18.783,3.311,17.999,5.068,18,7c-0.001,1.932,0.783,3.689,2.048,4.952C21.311,13.217,23.068,14.001,25,14
			c1.932,0.001,3.689-0.783,4.952-2.048C31.217,10.689,32,8.932,32,7C32,5.068,31.217,3.311,29.952,2.048z M25,12
			c-2.769-0.001-4.999-2.231-5-5c0.001-2.769,2.231-4.999,5-5c2.769,0.001,4.999,2.231,5,5C29.999,9.769,27.769,11.999,25,12z"/>
		<path style="fill:#664848;" d="M28,6h-2V4c0-0.552-0.448-1-1-1s-1,0.448-1,1h0v2h-2c-0.552,0-1,0.448-1,1c0,0.552,0.448,1,1,1h2v2
			c0,0.552,0.448,1,1,1s1-0.448,1-1V8h2c0.552,0,1-0.448,1-1C29,6.448,28.552,6,28,6z"/>
	</g>
	<path style="fill:#664848;" d="M17.894,16.553l-8-16C9.848,0.46,9.786,0.379,9.716,0.307c-0.015-0.015-0.033-0.026-0.049-0.04
		C9.597,0.202,9.518,0.15,9.433,0.108C9.404,0.094,9.377,0.081,9.347,0.07C9.237,0.029,9.122,0,9,0S8.763,0.029,8.653,0.07
		c-0.03,0.011-0.057,0.024-0.086,0.038C8.481,0.15,8.403,0.202,8.332,0.266c-0.016,0.014-0.034,0.025-0.049,0.04
		C8.214,0.379,8.152,0.46,8.105,0.553l-8,16c-0.141,0.281-0.141,0.613,0,0.894L3.382,24H3c-0.552,0-1,0.448-1,1c0,0.552,0.448,1,1,1
		h1v5c0,0.263,0.107,0.521,0.293,0.707S4.736,32,5,32h8c0.263,0,0.521-0.107,0.707-0.293C13.893,31.521,14,31.263,14,31v-5h1
		c0.552,0,1-0.448,1-1c0-0.552-0.448-1-1-1h-0.382l3.276-6.553C18.035,17.166,18.035,16.834,17.894,16.553z M9,16
		c0.543,0.001,0.999,0.457,1,1c-0.001,0.543-0.457,0.999-1,1c-0.543-0.001-0.999-0.457-1-1C8.001,16.457,8.456,16.001,9,16z M12,30
		H6v-4h6V30z M12.382,24H5.618l-3.5-7L8,5.236v8.949C7,14.6,6.003,15.696,6,17c0.004,1.657,1.343,2.996,3,3
		c1.657-0.004,2.996-1.343,3-3c-0.003-1.304-1-2.4-2-2.815V5.236L15.882,17L12.382,24z"/>
</g>
<g id="Layer_1">
</g>
</svg>
