<?xml version="1.0" encoding="iso-8859-1"?>
<!-- Generator: Adobe Illustrator 19.2.1, SVG Export Plug-In . SVG Version: 6.00 Build 0)  -->
<svg version="1.1" xmlns="http://www.w3.org/2000/svg" xmlns:xlink="http://www.w3.org/1999/xlink" x="0px" y="0px"
	 viewBox="0 0 32.043 32.04" style="enable-background:new 0 0 32.043 32.04;" xml:space="preserve">
<g id="Layer_39">
	<path style="fill:#FFD580;" d="M21.148,10.9V2.44c1.12-0.96,2.5-1.44,3.9-1.44c1.54,0,3.06,0.58,4.24,1.76
		c2.34,2.34,2.34,6.14,0,8.48l-3.66,3.66h-8.48L21.148,10.9z"/>
	<path style="fill:#99DDFF;" d="M11.148,20.9l6-6h8.48l-10.8,10.82c-0.76,0.74-1.78,1.16-2.84,1.16h-6.82L11.148,20.9z"/>
	<path style="fill:#99DDFF;" d="M11.148,20.9l-5.98,5.98v-6.82c0-1.06,0.42-2.08,1.16-2.84l14.48-14.46l0.34-0.32v8.46l-4,4
		L11.148,20.9z"/>
	<path style="fill:#664848;" d="M32.043,7c0.001-1.787-0.684-3.584-2.048-4.947C28.626,0.682,26.837-0.002,25.048,0
		c-1.628-0.001-3.247,0.562-4.551,1.681l-0.035,0.031l-0.34,0.32l-0.021,0.021l-14.48,14.46l-0.094,0.01
		C4.607,17.467,4,18.735,4,20.06v6.406l-3.783,3.867c-0.391,0.391-0.349,1.024,0.042,1.414c0.391,0.391,1.045,0.391,1.435,0
		l0.01,0.08l3.878-3.787h6.406c1.325,0,2.593-0.604,3.538-1.523l-0.157-0.05L26,15.614v-0.003l3.827-3.662
		C31.191,10.586,32.044,8.788,32.043,7z M6,20.06c0-0.795,0.326-1.567,0.886-2.142L20,4.832v5.654l-3.707,3.707L12,18.486V16.66
		c0-0.552-0.448-1-1-1s-1,0.448-1,1v3.826l-4,3.98V20.06z M14.129,25.154c-0.575,0.56-1.347,0.886-2.142,0.886H7.582l3.98-4h3.826
		c0.552,0,1-0.448,1-1c0-0.552-0.448-1-1-1h-1.826l4-4h5.655L14.129,25.154z M25.213,14.04h-5.652l2.293-2.363l3.9-3.935
		c0.391-0.391,0.391-1.041,0-1.432c-0.391-0.391-1.097-0.399-1.488-0.009L22,8.486V2.951c1-0.622,1.94-0.95,2.974-0.951
		c1.29,0.002,2.578,0.478,3.57,1.467C29.52,4.444,30.023,5.717,30.024,7c-0.001,1.283-0.477,2.626-1.453,3.603L25.213,14.04z"/>
</g>
<g id="Layer_1">
</g>
</svg>
