<?xml version="1.0" encoding="iso-8859-1"?>
<!-- Generator: Adobe Illustrator 19.2.1, SVG Export Plug-In . SVG Version: 6.00 Build 0)  -->
<svg version="1.1" xmlns="http://www.w3.org/2000/svg" xmlns:xlink="http://www.w3.org/1999/xlink" x="0px" y="0px"
	 viewBox="0 0 32 30" style="enable-background:new 0 0 32 30;" xml:space="preserve">
<g id="Layer_40">
	<path style="fill:#FFD580;" d="M24.88,11.48C28.44,12.68,31,16.06,31,20c0,4.96-4.04,9-9,9c-2.3,0-4.4-0.86-6-2.32
		c1.84-1.64,3-4.02,3-6.68c0-0.5-0.04-1-0.12-1.48C21.98,17.46,24.32,14.78,24.88,11.48z"/>
	<path style="fill:#FF9999;" d="M25,10c0,0.5-0.04,1-0.12,1.48C23.98,11.16,23.02,11,22,11c-2.3,0-4.4,0.86-6,2.32
		C14.4,11.86,12.3,11,10,11c-1.02,0-1.98,0.16-2.88,0.48C7.04,11,7,10.5,7,10c0-4.96,4.04-9,9-9C20.96,1,25,5.04,25,10z"/>
	<path style="fill:#99DDFF;" d="M13,20c0,2.66,1.16,5.04,3,6.68C14.4,28.14,12.3,29,10,29c-4.96,0-9-4.04-9-9
		c0-3.94,2.56-7.32,6.12-8.52c0.56,3.3,2.9,5.98,6,7.04C13.04,19,13,19.5,13,20z"/>
	<path style="fill:#664848;" d="M25.967,10.829C25.989,10.554,26,10.277,26,10c-0.002-5.515-4.485-9.998-10-10
		C10.485,0.002,6.002,4.485,6,10c0,0.277,0.011,0.554,0.033,0.829C2.48,12.366,0.003,15.907,0,20c0.002,5.515,4.485,9.998,10,10
		c2.24,0.001,4.323-0.74,6-2.02c1.677,1.279,3.76,2.021,6,2.02c5.515-0.002,9.998-4.485,10-10
		C31.997,15.907,29.52,12.366,25.967,10.829z M10.347,4.347C11.8,2.896,13.794,2,16,2c2.206,0,4.2,0.896,5.653,2.347
		C23.104,5.8,24,7.794,24,10c0,0.069-0.015,0.135-0.017,0.204C23.341,10.073,22.68,10,22,10c-2.24-0.001-4.323,0.74-6,2.019
		C14.323,10.74,12.24,9.999,10,10c-0.68,0-1.341,0.073-1.983,0.204C8.015,10.135,8,10.069,8,10C8,7.794,8.896,5.8,10.347,4.347z
		 M16,14.736c0.776,0.869,1.359,1.91,1.688,3.063C17.15,17.918,16.595,18,16,18c-0.595,0-1.15-0.082-1.688-0.201
		C14.641,16.646,15.224,15.605,16,14.736z M12.423,17.143c-1.977-0.997-3.477-2.783-4.103-4.943C8.856,12.081,9.408,12,10,12
		c1.676,0.001,3.217,0.517,4.503,1.412C13.556,14.475,12.84,15.743,12.423,17.143z M17.497,13.412
		C18.783,12.517,20.324,12.001,22,12c0.592,0,1.144,0.081,1.68,0.199c-0.626,2.16-2.126,3.946-4.103,4.943
		C19.16,15.743,18.444,14.475,17.497,13.412z M10,28c-2.206,0-4.2-0.896-5.653-2.347C2.896,24.2,2,22.206,2,20
		c-0.002-3.11,1.806-5.826,4.427-7.14c0.856,2.836,2.927,5.117,5.609,6.288C12.013,19.43,12,19.715,12,20
		c-0.001,2.529,0.952,4.833,2.506,6.586C13.219,27.483,11.677,27.999,10,28z M14,20c0-0.069,0.015-0.135,0.017-0.204
		C14.659,19.927,15.32,20,16,20c0.68,0,1.341-0.073,1.983-0.204C17.985,19.865,18,19.931,18,20c-0.001,2.024-0.757,3.855-2,5.258
		C14.757,23.855,14.001,22.024,14,20z M27.653,25.653C26.2,27.104,24.206,28,22,28c-1.677-0.001-3.219-0.517-4.506-1.414
		C19.048,24.833,20.001,22.529,20,20c0-0.285-0.013-0.57-0.036-0.852c2.682-1.171,4.753-3.452,5.609-6.288
		c2.622,1.314,4.43,4.03,4.427,7.14C30,22.206,29.104,24.2,27.653,25.653z"/>
</g>
<g id="Layer_1">
</g>
</svg>
