<?xml version="1.0" encoding="iso-8859-1"?>
<!-- Generator: Adobe Illustrator 19.2.1, SVG Export Plug-In . SVG Version: 6.00 Build 0)  -->
<svg version="1.1" xmlns="http://www.w3.org/2000/svg" xmlns:xlink="http://www.w3.org/1999/xlink" x="0px" y="0px"
	 viewBox="0 0 32 25.991" style="enable-background:new 0 0 32 25.991;" xml:space="preserve">
<g id="Layer_5">
	<path style="fill:#FFD580;" d="M30.98,18.791c-0.06-2.26-1.38-4.22-3.3-5.16c-0.8-0.4-1.72-0.64-2.68-0.64
		c-3.22,0-5.84,2.52-5.98,5.7l-0.02,0.3l0.02,0.2c0.08,3.22,2.72,5.8,5.98,5.8c3.32,0,6-2.68,6-6L30.98,18.791z"/>
	<path style="fill:#99DDFF;" d="M16,4.991c2.76,0,5,2.24,5,5s-2.24,5-5,5s-5-2.24-5-5S13.24,4.991,16,4.991z M18,9.991
		c0-1.1-0.9-2-2-2s-2,0.9-2,2s0.9,2,2,2S18,11.091,18,9.991z"/>
	<g>
		<circle style="fill:#664848;" cx="16" cy="9.991" r="2"/>
		<path style="fill:#664848;" d="M31.975,18.991h-0.002c-0.079-2-1.115-4.154-2.697-5.372c1.583-1.571,2.507-2.889,2.529-2.919
			c0.262-0.355,0.261-0.874-0.002-1.228c-0.031-0.039-1.749-2.371-4.558-4.711C24.437,2.432,20.516,0.012,16,0
			C11.483,0.012,7.563,2.417,4.755,4.747c-2.809,2.34-4.527,4.65-4.558,4.69c-0.263,0.354-0.263,0.838,0,1.192
			c0.031,0.039,1.749,2.351,4.558,4.691c2.808,2.329,6.728,4.659,11.245,4.671c0.701,0,1.394,0.014,2.071-0.095
			c0.423,3.441,3.362,6.096,6.929,6.095c1.932,0.001,3.689-0.783,4.952-2.048C31.217,22.679,32,20.922,32,18.991l-0.005,0.05
			L31.975,18.991z M18.107,17.844c-0.693,0.134-1.4,0.227-2.107,0.227c-3.763,0.012-7.343-2.098-9.965-4.289
			c-1.31-1.09-2.377-2.187-3.111-3.006C2.66,10.481,2.456,10.24,2.281,10.03c0.721-0.867,2.226-2.553,4.255-4.159
			C9.106,3.83,12.471,1.981,16,1.991c3.763-0.012,7.343,2.098,9.965,4.289c1.31,1.09,2.377,2.187,3.111,3.006
			c0.265,0.296,0.47,0.537,0.644,0.747c-0.458,0.552-1.234,1.433-2.262,2.414c-0.761-0.288-1.591-0.456-2.458-0.456
			c-1.464,0-2.82,0.452-3.943,1.219c0.594-0.931,0.943-2.033,0.943-3.219c-0.001-3.313-2.687-5.999-6-6
			c-3.313,0.001-5.999,2.687-6,6c0.001,3.313,2.687,5.999,6,6c1.187,0,2.291-0.35,3.222-0.945
			C18.661,15.869,18.272,16.817,18.107,17.844z M16,13.991c-2.207-0.004-3.996-1.793-4-4c0.004-2.207,1.793-3.996,4-4
			c2.207,0.004,3.996,1.793,4,4C19.996,12.197,18.207,13.987,16,13.991z M25,23.991c-2.721-0.001-4.914-2.149-4.98-4.825
			l-0.005-0.075l-0.012-0.117l0.014-0.217l0.001-0.023c0.117-2.645,2.294-4.744,4.981-4.744c0.793,0,1.563,0.199,2.233,0.534
			l0.008,0.004c1.591,0.779,2.691,2.407,2.74,4.288l0.005,0.073l0.013,0.125C29.983,21.773,27.76,23.99,25,23.991z"/>
		<path style="fill:#664848;" d="M28,17.991h-6c-0.552,0-1,0.448-1,1c0,0.552,0.448,1,1,1h6c0.552,0,1-0.448,1-1
			C29,18.438,28.552,17.991,28,17.991z"/>
	</g>
</g>
<g id="Layer_1">
</g>
</svg>
