<?xml version="1.0" encoding="iso-8859-1"?>
<!-- Generator: Adobe Illustrator 19.2.1, SVG Export Plug-In . SVG Version: 6.00 Build 0)  -->
<svg version="1.1" xmlns="http://www.w3.org/2000/svg" xmlns:xlink="http://www.w3.org/1999/xlink" x="0px" y="0px"
	 viewBox="0 0 32 20" style="enable-background:new 0 0 32 20;" xml:space="preserve">
<g id="Layer_6">
	<path style="fill:#99DDFF;" d="M16,5c2.76,0,5,2.24,5,5s-2.24,5-5,5c-2.76,0-5-2.24-5-5S13.24,5,16,5z M18,10c0-1.1-0.9-2-2-2
		s-2,0.9-2,2s0.9,2,2,2S18,11.1,18,10z"/>
	<circle style="fill:#664848;" cx="16" cy="10" r="2"/>
	<g>
		<path style="fill:#664848;" d="M31.802,9.443c-0.031-0.039-1.749-2.352-4.558-4.692C24.437,2.422,20.516,0.012,16,0
			C11.483,0.012,7.563,2.422,4.755,4.751c-2.809,2.34-4.527,4.652-4.558,4.692c-0.263,0.354-0.263,0.839,0,1.193
			c0.031,0.039,1.749,2.352,4.558,4.692C7.563,17.658,11.483,19.988,16,20c4.517-0.012,8.437-2.342,11.245-4.671
			c2.809-2.34,4.527-4.653,4.558-4.692C32.065,10.283,32.065,9.797,31.802,9.443z M25.463,14.199
			c-2.569,2.041-5.934,3.89-9.463,3.881c-3.763,0.012-7.343-2.098-9.965-4.289c-1.31-1.09-2.377-2.187-3.111-3.006
			C2.66,10.49,2.456,10.249,2.281,10.04c0.721-0.867,2.226-2.553,4.255-4.159C9.106,3.839,12.471,1.991,16,2
			c3.763-0.012,7.343,2.098,9.965,4.289c1.31,1.09,2.377,2.187,3.111,3.006c0.264,0.295,0.468,0.536,0.643,0.746
			C28.997,10.908,27.492,12.593,25.463,14.199z"/>
		<path style="fill:#664848;" d="M16,4c-3.313,0.001-5.999,2.687-6,6c0.001,3.313,2.687,5.999,6,6c3.313-0.001,5.999-2.687,6-6
			C21.999,6.687,19.313,4.001,16,4z M16,14c-2.207-0.004-3.996-1.793-4-4c0.004-2.207,1.793-3.996,4-4c2.207,0.004,3.996,1.793,4,4
			C19.996,12.207,18.207,13.996,16,14z"/>
	</g>
</g>
<g id="Layer_1">
</g>
</svg>
