<?xml version="1.0" encoding="iso-8859-1"?>
<!-- Generator: Adobe Illustrator 19.2.1, SVG Export Plug-In . SVG Version: 6.00 Build 0)  -->
<svg version="1.1" xmlns="http://www.w3.org/2000/svg" xmlns:xlink="http://www.w3.org/1999/xlink" x="0px" y="0px"
	 viewBox="0 0 31.885 26.21" style="enable-background:new 0 0 31.885 26.21;" xml:space="preserve">
<g id="Layer_7">
	<path style="fill:#99DDFF;" d="M29.7,1.96c1.58,1.56,1.58,4.1,0,5.66l-12.1,12.1l-5.66-5.66l12.12-12.1
		C25.62,0.4,28.14,0.4,29.7,1.96z"/>
	<polygon style="fill:#FFD580;" points="17.6,19.72 17.56,19.76 15.94,21.38 15.56,21 5,21 11.9,14.1 11.94,14.06 	"/>
	<g>
		<polygon style="fill:#665252;" points="30.403,1.248 30.405,1.251 30.407,1.253 		"/>
		<path style="fill:#665252;" d="M31.885,4.79c0.001-1.279-0.496-2.567-1.48-3.539C29.433,0.28,28.152-0.211,26.88-0.21
			c-1.273-0.001-2.555,0.49-3.527,1.463l0.001-0.001l-12.12,12.1l-0.001,0.001l-0.04,0.04l-6.9,6.9l-4,4
			c-0.286,0.286-0.372,0.821-0.217,1.195C0.231,25.861,0.596,26.21,1,26.21h11.32c0.263,0,0.521-0.212,0.707-0.398l3.62-3.673
			l1.466-1.646L18,20.44v-0.007L30.254,8.33l0.072,0.003C31.311,7.361,31.886,6.07,31.885,4.79z M11.906,24.21H3.414l2-2h8.492
			L11.906,24.21z M15.848,20.163c-0.093-0.028-0.186,0.047-0.288,0.047H7.414l4.526-4.631l4.246,4.246L15.848,20.163z M28.997,6.908
			l-0.005,0.005L17.6,18.306l-4.245-4.245L24.767,2.668l0.001-0.001c0.588-0.587,1.346-0.876,2.113-0.877
			c0.767,0.001,1.525,0.29,2.113,0.877l0.005,0.005c0.594,0.588,0.886,1.349,0.888,2.118C29.884,5.56,29.592,6.32,28.997,6.908z"/>
	</g>
</g>
<g id="Layer_1">
</g>
</svg>
